SplineFontDB: 3.2
FontName: ForDrawingTitles-Bold
FullName: For Drawing Titles
FamilyName: For Drawing Titles
Weight: Bold
Copyright: Karlis Kalviskis, 2024.\nThis Font Software is licensed under the SIL Open Font License.\nThis font was inspired by\n"Archistico",\n"Fredericka the Great" and\n"Gravitas One" fonts.
UComments: "This font was inspired by +IB4A-Archistico+IB0A, +IB4A-Fredericka the Great+IB0A and +IB4A-Gravitas One+IB0A fonts."
Version: 1
ItalicAngle: 0
UnderlinePosition: -120
UnderlineWidth: 112
Ascent: 1638
Descent: 410
InvalidEm: 0
sfntRevision: 0x00010000
LayerCount: 4
Layer: 0 1 "Back" 1
Layer: 1 1 "Fore" 0
Layer: 2 1 "TMP" 1
Layer: 3 1 "Thinner" 1
XUID: [1021 649 293428461 14757695]
FSType: 0
OS2Version: 3
OS2_WeightWidthSlopeOnly: 0
OS2_UseTypoMetrics: 0
CreationTime: 1305819720
ModificationTime: 1737299527
PfmFamily: 17
TTFWeight: 700
TTFWidth: 5
LineGap: 0
VLineGap: 0
OS2TypoAscent: 1938
OS2TypoAOffset: 0
OS2TypoDescent: -668
OS2TypoDOffset: 0
OS2TypoLinegap: 0
OS2WinAscent: 1938
OS2WinAOffset: 0
OS2WinDescent: 668
OS2WinDOffset: 0
HheadAscent: 1938
HheadAOffset: 0
HheadDescent: -668
HheadDOffset: 0
OS2SubXSize: 1434
OS2SubYSize: 1332
OS2SubXOff: 0
OS2SubYOff: 286
OS2SupXSize: 1434
OS2SupYSize: 1332
OS2SupXOff: 0
OS2SupYOff: 976
OS2StrikeYSize: 114
OS2StrikeYPos: 688
OS2CapHeight: 1418
OS2XHeight: 1112
OS2FamilyClass: 256
OS2Vendor: '    '
MarkAttachClasses: 1
DEI: 91125
TtTable: prep
PUSHW_1
 511
SCANCTRL
PUSHB_1
 4
SCANTYPE
EndTTInstrs
ShortTable: maxp 16
  1
  0
  238
  129
  5
  0
  0
  1
  0
  0
  0
  0
  0
  0
  0
  0
EndShort
LangName: 1033 "" "" "" "" "" "" "" "" "" "K+AQEA-rlis Kalvi+AWEA-kis" "" "" "" "This Font Software is licensed under+AAoA-the SIL Open Font License, Version 1.1. " "http://scripts.sil.org/OFL"
GaspTable: 1 65535 3 0
Encoding: UnicodeFull
Compacted: 1
UnicodeInterp: none
NameList: Adobe Glyph List
DisplaySize: -48
AntiAlias: 1
FitToEm: 0
WidthSeparation: 307
WinInfo: 0 22 9
BeginPrivate: 0
EndPrivate
Grid

StartChar: numbersign
Encoding: 35 35 3
Width: 1542
GlyphClass: 2
Flags: W
LayerCount: 4
Back
SplineSet
410 422 m 5,0,-1
 150 422 l 5,1,-1
 150 544 l 5,2,-1
 442 544 l 5,3,-1
 528 860 l 5,4,-1
 150 860 l 5,5,-1
 150 986 l 5,6,-1
 562 986 l 5,7,-1
 678 1418 l 5,8,-1
 794 1418 l 5,9,-1
 680 986 l 5,10,-1
 1054 986 l 5,11,-1
 1172 1418 l 5,12,-1
 1288 1418 l 5,13,-1
 1174 986 l 5,14,-1
 1392 986 l 5,15,-1
 1392 860 l 5,16,-1
 1140 860 l 5,17,-1
 1054 544 l 5,18,-1
 1392 544 l 5,19,-1
 1392 422 l 5,20,-1
 1022 422 l 5,21,-1
 910 0 l 5,22,-1
 790 0 l 5,23,-1
 904 422 l 5,24,-1
 528 422 l 5,25,-1
 416 0 l 5,26,-1
 296 0 l 5,27,-1
 410 422 l 5,0,-1
938 544 m 5,28,-1
 1022 860 l 5,29,-1
 646 860 l 5,30,-1
 562 544 l 5,31,-1
 938 544 l 5,28,-1
EndSplineSet
Fore
SplineSet
296 0 m 1,0,-1
 410 422 l 1,1,-1
 150 422 l 1,2,-1
 150 544 l 1,3,-1
 442 544 l 1,4,-1
 528 860 l 1,5,-1
 150 860 l 1,6,-1
 150 986 l 1,7,-1
 562 986 l 1,8,-1
 678 1418 l 1,9,-1
 794 1418 l 1,10,-1
 680 986 l 1,11,-1
 1054 986 l 1,12,-1
 1172 1418 l 1,13,-1
 1288 1418 l 1,14,-1
 1174 986 l 1,15,-1
 1392 986 l 1,16,-1
 1392 860 l 1,17,-1
 1140 860 l 1,18,-1
 1054 544 l 1,19,-1
 1392 544 l 1,20,-1
 1392 422 l 1,21,-1
 1022 422 l 1,22,-1
 910 0 l 1,23,-1
 790 0 l 1,24,-1
 904 422 l 1,25,-1
 528 422 l 1,26,-1
 416 0 l 1,27,-1
 296 0 l 1,0,-1
562 544 m 1,28,-1
 938 544 l 1,29,-1
 1022 860 l 1,30,-1
 646 860 l 1,31,-1
 562 544 l 1,28,-1
EndSplineSet
Validated: 1
Layer: 3
SplineSet
554 538 m 5,0,-1
 943 538 l 5,1,-1
 1030 866 l 5,2,-1
 641 866 l 5,3,-1
 554 538 l 5,0,-1
905 6 m 5,4,-1
 798 6 l 5,5,-1
 912 428 l 5,6,-1
 523 428 l 5,7,-1
 411 6 l 5,8,-1
 304 6 l 5,9,-1
 418 428 l 5,10,-1
 156 428 l 5,11,-1
 156 538 l 5,12,-1
 447 538 l 5,13,-1
 536 866 l 5,14,-1
 156 866 l 5,15,-1
 156 980 l 5,16,-1
 567 980 l 5,17,-1
 683 1412 l 5,18,-1
 786 1412 l 5,19,-1
 672 980 l 5,20,-1
 1059 980 l 5,21,-1
 1177 1412 l 5,22,-1
 1280 1412 l 5,23,-1
 1166 980 l 5,24,-1
 1386 980 l 5,25,-1
 1386 866 l 5,26,-1
 1135 866 l 5,27,-1
 1046 538 l 5,28,-1
 1386 538 l 5,29,-1
 1386 428 l 5,30,-1
 1017 428 l 5,31,-1
 905 6 l 5,4,-1
EndSplineSet
EndChar

StartChar: percent
Encoding: 37 37 5
Width: 1282
GlyphClass: 2
Flags: W
LayerCount: 4
Back
SplineSet
348 718 m 260,0,1
 270 718 270 718 217 751 c 132,-1,2
 164 784 164 784 131 838 c 132,-1,3
 98 892 98 892 84 958 c 132,-1,4
 70 1024 70 1024 70 1088 c 260,5,6
 70 1152 70 1152 84 1217 c 132,-1,7
 98 1282 98 1282 131 1335 c 132,-1,8
 164 1388 164 1388 217 1421 c 132,-1,9
 270 1454 270 1454 348 1454 c 260,10,11
 426 1454 426 1454 480 1421 c 132,-1,12
 534 1388 534 1388 567 1335 c 132,-1,13
 600 1282 600 1282 614 1216 c 132,-1,14
 628 1150 628 1150 628 1088 c 260,15,16
 628 1024 628 1024 614 958 c 132,-1,17
 600 892 600 892 567 838 c 132,-1,18
 534 784 534 784 480 751 c 132,-1,19
 426 718 426 718 348 718 c 260,0,1
1084 1412 m 5,20,-1
 1138 1332 l 5,21,-1
 208 22 l 5,22,-1
 154 100 l 5,23,-1
 1084 1412 l 5,20,-1
348 786 m 132,-1,25
 378 786 378 786 395 812 c 132,-1,26
 412 838 412 838 419 880 c 132,-1,27
 426 922 426 922 427 975 c 132,-1,28
 428 1028 428 1028 428 1088 c 4,29,30
 428 1146 428 1146 427 1199 c 132,-1,31
 426 1252 426 1252 419 1294 c 132,-1,32
 412 1336 412 1336 395 1361 c 132,-1,33
 378 1386 378 1386 348 1386 c 132,-1,35
 318 1386 318 1386 302 1361 c 132,-1,36
 286 1336 286 1336 278 1294 c 132,-1,37
 270 1252 270 1252 269 1198 c 132,-1,38
 268 1144 268 1144 268 1088 c 4,39,40
 268 1030 268 1030 269 976 c 132,-1,41
 270 922 270 922 278 880 c 132,-1,42
 286 838 286 838 302 812 c 132,-1,43
 318 786 318 786 348 786 c 132,-1,25
654 332 m 260,44,45
 654 396 654 396 668 461 c 132,-1,46
 682 526 682 526 715 579 c 132,-1,47
 748 632 748 632 801 665 c 132,-1,48
 854 698 854 698 932 698 c 260,49,50
 1010 698 1010 698 1063 665 c 132,-1,51
 1116 632 1116 632 1150 579 c 132,-1,52
 1184 526 1184 526 1198 461 c 132,-1,53
 1212 396 1212 396 1212 332 c 260,54,55
 1212 268 1212 268 1198 202 c 132,-1,56
 1184 136 1184 136 1150 82 c 132,-1,57
 1116 28 1116 28 1063 -5 c 132,-1,58
 1010 -38 1010 -38 932 -38 c 260,59,60
 854 -38 854 -38 801 -5 c 132,-1,61
 748 28 748 28 715 82 c 132,-1,62
 682 136 682 136 668 202 c 132,-1,63
 654 268 654 268 654 332 c 260,44,45
852 332 m 132,-1,65
 852 274 852 274 853 220 c 132,-1,66
 854 166 854 166 861 124 c 132,-1,67
 868 82 868 82 885 56 c 132,-1,68
 902 30 902 30 932 30 c 132,-1,70
 962 30 962 30 979 56 c 132,-1,71
 996 82 996 82 1003 124 c 132,-1,72
 1010 166 1010 166 1012 219 c 132,-1,73
 1014 272 1014 272 1014 332 c 4,74,75
 1014 390 1014 390 1012 443 c 132,-1,76
 1010 496 1010 496 1003 538 c 132,-1,77
 996 580 996 580 979 605 c 132,-1,78
 962 630 962 630 932 630 c 132,-1,80
 902 630 902 630 885 605 c 132,-1,81
 868 580 868 580 861 538 c 132,-1,82
 854 496 854 496 853 443 c 132,-1,83
 852 390 852 390 852 332 c 132,-1,65
EndSplineSet
Fore
SplineSet
480 751 m 0,0,1
 426 718 426 718 348 718 c 128,-1,2
 270 718 270 718 217 751 c 128,-1,3
 164 784 164 784 131 838 c 128,-1,4
 98 892 98 892 84 958 c 128,-1,5
 70 1024 70 1024 70 1088 c 128,-1,6
 70 1152 70 1152 84 1217 c 128,-1,7
 98 1282 98 1282 131 1335 c 128,-1,8
 164 1388 164 1388 217 1421 c 128,-1,9
 270 1454 270 1454 348 1454 c 128,-1,10
 426 1454 426 1454 480 1421 c 128,-1,11
 534 1388 534 1388 567 1335 c 0,12,13
 573 1326 573 1326 578 1317 c 0,14,15
 628 1224 628 1224 628 1088 c 0,16,17
 628 841 628 841 480 751 c 0,0,1
154 100 m 1,18,-1
 1084 1412 l 1,19,-1
 1138 1332 l 1,20,-1
 208 22 l 1,21,-1
 154 100 l 1,18,-1
302 812 m 128,-1,23
 318 786 318 786 348 786 c 128,-1,24
 378 786 378 786 395 812 c 128,-1,25
 412 838 412 838 419 880 c 0,26,27
 419 880 419 880 428 1070 c 1,28,29
 428 1070 428 1070 419 1294 c 0,30,31
 412 1336 412 1336 395 1361 c 128,-1,32
 378 1386 378 1386 348 1386 c 128,-1,33
 318 1386 318 1386 302 1361 c 128,-1,34
 286 1336 286 1336 278 1294 c 0,35,36
 278 1292 278 1292 277 1290 c 0,37,38
 277 1290 277 1290 268 1105 c 1,39,40
 268 1105 268 1105 278 880 c 0,41,22
 286 838 286 838 302 812 c 128,-1,23
668 202 m 128,-1,43
 654 268 654 268 654 332 c 128,-1,44
 654 396 654 396 668 461 c 128,-1,45
 682 526 682 526 715 579 c 128,-1,46
 748 632 748 632 801 665 c 128,-1,47
 854 698 854 698 932 698 c 128,-1,48
 1010 698 1010 698 1063 665 c 128,-1,49
 1116 632 1116 632 1150 579 c 128,-1,50
 1184 526 1184 526 1198 461 c 128,-1,51
 1212 396 1212 396 1212 332 c 128,-1,52
 1212 268 1212 268 1198 202 c 128,-1,53
 1184 136 1184 136 1150 82 c 128,-1,54
 1116 28 1116 28 1063 -5 c 128,-1,55
 1010 -38 1010 -38 932 -38 c 128,-1,56
 854 -38 854 -38 801 -5 c 128,-1,57
 748 28 748 28 715 82 c 128,-1,42
 682 136 682 136 668 202 c 128,-1,43
852 332 m 1,58,59
 852 332 852 332 861 124 c 0,60,61
 868 82 868 82 885 56 c 128,-1,62
 902 30 902 30 932 30 c 128,-1,63
 962 30 962 30 979 56 c 128,-1,64
 996 82 996 82 1003 124 c 0,65,66
 1003 124 1003 124 1014 316 c 1,67,68
 1014 316 1014 316 1003 538 c 0,69,70
 996 580 996 580 979 605 c 128,-1,71
 962 630 962 630 932 630 c 128,-1,72
 902 630 902 630 885 605 c 128,-1,73
 868 580 868 580 861 538 c 0,74,75
 861 538 861 538 852 332 c 1,58,59
EndSplineSet
Validated: 1
Layer: 3
SplineSet
846 332 m 132,-1,0
 846 274 846 274 847 219.5 c 132,-1,1
 848 165 848 165 855 122.5 c 132,-1,2
 862 80 862 80 880.5 52 c 132,-1,3
 899 24 899 24 932 24 c 132,-1,4
 965 24 965 24 984 53 c 4,5,6
 1002 80 1002 80 1009 123 c 132,-1,7
 1016 166 1016 166 1018 219 c 4,8,9
 1022 331 1022 331 1018 443 c 4,10,11
 1016 497 1016 497 1009 539.5 c 132,-1,12
 1002 582 1002 582 983.5 609 c 132,-1,13
 965 636 965 636 932 636 c 132,-1,14
 899 636 899 636 880 608 c 4,15,16
 862 582 862 582 855 539.5 c 132,-1,17
 848 497 848 497 847 443.5 c 132,-1,18
 846 390 846 390 846 332 c 132,-1,0
660 332 m 132,-1,18
 660 395 660 395 674 459.5 c 132,-1,19
 688 524 688 524 720 576 c 132,-1,20
 752 628 752 628 804 660 c 132,-1,21
 856 692 856 692 932 692 c 132,-1,22
 1008 692 1008 692 1060 660 c 132,-1,23
 1112 628 1112 628 1145 576 c 132,-1,24
 1178 524 1178 524 1192 459.5 c 132,-1,25
 1206 395 1206 395 1206 332 c 132,-1,26
 1206 269 1206 269 1192 203.5 c 132,-1,27
 1178 138 1178 138 1145 85 c 132,-1,28
 1112 32 1112 32 1060 0 c 132,-1,29
 1008 -32 1008 -32 932 -32 c 132,-1,30
 856 -32 856 -32 804 0 c 132,-1,31
 752 32 752 32 720 85 c 132,-1,32
 688 138 688 138 674 203.5 c 132,-1,33
 660 269 660 269 660 332 c 132,-1,18
433 1199 m 4,33,34
 432 1252 432 1252 425 1295 c 132,-1,35
 418 1338 418 1338 399.5 1365 c 132,-1,36
 381 1392 381 1392 348 1392 c 132,-1,37
 315 1392 315 1392 297 1364 c 4,38,39
 265 1314 265 1314 263 1198 c 4,40,41
 261 1087 261 1087 263 976 c 4,42,43
 265 861 265 861 297 808 c 4,44,45
 314 780 314 780 348 780 c 4,46,47
 381 780 381 780 399.5 808 c 132,-1,48
 418 836 418 836 425 879 c 132,-1,49
 432 922 432 922 433 975 c 4,50,51
 435 1087 435 1087 433 1199 c 4,33,34
348 724 m 132,-1,52
 272 724 272 724 220 756 c 132,-1,53
 168 788 168 788 136 841 c 132,-1,54
 104 894 104 894 90 959.5 c 132,-1,55
 76 1025 76 1025 76 1088 c 132,-1,56
 76 1151 76 1151 90 1215.5 c 132,-1,57
 104 1280 104 1280 136 1332 c 132,-1,58
 168 1384 168 1384 220 1416 c 132,-1,59
 272 1448 272 1448 348 1448 c 132,-1,60
 424 1448 424 1448 477 1416 c 132,-1,61
 530 1384 530 1384 562 1332 c 132,-1,62
 594 1280 594 1280 608 1214.5 c 132,-1,63
 622 1149 622 1149 622 1087 c 132,-1,64
 622 1025 622 1025 608 959.5 c 132,-1,65
 594 894 594 894 562 841 c 132,-1,66
 530 788 530 788 477 756 c 132,-1,67
 424 724 424 724 348 724 c 132,-1,52
208 32 m 5,67,-1
 161 100 l 5,68,-1
 1084 1401 l 5,69,-1
 1131 1332 l 5,70,-1
 208 32 l 5,67,-1
EndSplineSet
EndChar

StartChar: ampersand
Encoding: 38 38 6
Width: 1370
GlyphClass: 2
Flags: W
LayerCount: 4
Back
SplineSet
66 296 m 4,0,1
 66 372 66 372 86 434 c 132,-1,2
 106 496 106 496 144 546 c 132,-1,3
 182 596 182 596 233 634 c 132,-1,4
 284 672 284 672 346 702 c 5,5,6
 320 748 320 748 300 790 c 132,-1,7
 280 832 280 832 267 874 c 132,-1,8
 254 916 254 916 247 959 c 132,-1,9
 240 1002 240 1002 240 1048 c 4,10,11
 240 1128 240 1128 263 1201 c 132,-1,12
 286 1274 286 1274 331 1330 c 132,-1,13
 376 1386 376 1386 443 1420 c 132,-1,14
 510 1454 510 1454 596 1454 c 4,15,16
 634 1454 634 1454 673 1451 c 132,-1,17
 712 1448 712 1448 750 1436 c 132,-1,18
 788 1424 788 1424 821 1403 c 132,-1,19
 854 1382 854 1382 880 1349 c 132,-1,20
 906 1316 906 1316 920 1270 c 132,-1,21
 934 1224 934 1224 934 1162 c 4,22,23
 934 1104 934 1104 922 1055 c 132,-1,24
 910 1006 910 1006 887 966 c 132,-1,25
 864 926 864 926 833 893 c 132,-1,26
 802 860 802 860 766 834 c 5,27,28
 816 748 816 748 864 672 c 132,-1,29
 912 596 912 596 958 530 c 5,30,-1
 1034 694 l 6,31,32
 1036 700 1036 700 1036 710 c 4,33,34
 1036 722 1036 722 1027 732 c 132,-1,35
 1018 742 1018 742 1001 747 c 132,-1,36
 984 752 984 752 960 755 c 132,-1,37
 936 758 936 758 908 758 c 5,38,-1
 908 830 l 5,39,-1
 1246 830 l 5,40,-1
 1246 758 l 5,41,42
 1214 758 1214 758 1192 754 c 132,-1,43
 1170 750 1170 750 1155 741 c 132,-1,44
 1140 732 1140 732 1130 720 c 132,-1,45
 1120 708 1120 708 1114 694 c 4,46,47
 1086 636 1086 636 1059 580 c 132,-1,48
 1032 524 1032 524 1006 468 c 5,49,50
 1030 438 1030 438 1051 414 c 132,-1,51
 1072 390 1072 390 1091 373 c 132,-1,52
 1110 356 1110 356 1130 347 c 132,-1,53
 1150 338 1150 338 1172 338 c 4,54,55
 1210 338 1210 338 1234 372 c 132,-1,56
 1258 406 1258 406 1258 474 c 5,57,-1
 1304 474 l 5,58,59
 1310 402 1310 402 1310 344 c 4,60,61
 1310 242 1310 242 1289 169 c 132,-1,62
 1268 96 1268 96 1228 50 c 132,-1,63
 1188 4 1188 4 1131 -17 c 132,-1,64
 1074 -38 1074 -38 1000 -38 c 4,65,66
 936 -38 936 -38 882 -15 c 132,-1,67
 828 8 828 8 772 62 c 5,68,69
 748 40 748 40 717 21 c 132,-1,70
 686 2 686 2 648 -11 c 132,-1,71
 610 -24 610 -24 563 -31 c 132,-1,72
 516 -38 516 -38 458 -38 c 4,73,74
 368 -38 368 -38 296 -18 c 132,-1,75
 224 2 224 2 172 44 c 132,-1,76
 120 86 120 86 93 148 c 132,-1,77
 66 210 66 210 66 296 c 4,0,1
736 884 m 5,78,79
 760 914 760 914 779 953 c 132,-1,80
 798 992 798 992 812 1033 c 132,-1,81
 826 1074 826 1074 834 1117 c 132,-1,82
 842 1160 842 1160 842 1202 c 4,83,84
 842 1234 842 1234 835 1263 c 132,-1,85
 828 1292 828 1292 815 1315 c 132,-1,86
 802 1338 802 1338 784 1350 c 132,-1,87
 766 1362 766 1362 742 1362 c 4,88,89
 724 1362 724 1362 706 1349 c 132,-1,90
 688 1336 688 1336 676 1313 c 132,-1,91
 664 1290 664 1290 656 1259 c 132,-1,92
 648 1228 648 1228 648 1194 c 4,93,94
 648 1108 648 1108 672 1029 c 132,-1,95
 696 950 696 950 736 884 c 5,78,79
350 528 m 4,96,97
 350 484 350 484 363 437 c 132,-1,98
 376 390 376 390 398 340 c 132,-1,99
 420 290 420 290 448 245 c 132,-1,100
 476 200 476 200 506 166 c 132,-1,101
 536 132 536 132 567 110 c 132,-1,102
 598 88 598 88 626 88 c 260,103,104
 652 88 652 88 675 96 c 132,-1,105
 698 104 698 104 718 118 c 5,106,107
 686 158 686 158 650 209 c 132,-1,108
 614 260 614 260 573 324 c 132,-1,109
 532 388 532 388 486 465 c 132,-1,110
 440 542 440 542 388 632 c 5,111,112
 370 612 370 612 360 586 c 132,-1,113
 350 560 350 560 350 528 c 4,96,97
EndSplineSet
Fore
SplineSet
93 148 m 0,0,1
 66 210 66 210 66 296 c 0,2,3
 66 372 66 372 86 434 c 128,-1,4
 106 496 106 496 144 546 c 128,-1,5
 182 596 182 596 233 634 c 0,6,7
 255 650 255 650 278 665 c 0,8,9
 310 685 310 685 346 702 c 1,10,11
 320 748 320 748 300 790 c 128,-1,12
 280 832 280 832 267 874 c 128,-1,13
 254 916 254 916 247 959 c 128,-1,14
 240 1002 240 1002 240 1048 c 0,15,16
 240 1194 240 1194 331 1330 c 0,17,18
 333 1333 333 1333 336 1336 c 0,19,20
 435 1454 435 1454 596 1454 c 0,21,22
 634 1454 634 1454 673 1451 c 128,-1,23
 712 1448 712 1448 750 1436 c 128,-1,24
 788 1424 788 1424 821 1403 c 128,-1,25
 854 1382 854 1382 880 1349 c 128,-1,26
 906 1316 906 1316 920 1270 c 128,-1,27
 934 1224 934 1224 934 1162 c 0,28,29
 934 1104 934 1104 922 1055 c 128,-1,30
 910 1006 910 1006 887 966 c 0,31,32
 873 942 873 942 857 921 c 0,33,34
 820 873 820 873 766 834 c 1,35,36
 816 748 816 748 864 672 c 128,-1,37
 912 596 912 596 958 530 c 1,38,-1
 1034 694 l 2,39,40
 1043 714 1043 714 1026 733 c 1,41,42
 1014 745 1014 745 1003 747 c 2,43,44
 999 749 999 749 960 755 c 0,45,46
 936 758 936 758 908 758 c 1,47,-1
 908 830 l 1,48,-1
 1246 830 l 1,49,-1
 1246 758 l 1,50,51
 1214 758 1214 758 1192 754 c 0,52,53
 1173 751 1173 751 1160 744 c 0,54,55
 1131 730 1131 730 1115 696 c 2,56,57
 1115 696 1115 696 1006 468 c 1,58,59
 1088 366 1088 366 1130 347 c 0,60,61
 1152 337 1152 337 1175 338 c 0,62,63
 1211 339 1211 339 1234 372 c 0,64,65
 1258 406 1258 406 1258 474 c 1,66,-1
 1304 474 l 1,67,68
 1310 402 1310 402 1310 344 c 0,69,70
 1310 340 1310 340 1310 335 c 0,71,72
 1310 328 1310 328 1310 322 c 0,73,74
 1310 242 1310 242 1289 169 c 0,75,76
 1267 92 1267 92 1228 50 c 0,77,78
 1215 36 1215 36 1201 24 c 0,79,80
 1128 -38 1128 -38 1014 -38 c 0,81,82
 1011 -38 1011 -38 1007 -38 c 128,-1,83
 1003 -38 1003 -38 1000 -38 c 0,84,85
 936 -38 936 -38 882 -15 c 128,-1,86
 828 8 828 8 772 62 c 1,87,88
 761 52 761 52 748 42 c 0,89,90
 733 31 733 31 717 21 c 0,91,92
 686 2 686 2 648 -11 c 128,-1,93
 610 -24 610 -24 563 -31 c 128,-1,94
 516 -38 516 -38 458 -38 c 0,95,96
 174 -38 174 -38 93 148 c 0,0,1
648 1182 m 0,97,98
 650 1102 650 1102 672 1029 c 0,99,100
 696 950 696 950 736 884 c 1,101,102
 738 886 738 886 739 888 c 0,103,104
 761 917 761 917 779 953 c 0,105,106
 798 992 798 992 812 1033 c 0,107,108
 825 1071 825 1071 833 1110 c 0,109,110
 834 1114 834 1114 834 1117 c 0,111,112
 842 1159 842 1159 842 1199 c 0,113,114
 842 1235 842 1235 835 1263 c 0,115,116
 828 1292 828 1292 815 1315 c 0,117,118
 788 1362 788 1362 742 1362 c 0,119,120
 724 1362 724 1362 706 1349 c 128,-1,121
 688 1336 688 1336 676 1313 c 0,122,123
 669 1299 669 1299 663 1282 c 0,124,125
 659 1271 659 1271 656 1259 c 0,126,127
 649 1232 649 1232 648 1182 c 0,97,98
350 532 m 0,128,129
 351 482 351 482 363 437 c 0,130,131
 376 390 376 390 398 340 c 128,-1,132
 420 290 420 290 448 245 c 128,-1,133
 476 200 476 200 506 166 c 0,134,135
 509 163 509 163 511 160 c 0,136,137
 539 130 539 130 567 110 c 0,138,139
 596 88 596 88 626 88 c 0,140,141
 651 88 651 88 675 96 c 0,142,143
 697 104 697 104 718 118 c 1,144,145
 620 240 620 240 530 391 c 0,146,147
 394 621 394 621 388 632 c 1,148,149
 370 612 370 612 360 586 c 0,150,151
 351 562 351 562 350 532 c 0,128,129
559 1069 m 1,152,-1
 549 1060 l 1,153,-1
 442 973 l 1,154,-1
 367 889 l 1,155,156
 376 863 376 863 388 837 c 1,157,158
 482 910 482 910 576 984 c 1,159,-1
 580 988 l 1,160,161
 578 994 578 994 576 1000 c 0,162,163
 566 1034 566 1034 559 1069 c 1,152,-1
549 1150 m 1,164,165
 405 1011 405 1011 376 988 c 2,166,-1
 347 965 l 1,167,168
 353 931 353 931 364 898 c 1,169,-1
 436 979 l 2,170,171
 468 1016 468 1016 544 1066 c 1,172,-1
 558 1079 l 1,173,174
 551 1114 551 1114 549 1150 c 1,164,165
549 1163 m 1,175,176
 548 1178 548 1178 548 1194 c 0,177,178
 548 1208 548 1208 549 1222 c 1,179,-1
 340 1039 l 1,180,181
 341 1006 341 1006 346 973 c 1,182,183
 359 983 359 983 371 994 c 2,184,-1
 549 1163 l 1,175,176
649 835 m 1,185,186
 617 890 617 890 603 926 c 1,187,188
 553 854 553 854 551 853 c 2,189,-1
 426 767 l 1,190,191
 446 732 446 732 465 699 c 1,192,-1
 602 799 l 1,193,-1
 649 835 l 1,185,186
653 828 m 1,194,-1
 606 793 l 2,195,196
 484 701 484 701 468 693 c 1,197,198
 471 688 471 688 493 651 c 1,199,200
 584 721 584 721 676 790 c 1,201,202
 670 801 670 801 663 812 c 0,203,204
 658 820 658 820 653 828 c 1,194,-1
583 980 m 1,205,206
 582 979 582 979 581 978 c 2,207,-1
 391 831 l 1,208,209
 405 802 405 802 421 772 c 1,210,-1
 546 859 l 1,211,212
 578 905 578 905 599 935 c 1,213,214
 591 957 591 957 583 980 c 1,205,206
680 783 m 1,215,-1
 496 644 l 1,216,217
 510 621 510 621 523 599 c 1,218,-1
 567 629 l 1,219,-1
 707 737 l 1,220,221
 694 759 694 759 680 783 c 1,215,-1
776 624 m 1,222,-1
 591 484 l 1,223,224
 601 467 601 467 611 451 c 1,225,-1
 798 590 l 1,226,227
 789 604 789 604 779 619 c 0,228,229
 778 621 778 621 776 624 c 1,222,-1
755 658 m 1,230,-1
 570 519 l 1,231,232
 579 504 579 504 587 491 c 1,233,-1
 772 630 l 1,234,235
 764 644 764 644 755 658 c 1,230,-1
740 682 m 1,236,237
 679 636 679 636 596 573 c 2,238,-1
 555 544 l 1,239,240
 561 535 561 535 566 526 c 1,241,-1
 751 664 l 1,242,243
 745 673 745 673 740 682 c 1,236,237
711 731 m 1,244,-1
 571 623 l 1,245,-1
 527 593 l 1,246,247
 540 571 540 571 551 551 c 1,248,-1
 592 579 l 1,249,-1
 736 688 l 1,250,251
 724 709 724 709 711 731 c 1,244,-1
827 546 m 1,252,-1
 790 516 l 1,253,-1
 694 436 l 1,254,-1
 645 396 l 1,255,256
 651 386 651 386 657 378 c 0,257,258
 659 375 659 375 662 371 c 1,259,-1
 850 511 l 1,260,261
 839 528 839 528 827 546 c 1,252,-1
854 505 m 1,262,-1
 666 365 l 1,263,264
 685 336 685 336 702 310 c 1,265,-1
 832 399 l 1,266,-1
 895 446 l 1,267,268
 874 475 874 475 854 505 c 1,262,-1
802 584 m 1,269,-1
 615 445 l 1,270,271
 628 423 628 423 641 403 c 1,272,-1
 784 522 l 1,273,-1
 822 553 l 1,274,275
 812 568 812 568 802 584 c 1,269,-1
921 409 m 1,276,277
 910 424 910 424 899 440 c 1,278,279
 870 418 870 418 836 393 c 2,280,-1
 706 304 l 1,281,282
 718 287 718 287 729 270 c 1,283,284
 856 362 856 362 921 409 c 1,276,277
950 371 m 1,285,-1
 764 233 l 1,286,287
 779 207 779 207 797 184 c 1,288,-1
 992 330 l 1,289,290
 986 336 986 336 981 342 c 1,291,-1
 978 335 l 1,292,293
 964 353 964 353 950 371 c 1,285,-1
926 403 m 1,294,295
 820 327 820 327 733 264 c 1,296,297
 744 249 744 249 754 235 c 1,298,-1
 945 377 l 1,299,300
 936 390 936 390 926 403 c 1,294,295
997 325 m 1,301,-1
 801 179 l 1,302,303
 810 168 810 168 819 157 c 1,304,-1
 1019 303 l 1,305,306
 1008 313 1008 313 997 325 c 1,301,-1
1085 258 m 1,307,308
 1075 263 1075 263 1065 268 c 1,309,-1
 859 118 l 1,310,311
 868 111 868 111 876 104 c 1,312,-1
 1085 258 l 1,307,308
1058 273 m 1,313,314
 1041 284 1041 284 1025 298 c 1,315,-1
 825 151 l 1,316,317
 832 143 832 143 840 136 c 0,318,319
 847 129 847 129 854 122 c 1,320,-1
 1058 273 l 1,313,314
1092 254 m 1,321,-1
 882 100 l 1,322,323
 889 95 889 95 895 91 c 1,324,-1
 967 149 l 1,325,-1
 1111 247 l 1,326,327
 1102 250 1102 250 1092 254 c 1,321,-1
1120 244 m 1,328,-1
 971 143 l 1,329,-1
 902 87 l 1,330,331
 911 82 911 82 920 77 c 0,332,333
 941 68 941 68 964 65 c 1,334,-1
 1036 124 l 1,335,-1
 1191 239 l 1,336,337
 1182 238 1182 238 1172 238 c 0,338,339
 1144 238 1144 238 1120 244 c 1,328,-1
1202 238 m 1,340,-1
 1040 118 l 1,341,-1
 974 63 l 1,342,343
 987 62 987 62 1000 62 c 0,344,345
 1049 62 1049 62 1086 73 c 1,346,-1
 1160 125 l 1,347,348
 1180 152 1180 152 1193 197 c 0,349,350
 1198 216 1198 216 1202 238 c 1,340,-1
1120 88 m 1,351,352
 1127 92 1127 92 1134 98 c 1,353,354
 1127 93 1127 93 1120 88 c 1,351,352
763 233 m 1,355,-1
 759 229 l 2,356,357
 760 227 760 227 761 226 c 1,358,359
 762 230 762 230 763 233 c 1,355,-1
340 1049 m 1,360,-1
 550 1233 l 1,361,362
 553 1259 553 1259 559 1283 c 0,363,364
 568 1316 568 1316 580 1344 c 1,365,366
 498 1263 498 1263 496 1261 c 2,367,-1
 355 1161 l 1,368,369
 340 1108 340 1108 340 1049 c 1,360,-1
359 1173 m 1,370,-1
 491 1267 l 1,371,-1
 577 1353 l 1,372,373
 527 1350 527 1350 488 1331 c 0,374,375
 394 1284 394 1284 359 1173 c 1,370,-1
191 428 m 1,376,377
 186 415 186 415 181 403 c 0,378,379
 173 377 173 377 169 345 c 1,380,-1
 265 417 l 1,381,382
 258 445 258 445 254 472 c 1,383,-1
 191 428 l 1,376,377
197 441 m 1,384,-1
 253 480 l 1,385,386
 251 498 251 498 250 517 c 1,387,388
 217 482 217 482 197 441 c 1,384,-1
360 197 m 1,389,-1
 300 157 l 1,390,-1
 242 116 l 1,391,392
 261 102 261 102 284 92 c 1,393,-1
 381 164 l 1,394,395
 372 177 372 177 364 191 c 0,396,397
 362 194 362 194 360 197 c 1,389,-1
337 237 m 1,398,-1
 213 143 l 1,399,400
 224 131 224 131 236 121 c 1,401,402
 274 148 274 148 296 163 c 2,403,-1
 356 203 l 1,404,405
 346 220 346 220 337 237 c 1,398,-1
334 243 m 1,406,407
 325 260 325 260 317 277 c 1,408,-1
 188 180 l 1,409,410
 196 163 196 163 208 149 c 1,411,-1
 334 243 l 1,406,407
314 284 m 1,412,413
 306 300 306 300 299 317 c 1,414,-1
 173 223 l 1,415,416
 177 204 177 204 185 188 c 0,417,418
 185 188 185 188 314 284 c 1,412,413
296 324 m 1,419,420
 290 339 290 339 285 353 c 1,421,-1
 271 343 l 1,422,-1
 166 274 l 1,423,424
 167 251 167 251 172 230 c 1,425,-1
 296 324 l 1,419,420
267 409 m 1,426,-1
 171 338 l 1,427,-1
 168 336 l 1,428,429
 166 316 166 316 166 294 c 0,430,431
 166 289 166 289 166 283 c 1,432,-1
 267 349 l 1,433,-1
 282 360 l 1,434,435
 274 384 274 384 267 409 c 1,426,-1
421 111 m 1,436,437
 403 133 403 133 385 158 c 1,438,-1
 291 89 l 1,439,440
 306 83 306 83 323 78 c 0,441,442
 342 73 342 73 363 69 c 1,443,-1
 421 111 l 1,436,437
461 68 m 1,444,445
 456 65 456 65 452 62 c 1,446,447
 455 62 455 62 458 62 c 0,448,449
 463 62 463 62 468 62 c 1,450,451
 464 65 464 65 461 68 c 1,444,445
426 106 m 1,452,-1
 373 68 l 1,453,454
 405 63 405 63 441 62 c 1,455,456
 449 68 449 68 456 73 c 1,457,458
 441 89 441 89 426 106 c 1,452,-1
EndSplineSet
Validated: 3073
Layer: 3
SplineSet
344 528 m 4,0,1
 344 483 344 483 357 435.5 c 132,-1,2
 370 388 370 388 392.5 337.5 c 132,-1,3
 415 287 415 287 443 242 c 4,4,5
 500 150 500 150 564 105 c 4,6,7
 596 82 596 82 626 82 c 4,8,9
 677 82 677 82 721 113 c 6,10,-1
 727 117 l 5,11,12
 657 203 657 203 578 327 c 4,13,14
 506 439 506 439 389 642 c 5,15,-1
 384 636 l 6,16,17
 344 592 344 592 344 528 c 4,0,1
642 1194 m 4,18,19
 642 1107 642 1107 666.5 1027.5 c 132,-1,20
 691 948 691 948 731 881 c 6,21,-1
 735 874 l 5,22,-1
 741 880 l 6,23,24
 785 936 785 936 818 1031 c 4,25,26
 848 1120 848 1120 848 1202 c 4,27,28
 848 1269 848 1269 820 1318 c 4,29,30
 792 1368 792 1368 742 1368 c 4,31,32
 722 1368 722 1368 702 1354 c 4,33,34
 668 1329 668 1329 650 1261 c 4,35,36
 642 1229 642 1229 642 1194 c 4,18,19
72 296 m 4,37,38
 72 371 72 371 92 432 c 4,39,40
 120 519 120 519 188 587 c 4,41,42
 249 648 249 648 354 699 c 5,43,44
 325 751 325 751 305 793 c 4,45,46
 246 917 246 917 246 1048 c 4,47,48
 246 1127 246 1127 268.5 1199 c 132,-1,49
 291 1271 291 1271 335.5 1326 c 132,-1,50
 380 1381 380 1381 445.5 1414.5 c 132,-1,51
 511 1448 511 1448 596 1448 c 4,52,53
 634 1448 634 1448 672.5 1445 c 132,-1,54
 711 1442 711 1442 748 1430 c 4,55,56
 828 1405 828 1405 875 1345 c 4,57,58
 928 1278 928 1278 928 1162 c 4,59,60
 928 1049 928 1049 882 969 c 4,61,62
 859 930 859 930 828.5 897.5 c 132,-1,63
 798 865 798 865 758 836 c 5,64,65
 861 659 861 659 959 518 c 5,66,-1
 1039 691 l 6,67,68
 1042 697 1042 697 1042 712 c 4,69,70
 1042 724 1042 724 1032 736 c 132,-1,71
 1022 748 1022 748 1003 753 c 4,72,73
 967 763 967 763 914 764 c 5,74,-1
 914 824 l 5,75,-1
 1240 824 l 5,76,-1
 1240 764 l 5,77,78
 1211 764 1211 764 1189.5 760 c 132,-1,79
 1168 756 1168 756 1152 746 c 4,80,81
 1123 728 1123 728 1109 696 c 4,82,83
 1108 696 1108 696 999 467 c 5,84,85
 1055 398 1055 398 1087 369 c 4,86,87
 1128 332 1128 332 1172 332 c 4,88,89
 1205 332 1205 332 1228 355 c 4,90,91
 1263 390 1263 390 1264 468 c 5,92,-1
 1298 468 l 5,93,94
 1304 400 1304 400 1304 344 c 4,95,96
 1304 243 1304 243 1283 171 c 4,97,98
 1243 31 1243 31 1129 -11 c 4,99,100
 1073 -32 1073 -32 1000 -32 c 4,101,102
 937 -32 937 -32 884 -10 c 4,103,104
 828 14 828 14 776 66 c 6,105,-1
 772 70 l 5,106,107
 745 45 745 45 714 26 c 4,108,109
 619 -32 619 -32 458 -32 c 4,110,111
 276 -32 276 -32 176 49 c 4,112,113
 125 90 125 90 98.5 150.5 c 132,-1,114
 72 211 72 211 72 296 c 4,37,38
EndSplineSet
EndChar

StartChar: quotesingle
Encoding: 39 39 7
Width: 434
GlyphClass: 2
Flags: W
LayerCount: 4
Back
SplineSet
192 1122 m 5,0,1
 182 1238 182 1238 174 1262 c 4,2,3
 158 1334 158 1334 152 1360 c 4,4,5
 142 1396 142 1396 133 1431 c 132,-1,6
 124 1466 124 1466 116 1500 c 132,-1,7
 108 1534 108 1534 104 1564 c 132,-1,8
 100 1594 100 1594 100 1620 c 4,9,10
 100 1644 100 1644 110 1664 c 132,-1,11
 120 1684 120 1684 137 1697 c 132,-1,12
 154 1710 154 1710 175 1718 c 132,-1,13
 196 1726 196 1726 218 1726 c 260,14,15
 240 1726 240 1726 260 1718 c 132,-1,16
 280 1710 280 1710 297 1697 c 132,-1,17
 314 1684 314 1684 325 1664 c 132,-1,18
 336 1644 336 1644 336 1620 c 4,19,20
 336 1594 336 1594 331 1564 c 132,-1,21
 326 1534 326 1534 318 1500 c 4,22,23
 312 1468 312 1468 302 1430 c 4,24,25
 292 1396 292 1396 282 1360 c 4,26,27
 270 1312 270 1312 260 1237 c 132,-1,28
 250 1162 250 1162 244 1122 c 5,29,-1
 192 1122 l 5,0,1
EndSplineSet
Fore
SplineSet
244 1122 m 1,0,-1
 192 1122 l 1,1,2
 185 1197 185 1197 178 1244 c 2,3,4
 178 1244 178 1244 158 1334 c 0,5,6
 154 1351 154 1351 150 1365 c 0,7,8
 142 1396 142 1396 133 1431 c 128,-1,9
 124 1466 124 1466 116 1500 c 0,10,11
 100 1568 100 1568 100 1613 c 0,12,13
 100 1644 100 1644 110 1664 c 128,-1,14
 120 1684 120 1684 137 1697 c 0,15,16
 175 1726 175 1726 224 1726 c 0,17,18
 268 1726 268 1726 298 1696 c 1,19,20
 336 1666 336 1666 336 1631 c 0,21,22
 336 1594 336 1594 333 1578 c 0,23,24
 318 1501 318 1501 311 1469 c 1,25,26
 311 1469 311 1469 281 1354 c 0,27,28
 274 1328 274 1328 268 1290 c 0,29,30
 264 1265 264 1265 260 1237 c 0,31,32
 250 1162 250 1162 244 1122 c 1,0,-1
224 1538 m 1,33,34
 228 1558 228 1558 232 1578 c 0,35,36
 239 1613 239 1613 225 1624 c 1,37,38
 215 1629 215 1629 200 1619 c 1,39,40
 200 1610 200 1610 201 1601 c 1,41,42
 205 1558 205 1558 212 1527 c 1,43,44
 212 1527 212 1527 217 1506 c 1,45,46
 217 1506 217 1506 224 1538 c 1,33,34
EndSplineSet
Validated: 1
Layer: 3
SplineSet
330 1618 m 4,0,1
 330 1577 330 1577 312 1501 c 6,2,3
 306 1470 306 1470 296 1432 c 4,4,5
 286 1398 286 1398 276 1362 c 4,6,7
 264 1313 264 1313 254.5 1240.5 c 132,-1,8
 245 1168 245 1168 239 1128 c 5,9,-1
 198 1128 l 5,10,11
 188 1240 188 1240 180 1264 c 4,12,13
 164 1335 164 1335 158 1361 c 4,14,15
 138 1433 138 1433 122 1501 c 4,16,17
 106 1568 106 1568 106 1618 c 4,18,19
 106 1642 106 1642 115 1661 c 4,20,21
 132 1695 132 1695 177 1712 c 4,22,23
 197 1720 197 1720 218 1720 c 132,-1,24
 239 1720 239 1720 258 1712 c 4,25,26
 286 1701 286 1701 303 1684 c 4,27,28
 330 1656 330 1656 330 1618 c 4,0,1
EndSplineSet
EndChar

StartChar: parenleft
Encoding: 40 40 8
Width: 582
GlyphClass: 2
Flags: W
LayerCount: 4
Back
SplineSet
102 708 m 260,0,1
 102 952 102 952 133 1132 c 132,-1,2
 164 1312 164 1312 219 1430 c 132,-1,3
 274 1548 274 1548 376 1605 c 132,-1,4
 478 1662 478 1662 576 1662 c 5,5,-1
 576 1596 l 5,6,7
 552 1596 552 1596 510 1584 c 132,-1,8
 468 1572 468 1572 456 1539 c 132,-1,9
 444 1506 444 1506 436 1445 c 132,-1,10
 428 1384 428 1384 424 1286 c 132,-1,11
 420 1188 420 1188 418 1047 c 132,-1,12
 416 906 416 906 416 708 c 260,13,14
 416 512 416 512 418 371 c 132,-1,15
 420 230 420 230 424 131 c 132,-1,16
 428 32 428 32 436 -28 c 132,-1,17
 444 -88 444 -88 456 -122 c 132,-1,18
 468 -156 468 -156 509 -167 c 132,-1,19
 550 -178 550 -178 576 -178 c 5,20,-1
 576 -248 l 5,21,22
 478 -248 478 -248 376 -190 c 132,-1,23
 274 -132 274 -132 219 -13 c 132,-1,24
 164 106 164 106 133 285 c 132,-1,25
 102 464 102 464 102 708 c 260,0,1
EndSplineSet
Fore
SplineSet
133 285 m 128,-1,1
 102 464 102 464 102 708 c 128,-1,2
 102 952 102 952 133 1132 c 128,-1,3
 164 1312 164 1312 219 1430 c 128,-1,4
 274 1548 274 1548 376 1605 c 128,-1,5
 478 1662 478 1662 576 1662 c 1,6,-1
 576 1596 l 1,7,8
 552 1596 552 1596 510 1584 c 128,-1,9
 468 1572 468 1572 456 1539 c 128,-1,10
 444 1506 444 1506 436 1445 c 128,-1,11
 428 1384 428 1384 424 1286 c 128,-1,12
 420 1188 420 1188 418 1047 c 0,13,14
 416 920 416 920 416 746 c 0,15,16
 416 498 416 498 418 371 c 0,17,18
 420 230 420 230 424 131 c 128,-1,19
 428 32 428 32 436 -28 c 128,-1,20
 444 -88 444 -88 456 -122 c 128,-1,21
 468 -156 468 -156 509 -167 c 128,-1,22
 550 -178 550 -178 576 -178 c 1,23,-1
 576 -248 l 1,24,25
 478 -248 478 -248 376 -190 c 128,-1,26
 274 -132 274 -132 219 -13 c 128,-1,0
 164 106 164 106 133 285 c 128,-1,1
210 939 m 1,27,28
 207 901 207 901 205 861 c 1,29,-1
 317 951 l 1,30,31
 317 987 317 987 318 1019 c 1,32,-1
 291 996 l 1,33,-1
 210 939 l 1,27,28
203 771 m 1,34,-1
 232 789 l 2,35,36
 275 817 275 817 316 846 c 1,37,38
 316 895 316 895 317 941 c 1,39,-1
 205 851 l 1,40,41
 204 812 204 812 203 771 c 1,34,-1
223 1059 m 1,42,43
 216 1007 216 1007 211 948 c 1,44,-1
 287 1002 l 1,45,-1
 318 1029 l 1,46,47
 319 1085 319 1085 320 1134 c 1,48,-1
 246 1076 l 2,49,50
 235 1068 235 1068 223 1059 c 1,42,43
224 1069 m 1,51,-1
 242 1082 l 1,52,-1
 320 1143 l 1,53,54
 321 1171 321 1171 321 1197 c 1,55,-1
 236 1141 l 1,56,57
 233 1127 233 1127 231 1113 c 0,58,59
 227 1091 227 1091 224 1069 c 1,51,-1
202 762 m 1,60,61
 202 738 202 738 202 713 c 1,62,-1
 316 786 l 1,63,64
 316 812 316 812 316 837 c 1,65,-1
 236 783 l 1,66,-1
 202 762 l 1,60,61
298 1362 m 1,67,-1
 311 1372 l 1,68,69
 322 1386 322 1386 331 1398 c 1,70,71
 332 1416 332 1416 334 1431 c 1,72,73
 321 1411 321 1411 310 1388 c 0,74,75
 304 1375 304 1375 298 1362 c 1,67,-1
292 1346 m 1,76,77
 282 1320 282 1320 273 1290 c 1,78,-1
 312 1322 l 1,79,-1
 326 1332 l 1,80,81
 327 1359 327 1359 329 1382 c 1,82,-1
 317 1366 l 1,83,-1
 292 1346 l 1,76,77
238 1151 m 1,84,85
 280 1178 280 1178 321 1205 c 1,86,87
 322 1251 322 1251 324 1290 c 0,88,89
 325 1307 325 1307 326 1323 c 1,90,91
 321 1319 321 1319 316 1316 c 2,92,-1
 269 1278 l 1,93,94
 251 1220 251 1220 238 1151 c 1,84,85
316 777 m 1,95,-1
 202 704 l 1,96,97
 202 652 202 652 203 604 c 1,98,-1
 282 659 l 1,99,-1
 316 687 l 1,100,101
 316 697 316 697 316 708 c 0,102,103
 316 743 316 743 316 777 c 1,95,-1
329 35 m 1,104,-1
 313 22 l 1,105,106
 323 2 323 2 334 -15 c 1,107,108
 332 6 332 6 329 35 c 1,104,-1
325 113 m 1,109,-1
 287 85 l 1,110,111
 298 55 298 55 310 29 c 1,112,-1
 329 43 l 1,113,114
 327 74 327 74 325 113 c 1,109,-1
323 172 m 1,115,-1
 300 157 l 1,116,-1
 270 136 l 1,117,118
 277 114 277 114 284 93 c 1,119,-1
 325 122 l 1,120,121
 324 146 324 146 323 172 c 1,115,-1
321 225 m 1,122,-1
 258 178 l 1,123,124
 263 160 263 160 268 144 c 1,125,126
 285 156 285 156 296 163 c 2,127,-1
 322 181 l 1,128,129
 322 202 322 202 321 225 c 1,122,-1
320 279 m 1,130,-1
 247 224 l 1,131,132
 252 204 252 204 256 185 c 1,133,-1
 321 233 l 1,134,135
 321 255 321 255 320 279 c 1,130,-1
319 331 m 1,136,-1
 237 270 l 1,137,138
 241 250 241 250 245 232 c 1,139,-1
 320 288 l 1,140,141
 319 309 319 309 319 331 c 1,136,-1
318 376 m 1,142,-1
 271 343 l 1,143,-1
 229 316 l 1,144,145
 230 310 230 310 231 304 c 0,146,147
 233 291 233 291 236 279 c 1,148,-1
 319 340 l 1,149,150
 318 358 318 358 318 376 c 1,142,-1
317 447 m 1,151,-1
 221 375 l 1,152,153
 224 349 224 349 228 323 c 1,154,-1
 267 349 l 1,155,-1
 318 385 l 1,156,157
 317 415 317 415 317 447 c 1,151,-1
317 516 m 1,158,-1
 213 444 l 1,159,160
 216 413 216 413 220 383 c 1,161,-1
 317 456 l 1,162,163
 317 485 317 485 317 516 c 1,158,-1
316 587 m 1,164,165
 266 552 266 552 208 512 c 1,166,167
 210 481 210 481 212 453 c 1,168,-1
 317 525 l 1,169,170
 316 555 316 555 316 587 c 1,164,165
316 678 m 1,171,-1
 286 653 l 1,172,-1
 204 595 l 1,173,174
 205 556 205 556 207 520 c 1,175,-1
 316 596 l 1,176,177
 316 636 316 636 316 678 c 1,171,-1
EndSplineSet
Validated: 2049
Layer: 3
SplineSet
108 708 m 132,-1,0
 108 951 108 951 139 1130.5 c 132,-1,1
 170 1310 170 1310 224.5 1427 c 132,-1,2
 279 1544 279 1544 379 1600 c 4,3,4
 476 1654 476 1654 570 1656 c 5,5,-1
 570 1602 l 5,6,7
 546 1601 546 1601 508 1590 c 4,8,9
 463 1577 463 1577 450 1541 c 4,10,11
 426 1473 426 1473 418 1286 c 4,12,13
 410 1090 410 1090 410 708 c 4,14,15
 410 329 410 329 418 131 c 4,16,17
 422 31 422 31 430 -29 c 132,-1,18
 438 -89 438 -89 450 -124 c 4,19,20
 463 -161 463 -161 507 -173 c 4,21,22
 545 -183 545 -183 570 -184 c 5,23,-1
 570 -242 l 5,24,25
 476 -240 476 -240 377 -183.5 c 132,-1,26
 278 -127 278 -127 224 -10 c 4,27,28
 170 108 170 108 139 286.5 c 132,-1,29
 108 465 108 465 108 708 c 132,-1,0
EndSplineSet
EndChar

StartChar: parenright
Encoding: 41 41 9
Width: 582
GlyphClass: 2
Flags: W
LayerCount: 4
Back
SplineSet
474 708 m 260,0,1
 474 464 474 464 443 285 c 132,-1,2
 412 106 412 106 357 -13 c 132,-1,3
 302 -132 302 -132 200 -190 c 132,-1,4
 98 -248 98 -248 0 -248 c 5,5,6
 0 -248 0 -248 0 -178 c 5,7,8
 26 -178 26 -178 67 -167 c 132,-1,9
 108 -156 108 -156 120 -122 c 132,-1,10
 132 -88 132 -88 140 -28 c 132,-1,11
 148 32 148 32 152 131 c 132,-1,12
 156 230 156 230 158 371 c 132,-1,13
 160 512 160 512 160 708 c 260,14,15
 160 906 160 906 158 1047 c 132,-1,16
 156 1188 156 1188 152 1286 c 132,-1,17
 148 1384 148 1384 140 1445 c 132,-1,18
 132 1506 132 1506 120 1539 c 132,-1,19
 108 1572 108 1572 66 1584 c 132,-1,20
 24 1596 24 1596 0 1596 c 5,21,22
 0 1596 0 1596 0 1662 c 5,23,24
 98 1662 98 1662 200 1605 c 132,-1,25
 302 1548 302 1548 357 1430 c 132,-1,26
 412 1312 412 1312 443 1132 c 132,-1,27
 474 952 474 952 474 708 c 260,0,1
EndSplineSet
Fore
SplineSet
443 1132 m 128,-1,1
 474 952 474 952 474 708 c 128,-1,2
 474 464 474 464 443 285 c 128,-1,3
 412 106 412 106 357 -13 c 128,-1,4
 302 -132 302 -132 200 -190 c 128,-1,5
 98 -248 98 -248 0 -248 c 1,6,-1
 0 -178 l 1,7,8
 26 -178 26 -178 67 -167 c 128,-1,9
 108 -156 108 -156 120 -122 c 128,-1,10
 132 -88 132 -88 140 -28 c 128,-1,11
 148 32 148 32 152 131 c 128,-1,12
 156 230 156 230 158 371 c 0,13,14
 160 499 160 499 160 671 c 0,15,16
 160 919 160 919 158 1047 c 0,17,18
 156 1188 156 1188 152 1286 c 128,-1,19
 148 1384 148 1384 140 1445 c 128,-1,20
 132 1506 132 1506 120 1539 c 128,-1,21
 108 1572 108 1572 66 1584 c 128,-1,22
 24 1596 24 1596 0 1596 c 1,23,-1
 0 1662 l 1,24,25
 98 1662 98 1662 200 1605 c 128,-1,26
 302 1548 302 1548 357 1430 c 128,-1,0
 412 1312 412 1312 443 1132 c 128,-1,1
346 308 m 1,27,28
 350 332 350 332 353 358 c 1,29,-1
 256 285 l 1,30,31
 256 262 256 262 255 240 c 1,32,-1
 346 308 l 1,27,28
355 368 m 1,33,34
 357 386 357 386 359 406 c 1,35,-1
 271 343 l 1,36,-1
 257 334 l 1,37,38
 257 314 257 314 257 294 c 1,39,-1
 355 368 l 1,33,34
366 483 m 1,40,-1
 258 403 l 1,41,42
 258 372 258 372 258 343 c 1,43,-1
 267 349 l 1,44,-1
 360 415 l 1,45,46
 363 448 363 448 366 483 c 1,40,-1
371 553 m 1,47,-1
 259 476 l 1,48,49
 259 443 259 443 258 412 c 1,50,-1
 367 492 l 1,51,52
 370 522 370 522 371 553 c 1,47,-1
373 627 m 1,53,54
 322 591 322 591 260 548 c 1,55,56
 260 516 260 516 259 485 c 1,57,-1
 371 562 l 1,58,59
 372 594 372 594 373 627 c 1,53,54
373 636 m 1,60,61
 374 671 374 671 374 708 c 0,62,63
 374 717 374 717 374 726 c 1,64,-1
 286 653 l 1,65,-1
 260 635 l 1,66,67
 260 595 260 595 260 557 c 1,68,-1
 373 636 l 1,60,61
290 88 m 1,69,-1
 248 57 l 1,70,71
 245 17 245 17 242 -15 c 1,72,73
 255 5 255 5 266 29 c 0,74,75
 279 57 279 57 290 88 c 1,69,-1
295 100 m 1,76,77
 306 132 306 132 315 167 c 1,78,-1
 300 157 l 1,79,-1
 252 123 l 1,80,81
 251 93 251 93 249 66 c 1,82,-1
 295 100 l 1,76,77
331 232 m 1,83,-1
 254 174 l 1,84,85
 253 152 253 152 252 132 c 1,86,87
 279 151 279 151 296 163 c 2,88,-1
 318 178 l 1,89,90
 325 204 325 204 331 232 c 1,83,-1
333 243 m 1,91,92
 339 270 339 270 344 298 c 1,93,-1
 255 231 l 1,94,95
 254 206 254 206 254 183 c 1,96,-1
 333 243 l 1,91,92
260 644 m 1,97,-1
 282 659 l 1,98,-1
 374 736 l 1,99,100
 374 777 374 777 372 816 c 1,101,-1
 356 803 l 1,102,-1
 260 741 l 1,103,104
 260 725 260 725 260 708 c 0,105,106
 260 676 260 676 260 644 c 1,97,-1
260 799 m 1,107,108
 260 775 260 775 260 750 c 1,109,-1
 352 809 l 2,110,111
 362 817 362 817 372 824 c 1,112,113
 371 858 371 858 369 891 c 1,114,-1
 356 876 l 2,115,116
 329 845 329 845 326 843 c 2,117,-1
 260 799 l 1,107,108
259 895 m 1,118,119
 259 853 259 853 260 808 c 1,120,121
 291 829 291 829 321 849 c 1,122,-1
 368 903 l 1,123,124
 366 941 366 941 363 977 c 1,125,-1
 259 895 l 1,118,119
259 973 m 1,126,127
 259 939 259 939 259 904 c 1,128,-1
 362 986 l 1,129,130
 359 1019 359 1019 354 1051 c 1,131,-1
 291 996 l 1,132,-1
 259 973 l 1,126,127
257 1085 m 1,133,134
 258 1037 258 1037 259 982 c 1,135,136
 273 992 273 992 287 1002 c 2,137,-1
 353 1060 l 1,138,139
 349 1087 349 1087 345 1113 c 0,140,141
 342 1132 342 1132 338 1149 c 1,142,-1
 257 1085 l 1,133,134
256 1154 m 1,143,144
 257 1125 257 1125 257 1094 c 1,145,-1
 337 1157 l 1,146,147
 333 1180 333 1180 327 1201 c 1,148,-1
 256 1154 l 1,143,144
253 1265 m 1,149,150
 255 1218 255 1218 256 1162 c 1,151,152
 291 1185 291 1185 326 1208 c 1,153,154
 314 1259 314 1259 299 1303 c 1,155,-1
 253 1265 l 1,149,150
251 1313 m 1,156,157
 252 1294 252 1294 252 1274 c 1,158,-1
 297 1310 l 1,159,160
 292 1326 292 1326 286 1341 c 1,161,-1
 251 1313 l 1,156,157
245 1400 m 1,162,163
 248 1367 248 1367 250 1323 c 1,164,-1
 283 1349 l 1,165,166
 275 1369 275 1369 266 1388 c 0,167,168
 261 1399 261 1399 255 1410 c 1,169,-1
 245 1400 l 1,162,163
244 1410 m 1,170,-1
 251 1416 l 1,171,172
 247 1424 247 1424 242 1431 c 1,173,174
 243 1421 243 1421 244 1410 c 1,170,-1
EndSplineSet
Validated: 2049
Layer: 3
SplineSet
6 1602 m 4,0,-1
 6 1656 l 5,1,2
 100 1654 100 1654 198.5 1599 c 132,-1,3
 297 1544 297 1544 352 1427 c 4,4,5
 406 1310 406 1310 437 1131 c 4,6,7
 468 951 468 951 468 708 c 132,-1,8
 468 465 468 465 437 286 c 4,9,10
 406 108 406 108 352 -10 c 4,11,12
 297 -128 297 -128 197 -185 c 4,13,14
 100 -240 100 -240 6 -242 c 5,15,-1
 6 -184 l 5,16,17
 31 -183 31 -183 69 -173 c 4,18,19
 113 -161 113 -161 126 -124 c 4,20,21
 138 -89 138 -89 146 -29 c 132,-1,22
 154 31 154 31 158 131 c 4,23,24
 166 329 166 329 166 708 c 4,25,26
 166 1090 166 1090 158 1286 c 4,27,28
 150 1473 150 1473 126 1541 c 4,29,30
 112 1580 112 1580 68 1590 c 4,31,32
 12 1602 12 1602 6 1602 c 4,0,-1
EndSplineSet
EndChar

StartChar: asterisk
Encoding: 42 42 10
Width: 728
VWidth: 1778
GlyphClass: 2
Flags: W
LayerCount: 4
Back
SplineSet
362 614 m 260,0,1
 328 614 328 614 307 635 c 132,-1,2
 286 656 286 656 286 682 c 260,3,4
 286 710 286 710 297 743 c 132,-1,5
 308 776 308 776 322 814 c 4,6,7
 328 830 328 830 335 847 c 132,-1,8
 342 864 342 864 344 882 c 5,9,10
 332 870 332 870 320 857 c 132,-1,11
 308 844 308 844 296 828 c 4,12,13
 286 814 286 814 271 795 c 132,-1,14
 256 776 256 776 240 761 c 132,-1,15
 224 746 224 746 204 734 c 132,-1,16
 184 722 184 722 166 722 c 4,17,18
 150 722 150 722 136 730 c 132,-1,19
 122 738 122 738 112 749 c 132,-1,20
 102 760 102 760 96 774 c 132,-1,21
 90 788 90 788 90 802 c 4,22,23
 90 830 90 830 108 847 c 132,-1,24
 126 864 126 864 153 874 c 132,-1,25
 180 884 180 884 209 888 c 132,-1,26
 238 892 238 892 258 894 c 4,27,28
 276 896 276 896 294 900 c 132,-1,29
 312 904 312 904 330 910 c 5,30,31
 298 920 298 920 258 926 c 4,32,33
 236 928 236 928 206 933 c 132,-1,34
 176 938 176 938 151 948 c 132,-1,35
 126 958 126 958 108 974 c 132,-1,37
 90 990 90 990 90 1018 c 4,38,39
 90 1032 90 1032 96 1047 c 132,-1,40
 102 1062 102 1062 113 1073 c 132,-1,41
 124 1084 124 1084 138 1091 c 132,-1,42
 152 1098 152 1098 166 1098 c 4,43,44
 182 1098 182 1098 202 1086 c 132,-1,45
 222 1074 222 1074 239 1057 c 132,-1,46
 256 1040 256 1040 271 1023 c 132,-1,47
 286 1006 286 1006 296 994 c 4,48,49
 308 980 308 980 320 965 c 132,-1,50
 332 950 332 950 344 938 c 5,51,52
 340 956 340 956 335 973 c 132,-1,53
 330 990 330 990 322 1008 c 4,54,55
 308 1044 308 1044 297 1077 c 132,-1,56
 286 1110 286 1110 286 1136 c 260,57,58
 286 1164 286 1164 307 1185 c 132,-1,59
 328 1206 328 1206 362 1206 c 260,60,61
 396 1206 396 1206 416 1186 c 132,-1,62
 436 1166 436 1166 436 1136 c 4,63,64
 436 1108 436 1108 426 1075 c 132,-1,65
 416 1042 416 1042 400 1008 c 4,66,67
 388 976 388 976 378 938 c 5,68,69
 390 950 390 950 404 963 c 132,-1,70
 418 976 418 976 428 992 c 4,71,72
 442 1010 442 1010 457 1029 c 132,-1,73
 472 1048 472 1048 488 1063 c 132,-1,74
 504 1078 504 1078 521 1088 c 132,-1,75
 538 1098 538 1098 558 1098 c 4,76,77
 574 1098 574 1098 587 1091 c 132,-1,78
 600 1084 600 1084 611 1072 c 132,-1,79
 622 1060 622 1060 627 1046 c 132,-1,80
 632 1032 632 1032 632 1018 c 4,81,82
 632 992 632 992 614 975 c 132,-1,83
 596 958 596 958 569 948 c 132,-1,84
 542 938 542 938 514 933 c 132,-1,85
 486 928 486 928 466 926 c 4,86,87
 448 924 448 924 430 920 c 132,-1,88
 412 916 412 916 396 910 c 5,89,90
 414 906 414 906 431 902 c 132,-1,91
 448 898 448 898 466 894 c 4,92,93
 488 890 488 890 517 885 c 132,-1,94
 546 880 546 880 572 870 c 132,-1,95
 598 860 598 860 616 844 c 132,-1,97
 634 828 634 828 632 802 c 4,98,99
 632 788 632 788 626 773 c 132,-1,100
 620 758 620 758 610 747 c 132,-1,101
 600 736 600 736 587 729 c 132,-1,102
 574 722 574 722 558 722 c 4,103,104
 538 722 538 722 519 734 c 132,-1,105
 500 746 500 746 482 763 c 132,-1,106
 464 780 464 780 450 798 c 132,-1,107
 436 816 436 816 428 830 c 4,108,109
 418 844 418 844 405 857 c 132,-1,110
 392 870 392 870 378 882 c 5,111,112
 386 846 386 846 400 814 c 4,113,114
 414 778 414 778 425 745 c 132,-1,115
 436 712 436 712 436 682 c 4,116,117
 436 654 436 654 416 634 c 132,-1,118
 396 614 396 614 362 614 c 260,0,1
EndSplineSet
Fore
SplineSet
416 634 m 128,-1,1
 396 614 396 614 362 614 c 128,-1,2
 328 614 328 614 307 635 c 128,-1,3
 286 656 286 656 286 683 c 0,4,5
 286 728 286 728 314 796 c 128,-1,6
 342 864 342 864 344 882 c 1,7,8
 333 871 333 871 323 860 c 0,9,10
 309 845 309 845 300 833 c 0,11,12
 286 814 286 814 271 795 c 0,13,14
 260 781 260 781 237 758 c 0,15,16
 197 722 197 722 174 722 c 0,17,18
 150 722 150 722 136 730 c 128,-1,19
 122 738 122 738 112 749 c 0,20,21
 90 774 90 774 90 802 c 128,-1,22
 90 830 90 830 108 847 c 128,-1,23
 126 864 126 864 153 874 c 0,24,25
 188 887 188 887 232 892 c 0,26,27
 293 898 293 898 330 910 c 1,28,29
 315 915 315 915 297 919 c 0,30,31
 282 922 282 922 267 924 c 0,32,33
 236 928 236 928 206 933 c 128,-1,34
 176 938 176 938 151 948 c 0,35,36
 128 957 128 957 113 969 c 0,37,38
 90 984 90 984 90 1018 c 0,39,40
 90 1073 90 1073 138 1091 c 0,41,42
 156 1098 156 1098 167 1098 c 1,43,44
 182 1098 182 1098 202 1086 c 128,-1,45
 222 1074 222 1074 239 1057 c 0,46,47
 276 1020 276 1020 304 985 c 128,-1,48
 332 950 332 950 344 938 c 1,49,50
 340 956 340 956 335 973 c 128,-1,51
 330 990 330 990 322 1008 c 0,52,53
 314 1028 314 1028 307 1047 c 2,54,55
 307 1047 307 1047 297 1077 c 0,56,57
 291 1094 291 1094 289 1109 c 0,58,59
 286 1122 286 1122 286 1134 c 0,60,61
 286 1164 286 1164 307 1185 c 128,-1,62
 328 1206 328 1206 362 1206 c 128,-1,63
 396 1206 396 1206 416 1186 c 128,-1,64
 436 1166 436 1166 436 1136 c 0,65,66
 436 1108 436 1108 426 1075 c 0,67,68
 423 1063 423 1063 411 1032 c 0,69,70
 406 1020 406 1020 400 1008 c 0,71,72
 388 976 388 976 378 938 c 1,73,74
 390 950 390 950 404 963 c 128,-1,75
 418 976 418 976 428 992 c 0,76,77
 442 1010 442 1010 457 1029 c 128,-1,78
 472 1048 472 1048 488 1063 c 0,79,80
 527 1098 527 1098 559 1098 c 0,81,82
 574 1098 574 1098 587 1091 c 0,83,84
 598 1085 598 1085 614 1069 c 0,85,86
 632 1046 632 1046 632 1018 c 0,87,88
 632 992 632 992 614 975 c 128,-1,89
 596 958 596 958 569 948 c 0,90,91
 526 932 526 932 487 928 c 0,92,93
 428 922 428 922 396 910 c 1,94,95
 414 906 414 906 431 902 c 128,-1,96
 448 898 448 898 468 894 c 128,-1,97
 488 890 488 890 517 885 c 128,-1,98
 546 880 546 880 572 870 c 0,99,100
 600 860 600 860 616 844 c 0,101,102
 634 828 634 828 632 802 c 0,103,104
 632 753 632 753 587 729 c 0,105,106
 574 722 574 722 556 722 c 128,-1,107
 538 722 538 722 519 734 c 128,-1,108
 500 746 500 746 482 763 c 0,109,110
 448 795 448 795 433 820 c 0,111,112
 413 852 413 852 378 882 c 1,113,114
 386 846 386 846 400 814 c 0,115,116
 409 790 409 790 417 767 c 2,117,118
 417 767 417 767 425 745 c 0,119,120
 430 730 430 730 433 715 c 128,-1,121
 436 700 436 700 436 682 c 0,122,0
 436 654 436 654 416 634 c 128,-1,1
EndSplineSet
Validated: 1
Layer: 3
SplineSet
362 620 m 132,-1,0
 330 620 330 620 311 639 c 132,-1,1
 292 658 292 658 292 683.5 c 132,-1,2
 292 709 292 709 303 741 c 4,3,4
 323 802 323 802 341 845 c 4,5,6
 348 862 348 862 350 881 c 6,7,-1
 352 898 l 5,8,-1
 340 886 l 6,9,10
 309 856 309 856 291 832 c 4,11,12
 264 793 264 793 239 768 c 4,13,14
 223 752 223 752 201 739 c 4,15,16
 182 728 182 728 167 728 c 132,-1,17
 152 728 152 728 139 735 c 4,18,19
 113 750 113 750 102 776 c 4,20,21
 96 789 96 789 96 802 c 4,22,23
 96 827 96 827 111.5 842.5 c 132,-1,24
 127 858 127 858 155 868 c 4,25,26
 181 878 181 878 210 882 c 132,-1,27
 239 886 239 886 258 888 c 132,-1,28
 277 890 277 890 295.5 894 c 132,-1,29
 314 898 314 898 350 910 c 5,30,-1
 332 916 l 6,31,32
 299 926 299 926 259 932 c 6,33,34
 237 934 237 934 207 939 c 4,35,36
 145 949 145 949 113 978 c 4,37,38
 96 993 96 993 96 1018 c 4,39,40
 96 1031 96 1031 101.5 1045 c 132,-1,41
 107 1059 107 1059 117.5 1069 c 132,-1,42
 128 1079 128 1079 140.5 1085.5 c 132,-1,43
 153 1092 153 1092 166.5 1092 c 132,-1,44
 180 1092 180 1092 199.5 1080.5 c 132,-1,45
 219 1069 219 1069 235 1053 c 4,46,47
 259 1028 259 1028 292 989 c 4,48,49
 303 976 303 976 315.5 961 c 132,-1,50
 328 946 328 946 340 934 c 6,51,-1
 354 919 l 5,52,-1
 350 939 l 6,53,54
 341 981 341 981 328 1010 c 4,55,56
 327 1010 327 1010 303 1078 c 4,57,58
 292 1110 292 1110 292 1136 c 132,-1,59
 292 1162 292 1162 311 1181 c 132,-1,60
 330 1200 330 1200 362 1200 c 132,-1,61
 394 1200 394 1200 412 1182 c 132,-1,62
 430 1164 430 1164 430 1136 c 4,63,64
 430 1086 430 1086 395 1011 c 5,65,66
 389 997 389 997 372 940 c 5,67,-1
 367 918 l 5,68,69
 394 946 394 946 408.5 959 c 132,-1,70
 423 972 423 972 433 989 c 4,71,72
 447 1006 447 1006 462 1025 c 4,73,74
 493 1065 493 1065 524 1083 c 4,75,76
 540 1092 540 1092 558 1092 c 4,77,78
 583 1092 583 1092 604 1071 c 4,79,80
 626 1049 626 1049 626 1018 c 4,81,82
 626 996 626 996 611 981 c 4,83,84
 573 943 573 943 465 932 c 4,85,86
 426 928 426 928 394 916 c 6,87,-1
 375 909 l 5,88,89
 413 900 413 900 430 896 c 132,-1,90
 447 892 447 892 459.5 889.5 c 132,-1,91
 472 887 472 887 516 879 c 4,92,93
 580 869 580 869 612 840 c 4,94,95
 626 827 626 827 626 807 c 4,96,97
 626 789 626 789 620 775 c 4,98,99
 610 748 610 748 584 734 c 4,100,101
 572 728 572 728 556 728 c 132,-1,102
 540 728 540 728 522 739 c 132,-1,103
 504 750 504 750 486 767 c 4,104,105
 452 799 452 799 433 833 c 4,106,107
 425 845 425 845 409 861 c 4,108,109
 396 874 396 874 368 898 c 5,110,-1
 372 881 l 6,111,112
 380 844 380 844 394 812 c 4,113,114
 395 812 395 812 419 744 c 4,115,116
 430 712 430 712 430 684 c 132,-1,117
 430 656 430 656 412 638 c 132,-1,118
 394 620 394 620 362 620 c 132,-1,0
EndSplineSet
EndChar

StartChar: plus
Encoding: 43 43 11
Width: 888
GlyphClass: 2
Flags: W
LayerCount: 4
Back
SplineSet
382 428 m 5,0,-1
 126 428 l 5,1,-1
 126 552 l 5,2,3
 126 552 126 552 382 552 c 5,4,5
 382 552 382 552 382 808 c 5,6,-1
 506 808 l 5,7,-1
 506 552 l 5,8,-1
 762 552 l 5,9,-1
 762 428 l 5,10,-1
 506 428 l 5,11,12
 506 428 506 428 506 174 c 5,13,-1
 382 174 l 5,14,-1
 382 428 l 5,0,-1
EndSplineSet
Fore
SplineSet
382 174 m 1,0,-1
 382 428 l 1,1,-1
 126 428 l 1,2,-1
 126 552 l 1,3,-1
 382 552 l 1,4,-1
 382 808 l 1,5,-1
 506 808 l 1,6,-1
 506 552 l 1,7,-1
 762 552 l 1,8,-1
 762 428 l 1,9,-1
 506 428 l 1,10,-1
 506 174 l 1,11,-1
 382 174 l 1,0,-1
EndSplineSet
Validated: 1
Layer: 3
SplineSet
132 434 m 5,0,-1
 132 546 l 5,1,-1
 388 546 l 5,2,-1
 388 802 l 5,3,-1
 500 802 l 5,4,-1
 500 546 l 5,5,-1
 756 546 l 5,6,-1
 756 434 l 5,7,-1
 500 434 l 5,8,-1
 500 180 l 5,9,-1
 388 180 l 5,10,-1
 388 434 l 5,11,-1
 132 434 l 5,0,-1
EndSplineSet
EndChar

StartChar: comma
Encoding: 44 44 12
Width: 618
VWidth: 1454
GlyphClass: 2
Flags: W
LayerCount: 4
Back
SplineSet
118 160 m 4,0,1
 118 196 118 196 134 227 c 132,-1,2
 150 258 150 258 174 282 c 132,-1,3
 198 306 198 306 231 319 c 132,-1,4
 264 332 264 332 304 332 c 4,5,6
 350 332 350 332 386 318 c 132,-1,7
 422 304 422 304 449 277 c 132,-1,8
 476 250 476 250 491 210 c 132,-1,9
 506 170 506 170 506 118 c 4,10,11
 506 34 506 34 479 -30 c 132,-1,12
 452 -94 452 -94 407 -142 c 132,-1,13
 362 -190 362 -190 306 -222 c 132,-1,14
 250 -254 250 -254 188 -268 c 5,15,-1
 168 -242 l 5,16,17
 224 -222 224 -222 260 -192 c 132,-1,18
 296 -162 296 -162 319 -130 c 132,-1,19
 342 -98 342 -98 351 -71 c 132,-1,20
 360 -44 360 -44 360 -28 c 4,21,22
 360 -10 360 -10 342 -3 c 132,-1,23
 324 4 324 4 296 8 c 4,24,25
 270 12 270 12 238 19 c 132,-1,26
 206 26 206 26 180 41 c 132,-1,27
 154 56 154 56 136 84 c 132,-1,28
 118 112 118 112 118 160 c 4,0,1
EndSplineSet
Fore
SplineSet
134 227 m 128,-1,1
 150 258 150 258 174 282 c 0,2,3
 224 332 224 332 297 332 c 0,4,5
 350 332 350 332 386 318 c 128,-1,6
 422 304 422 304 449 277 c 0,7,8
 506 220 506 220 506 122 c 0,9,10
 506 34 506 34 479 -30 c 128,-1,11
 452 -94 452 -94 407 -142 c 0,12,13
 405 -144 405 -144 403 -146 c 0,14,15
 316 -236 316 -236 196 -266 c 0,16,17
 192 -267 192 -267 188 -268 c 2,18,-1
 168 -242 l 1,19,20
 222 -223 222 -223 264 -189 c 0,21,22
 298 -160 298 -160 319 -130 c 0,23,24
 342 -98 342 -98 351 -71 c 0,25,26
 358 -49 358 -49 360 -34 c 0,27,28
 358 -9 358 -9 342 -3 c 0,29,30
 324 4 324 4 296 8 c 0,31,32
 270 12 270 12 238 19 c 128,-1,33
 206 26 206 26 180 41 c 128,-1,34
 154 56 154 56 136 84 c 128,-1,35
 118 112 118 112 118 154 c 128,-1,0
 118 196 118 196 134 227 c 128,-1,1
405 91 m 1,36,-1
 394 83 l 1,37,38
 399 80 399 80 404 77 c 1,39,40
 405 84 405 84 405 91 c 1,36,-1
406 100 m 1,41,42
 406 148 406 148 400 169 c 1,43,-1
 315 106 l 1,44,45
 315 106 315 106 387 87 c 9,46,-1
 406 100 l 1,41,42
305 108 m 9,47,-1
 397 176 l 1,48,49
 389 195 389 195 378 207 c 0,50,51
 377 208 377 208 376 208 c 2,52,-1
 300 157 l 1,53,-1
 248 120 l 1,54,55
 288 108 288 108 305 108 c 9,47,-1
239 123 m 1,56,57
 275 149 275 149 296 163 c 2,58,-1
 370 213 l 1,59,60
 348 228 348 228 329 230 c 1,61,-1
 218 148 l 1,62,63
 221 130 221 130 239 123 c 1,56,57
218 157 m 1,64,-1
 318 232 l 1,65,66
 283 232 283 232 269 226 c 0,67,68
 241 215 241 215 223 181 c 0,69,70
 218 172 218 172 218 157 c 1,64,-1
EndSplineSet
Validated: 2049
Layer: 3
SplineSet
124 160 m 4,0,1
 124 195 124 195 139.5 224.5 c 132,-1,2
 155 254 155 254 178 277.5 c 132,-1,3
 201 301 201 301 233 313.5 c 132,-1,4
 265 326 265 326 304 326 c 4,5,6
 392 326 392 326 445 273 c 4,7,8
 471 247 471 247 485.5 208 c 132,-1,9
 500 169 500 169 500 118 c 4,10,11
 500 35 500 35 473.5 -28 c 132,-1,12
 447 -91 447 -91 402.5 -138 c 132,-1,13
 358 -185 358 -185 301 -218 c 4,14,15
 249 -247 249 -247 190 -261 c 5,16,-1
 178 -245 l 5,17,18
 230 -225 230 -225 265 -195.5 c 132,-1,19
 300 -166 300 -166 323.5 -133.5 c 132,-1,20
 347 -101 347 -101 356.5 -73 c 132,-1,21
 366 -45 366 -45 366 -30 c 132,-1,22
 366 -15 366 -15 357 -6 c 4,23,24
 344 7 344 7 298 14 c 4,25,26
 271 18 271 18 239.5 25 c 132,-1,27
 208 32 208 32 183 46 c 132,-1,28
 158 60 158 60 141 87 c 132,-1,29
 124 114 124 114 124 160 c 4,0,1
EndSplineSet
EndChar

StartChar: hyphen
Encoding: 45 45 13
Width: 888
GlyphClass: 2
Flags: W
LayerCount: 4
Back
SplineSet
126 550 m 5,0,-1
 762 550 l 5,1,-1
 762 426 l 5,2,-1
 126 426 l 5,3,-1
 126 550 l 5,0,-1
EndSplineSet
Fore
SplineSet
126 426 m 1,0,-1
 126 550 l 1,1,-1
 762 550 l 1,2,-1
 762 426 l 1,3,-1
 126 426 l 1,0,-1
EndSplineSet
Validated: 1
Layer: 3
SplineSet
756 432 m 5,0,-1
 132 432 l 5,1,-1
 132 544 l 5,2,-1
 756 544 l 5,3,-1
 756 432 l 5,0,-1
EndSplineSet
EndChar

StartChar: period
Encoding: 46 46 14
Width: 624
VWidth: 1500
GlyphClass: 2
Flags: W
LayerCount: 4
Back
SplineSet
124 152 m 260,0,1
 124 190 124 190 140 225 c 132,-1,2
 156 260 156 260 182 286 c 132,-1,3
 208 312 208 312 242 326 c 132,-1,4
 276 340 276 340 318 340 c 4,5,6
 356 340 356 340 391 326 c 132,-1,7
 426 312 426 312 452 286 c 132,-1,8
 478 260 478 260 493 225 c 132,-1,9
 508 190 508 190 508 152 c 260,10,11
 508 114 508 114 493 79 c 132,-1,12
 478 44 478 44 452 18 c 132,-1,13
 426 -8 426 -8 391 -22 c 132,-1,14
 356 -36 356 -36 318 -36 c 4,15,16
 278 -36 278 -36 243 -22 c 132,-1,17
 208 -8 208 -8 182 18 c 132,-1,18
 156 44 156 44 140 79 c 132,-1,19
 124 114 124 114 124 152 c 260,0,1
EndSplineSet
Fore
SplineSet
143 72 m 0,0,1
 141 76 141 76 140 79 c 0,2,3
 124 114 124 114 124 152 c 128,-1,4
 124 190 124 190 140 225 c 128,-1,5
 156 260 156 260 182 286 c 0,6,7
 218 322 218 322 265 334 c 0,8,9
 290 340 290 340 318 340 c 0,10,11
 398 340 398 340 452 286 c 0,12,13
 508 230 508 230 508 152 c 128,-1,14
 508 74 508 74 452 18 c 0,15,16
 398 -36 398 -36 318 -36 c 0,17,18
 197 -36 197 -36 143 72 c 0,0,1
225 162 m 1,19,-1
 329 239 l 1,20,21
 323 240 323 240 316 240 c 0,22,23
 277 240 277 240 253 215 c 0,24,25
 240 202 240 202 232 185 c 0,26,27
 227 173 227 173 225 162 c 1,19,-1
339 238 m 1,28,-1
 223 150 l 1,29,30
 221 132 221 132 231 117 c 0,31,32
 231 117 231 117 296 163 c 1,33,-1
 378 218 l 1,34,35
 367 227 367 227 354 233 c 0,36,37
 347 236 347 236 339 238 c 1,28,-1
384 213 m 1,38,-1
 300 157 l 1,39,-1
 235 111 l 1,40,41
 247 90 247 90 266 78 c 1,42,-1
 403 180 l 2,43,44
 402 183 402 183 401 186 c 0,45,46
 395 202 395 202 384 213 c 1,38,-1
405 174 m 1,47,-1
 271 75 l 1,48,49
 275 73 275 73 280 71 c 0,50,51
 297 64 297 64 317 64 c 128,-1,52
 337 64 337 64 353 71 c 0,53,54
 386 84 386 84 401 118 c 0,55,56
 408 134 408 134 408 152 c 0,57,58
 408 163 408 163 405 174 c 1,47,-1
EndSplineSet
Validated: 1
Layer: 3
SplineSet
130 152 m 132,-1,0
 130 189 130 189 145.5 223 c 132,-1,1
 161 257 161 257 186 282 c 132,-1,2
 211 307 211 307 244 320.5 c 132,-1,3
 277 334 277 334 316 334 c 132,-1,4
 355 334 355 334 389 320.5 c 132,-1,5
 423 307 423 307 448 282 c 132,-1,6
 473 257 473 257 487.5 223 c 132,-1,7
 502 189 502 189 502 152 c 132,-1,8
 502 115 502 115 487.5 81 c 132,-1,9
 473 47 473 47 448 22 c 132,-1,10
 423 -3 423 -3 389 -16.5 c 132,-1,11
 355 -30 355 -30 317 -30 c 132,-1,12
 279 -30 279 -30 245 -16.5 c 132,-1,13
 211 -3 211 -3 186 22 c 132,-1,14
 161 47 161 47 145.5 81 c 132,-1,15
 130 115 130 115 130 152 c 132,-1,0
EndSplineSet
EndChar

StartChar: slash
Encoding: 47 47 15
Width: 804
GlyphClass: 2
Flags: W
LayerCount: 4
Back
SplineSet
832 1536 m 5,0,-1
 932 1484 l 5,1,-1
 -22 -484 l 5,2,-1
 -126 -432 l 5,3,-1
 832 1536 l 5,0,-1
EndSplineSet
Fore
SplineSet
-126 -432 m 1,0,-1
 832 1536 l 1,1,-1
 932 1484 l 1,2,-1
 -22 -484 l 1,3,-1
 -126 -432 l 1,0,-1
EndSplineSet
Validated: 1
Layer: 3
SplineSet
-25 -476 m 5,0,-1
 -118 -429 l 5,1,-1
 835 1528 l 5,2,-1
 924 1481 l 5,3,-1
 -25 -476 l 5,0,-1
EndSplineSet
EndChar

StartChar: zero
Encoding: 48 48 16
Width: 1308
GlyphClass: 2
Flags: W
LayerCount: 4
Back
SplineSet
594 711 m 132,-1,1
 594 758 594 758 611 791 c 132,-1,2
 628 824 628 824 654 824 c 132,-1,4
 680 824 680 824 697 791 c 132,-1,5
 714 758 714 758 714 711 c 132,-1,6
 714 664 714 664 697 631 c 132,-1,7
 680 598 680 598 654 598 c 132,-1,9
 628 598 628 598 611 631 c 132,-1,0
 594 664 594 664 594 711 c 132,-1,1
204 708 m 4,10,11
 204 806 204 806 213 901 c 132,-1,12
 222 996 222 996 243 1079 c 132,-1,13
 264 1162 264 1162 298 1231 c 132,-1,14
 332 1300 332 1300 381 1350 c 132,-1,15
 430 1400 430 1400 498 1427 c 132,-1,16
 566 1454 566 1454 656 1454 c 4,17,18
 744 1454 744 1454 811 1427 c 132,-1,19
 878 1400 878 1400 928 1350 c 132,-1,20
 978 1300 978 1300 1011 1231 c 132,-1,21
 1044 1162 1044 1162 1065 1079 c 132,-1,22
 1086 996 1086 996 1095 902 c 132,-1,23
 1104 808 1104 808 1104 708 c 260,24,25
 1104 610 1104 610 1095 516 c 132,-1,26
 1086 422 1086 422 1065 339 c 132,-1,27
 1044 256 1044 256 1011 186 c 132,-1,28
 978 116 978 116 928 66 c 132,-1,29
 878 16 878 16 811 -11 c 132,-1,30
 744 -38 744 -38 656 -38 c 260,31,32
 568 -38 568 -38 499 -11 c 132,-1,33
 430 16 430 16 381 66 c 132,-1,34
 332 116 332 116 298 186 c 132,-1,35
 264 256 264 256 243 339 c 132,-1,36
 222 422 222 422 213 515 c 132,-1,37
 204 608 204 608 204 708 c 4,10,11
656 30 m 132,-1,39
 686 30 686 30 703 61 c 132,-1,40
 720 92 720 92 730 170 c 132,-1,41
 740 248 740 248 743 379 c 132,-1,42
 746 510 746 510 746 708 c 132,-1,44
 746 906 746 906 743 1038 c 132,-1,45
 740 1170 740 1170 730 1247 c 132,-1,46
 720 1324 720 1324 702 1355 c 132,-1,47
 684 1386 684 1386 656 1386 c 4,48,49
 626 1386 626 1386 607 1355 c 132,-1,50
 588 1324 588 1324 579 1247 c 132,-1,51
 570 1170 570 1170 567 1039 c 132,-1,52
 564 908 564 908 564 708 c 132,-1,54
 564 508 564 508 567 378 c 132,-1,55
 570 248 570 248 579 170 c 132,-1,56
 588 92 588 92 607 61 c 132,-1,57
 626 30 626 30 656 30 c 132,-1,39
EndSplineSet
Fore
SplineSet
821 1309 m 1,0,1
 825 1287 825 1287 829 1260 c 0,2,3
 830 1249 830 1249 832 1237 c 1,4,-1
 865 1271 l 1,5,6
 861 1275 861 1275 857 1279 c 0,7,8
 840 1296 840 1296 821 1309 c 1,0,1
611 631 m 128,-1,10
 594 664 594 664 594 711 c 128,-1,11
 594 758 594 758 611 791 c 128,-1,12
 628 824 628 824 654 824 c 128,-1,13
 680 824 680 824 697 791 c 128,-1,14
 714 758 714 758 714 711 c 128,-1,15
 714 664 714 664 697 631 c 128,-1,16
 680 598 680 598 654 598 c 128,-1,9
 628 598 628 598 611 631 c 128,-1,10
204 708 m 0,17,18
 204 926 204 926 234 1044 c 0,19,20
 269 1172 269 1172 298 1231 c 0,21,22
 341 1319 341 1319 386 1355 c 0,23,24
 454 1410 454 1410 492 1424 c 0,25,26
 573 1454 573 1454 647 1454 c 0,27,28
 652 1454 652 1454 656 1454 c 0,29,30
 750 1452 750 1452 811 1427 c 0,31,32
 867 1404 867 1404 912 1365 c 0,33,34
 1104 1196 1104 1196 1104 708 c 0,35,36
 1104 492 1104 492 1074 374 c 0,37,38
 1039 245 1039 245 1011 186 c 0,39,40
 978 116 978 116 928 66 c 0,41,42
 885 23 885 23 831 -2 c 0,43,44
 759 -38 759 -38 656 -38 c 0,45,46
 568 -38 568 -38 499 -11 c 128,-1,47
 430 16 430 16 381 66 c 0,48,49
 204 243 204 243 204 708 c 0,17,18
607 61 m 128,-1,51
 626 30 626 30 656 30 c 128,-1,52
 686 30 686 30 703 61 c 128,-1,53
 720 92 720 92 730 170 c 128,-1,54
 740 248 740 248 743 379 c 128,-1,55
 746 510 746 510 746 708 c 128,-1,56
 746 906 746 906 743 1038 c 128,-1,57
 740 1170 740 1170 730 1247 c 0,58,59
 712 1386 712 1386 656 1386 c 0,60,61
 598 1386 598 1386 581 1259 c 0,62,63
 571 1199 571 1199 567 1039 c 0,64,65
 564 922 564 922 564 750 c 0,66,67
 564 494 564 494 567 378 c 0,68,69
 570 248 570 248 579 170 c 128,-1,50
 588 92 588 92 607 61 c 128,-1,51
320 953 m 1,70,-1
 371 994 l 1,71,-1
 468 1087 l 1,72,73
 469 1123 469 1123 471 1154 c 1,74,-1
 335 1035 l 1,75,76
 326 996 326 996 320 953 c 1,70,-1
386 1183 m 1,77,78
 357 1124 357 1124 338 1047 c 1,79,-1
 472 1165 l 1,80,81
 475 1212 475 1212 479 1249 c 1,82,-1
 386 1183 l 1,77,78
305 770 m 1,83,84
 304 739 304 739 304 707 c 0,85,86
 304 692 304 692 304 677 c 1,87,-1
 402 759 l 1,88,-1
 464 802 l 1,89,90
 464 847 464 847 465 888 c 1,91,-1
 356 803 l 1,92,-1
 305 770 l 1,83,84
308 831 m 1,93,94
 306 806 306 806 305 779 c 1,95,-1
 352 809 l 1,96,97
 408 853 408 853 465 897 c 1,98,99
 465 948 465 948 466 993 c 1,100,-1
 442 973 l 1,101,-1
 356 876 l 2,102,103
 329 845 329 845 326 843 c 2,104,-1
 308 831 l 1,93,94
319 942 m 1,105,106
 312 894 312 894 308 840 c 1,107,108
 314 844 314 844 321 849 c 2,109,-1
 436 979 l 2,110,111
 448 993 448 993 466 1009 c 1,112,113
 466 1027 466 1027 467 1043 c 0,114,115
 467 1058 467 1058 468 1072 c 1,116,117
 396 1004 396 1004 376 988 c 2,118,-1
 319 942 l 1,105,106
393 1197 m 1,119,-1
 480 1259 l 1,120,121
 483 1286 483 1286 487 1309 c 1,122,123
 467 1296 467 1296 451 1278 c 0,124,125
 419 1246 419 1246 393 1197 c 1,119,-1
464 793 m 1,126,-1
 406 753 l 1,127,-1
 304 668 l 1,128,129
 305 627 305 627 307 590 c 1,130,-1
 464 698 l 2,131,132
 464 703 464 703 464 708 c 0,133,134
 464 752 464 752 464 793 c 1,126,-1
467 390 m 1,135,-1
 356 307 l 1,136,137
 362 288 362 288 370 270 c 1,138,-1
 468 343 l 1,139,140
 468 358 468 358 467 374 c 0,141,142
 467 382 467 382 467 390 c 1,135,-1
467 399 m 1,143,144
 467 420 467 420 466 441 c 1,145,-1
 343 350 l 1,146,147
 348 332 348 332 354 314 c 1,148,-1
 467 399 l 1,143,144
466 451 m 1,149,150
 466 466 466 466 465 480 c 1,151,-1
 334 388 l 1,152,153
 337 376 337 376 340 364 c 0,154,155
 341 361 341 361 341 358 c 1,156,-1
 466 451 l 1,149,150
465 550 m 1,157,-1
 366 483 l 1,158,-1
 322 451 l 1,159,160
 327 422 327 422 333 395 c 1,161,-1
 465 489 l 1,162,163
 465 518 465 518 465 550 c 1,157,-1
464 619 m 1,164,-1
 436 598 l 1,165,-1
 314 514 l 1,166,167
 317 485 317 485 321 458 c 1,168,-1
 362 489 l 1,169,-1
 465 559 l 1,170,171
 464 588 464 588 464 619 c 1,164,-1
464 690 m 1,172,173
 399 645 399 645 308 582 c 1,174,175
 310 551 310 551 313 522 c 1,176,-1
 432 604 l 2,177,178
 448 616 448 616 464 628 c 1,179,180
 464 658 464 658 464 690 c 1,172,173
474 223 m 1,181,-1
 416 181 l 1,182,183
 434 155 434 155 454 134 c 2,184,-1
 480 153 l 1,185,186
 480 153 480 153 474 223 c 1,181,-1
473 232 m 1,187,188
 472 251 472 251 471 272 c 1,189,-1
 393 219 l 1,190,191
 402 202 402 202 412 187 c 1,192,-1
 473 232 l 1,187,188
470 281 m 1,193,194
 469 307 469 307 468 335 c 1,195,-1
 373 263 l 1,196,197
 381 244 381 244 389 227 c 1,198,-1
 470 281 l 1,193,194
481 145 m 1,199,-1
 459 130 l 1,200,201
 472 118 472 118 487 107 c 1,202,203
 484 125 484 125 481 145 c 1,199,-1
871 1265 m 1,204,-1
 833 1226 l 1,205,206
 837 1187 837 1187 839 1138 c 1,207,-1
 847 1144 l 1,208,-1
 914 1201 l 1,209,210
 894 1238 894 1238 871 1265 c 1,204,-1
938 1149 m 1,211,212
 929 1173 929 1173 918 1194 c 1,213,214
 864 1148 864 1148 851 1138 c 2,215,-1
 840 1130 l 1,216,217
 841 1101 841 1101 842 1068 c 1,218,-1
 911 1124 l 1,219,-1
 938 1149 l 1,211,212
941 1141 m 1,220,-1
 917 1118 l 1,221,-1
 843 1058 l 1,222,223
 843 1050 843 1050 843 1042 c 0,224,225
 844 1012 844 1012 844 979 c 1,226,-1
 931 1039 l 1,227,-1
 964 1072 l 1,228,229
 953 1109 953 1109 941 1141 c 1,220,-1
966 1062 m 1,230,231
 938 1034 938 1034 936 1033 c 2,232,-1
 844 970 l 1,233,234
 844 946 844 946 845 919 c 1,235,236
 911 969 911 969 976 1019 c 1,237,238
 972 1037 972 1037 968 1054 c 0,239,240
 967 1058 967 1058 966 1062 c 1,230,231
1004 735 m 1,241,-1
 846 617 l 1,242,243
 846 594 846 594 846 571 c 1,244,-1
 1004 699 l 1,245,246
 1004 704 1004 704 1004 709 c 0,247,248
 1004 722 1004 722 1004 735 c 1,241,-1
1002 794 m 1,249,-1
 846 676 l 1,250,251
 846 650 846 650 846 626 c 1,252,-1
 1004 744 l 1,253,254
 1003 769 1003 769 1002 794 c 1,249,-1
1000 841 m 1,255,-1
 846 726 l 1,256,257
 846 717 846 717 846 708 c 0,258,259
 846 697 846 697 846 686 c 1,260,-1
 1002 804 l 1,261,262
 1001 823 1001 823 1000 841 c 1,255,-1
996 883 m 1,263,-1
 846 763 l 1,264,265
 846 749 846 749 846 735 c 1,266,-1
 999 850 l 1,267,268
 998 867 998 867 996 883 c 1,263,-1
987 963 m 1,269,-1
 982 958 l 1,270,-1
 936 903 l 1,271,-1
 846 833 l 1,272,273
 846 803 846 803 846 772 c 1,274,-1
 996 891 l 1,275,276
 992 929 992 929 987 963 c 1,269,-1
978 1010 m 1,277,-1
 845 909 l 1,278,279
 845 878 845 878 846 843 c 1,280,-1
 931 909 l 1,281,-1
 976 964 l 2,282,283
 981 969 981 969 985 973 c 1,284,285
 982 992 982 992 978 1010 c 1,277,-1
1002 622 m 1,286,287
 1003 655 1003 655 1004 689 c 1,288,-1
 846 561 l 1,289,290
 846 533 846 533 845 507 c 1,291,-1
 1002 622 l 1,286,287
1002 613 m 1,292,-1
 845 498 l 1,293,294
 844 450 844 450 844 408 c 1,295,-1
 995 520 l 2,296,297
 995 523 995 523 995 526 c 0,298,299
 1000 569 1000 569 1002 613 c 1,292,-1
974 389 m 1,300,-1
 840 290 l 1,301,302
 838 248 838 248 835 213 c 1,303,-1
 948 296 l 1,304,305
 963 340 963 340 974 389 c 1,300,-1
944 285 m 1,306,-1
 834 204 l 1,307,308
 832 183 832 183 830 164 c 1,309,-1
 922 231 l 1,310,311
 934 257 934 257 944 285 c 1,306,-1
985 446 m 1,312,313
 909 391 909 391 842 343 c 1,314,315
 841 320 841 320 840 299 c 1,316,-1
 977 400 l 1,317,318
 981 422 981 422 985 446 c 1,312,313
994 510 m 1,319,320
 938 468 938 468 843 398 c 1,321,322
 843 386 843 386 843 375 c 128,-1,323
 843 364 843 364 842 353 c 1,324,325
 969 445 969 445 987 458 c 1,326,327
 991 483 991 483 994 510 c 1,319,320
915 218 m 1,328,-1
 829 154 l 1,329,330
 826 129 826 129 821 107 c 1,331,332
 879 146 879 146 915 218 c 1,328,-1
EndSplineSet
Validated: 3073
Layer: 3
SplineSet
752 708 m 132,-1,0
 752 906 752 906 749 1038 c 132,-1,1
 746 1170 746 1170 736 1248 c 132,-1,2
 726 1326 726 1326 706.5 1359 c 132,-1,3
 687 1392 687 1392 656 1392 c 4,4,5
 623 1392 623 1392 602 1358 c 4,6,7
 582 1326 582 1326 573 1248 c 132,-1,8
 564 1170 564 1170 561 1039 c 132,-1,9
 558 908 558 908 558 708 c 134,-1,10
 558 508 558 508 561 378 c 132,-1,11
 564 248 564 248 573 169 c 132,-1,12
 582 90 582 90 602.5 57 c 132,-1,13
 623 24 623 24 656 24 c 4,14,15
 690 24 690 24 708 57 c 132,-1,16
 726 90 726 90 736 169 c 132,-1,17
 746 248 746 248 749 379 c 132,-1,18
 752 510 752 510 752 708 c 132,-1,0
219 900.5 m 132,-1,18
 228 995 228 995 249 1077.5 c 132,-1,19
 270 1160 270 1160 303.5 1228 c 132,-1,20
 337 1296 337 1296 385 1345.5 c 132,-1,21
 433 1395 433 1395 501 1422 c 4,22,23
 567 1448 567 1448 655 1448 c 132,-1,24
 743 1448 743 1448 809 1421.5 c 132,-1,25
 875 1395 875 1395 924 1345.5 c 132,-1,26
 973 1296 973 1296 1005.5 1228 c 132,-1,27
 1038 1160 1038 1160 1059 1078 c 4,28,29
 1098 925 1098 925 1098 708 c 4,30,31
 1098 494 1098 494 1059 340 c 4,32,33
 1038 258 1038 258 1005.5 189 c 132,-1,34
 973 120 973 120 924 70.5 c 132,-1,35
 875 21 875 21 809 -5.5 c 132,-1,36
 743 -32 743 -32 656 -32 c 132,-1,37
 569 -32 569 -32 502 -5.5 c 132,-1,38
 435 21 435 21 386.5 69.5 c 132,-1,39
 338 118 338 118 303 189 c 4,40,41
 237 325 237 325 219 516 c 4,42,43
 210 609 210 609 210 707.5 c 132,-1,44
 210 806 210 806 219 900.5 c 132,-1,18
600 711 m 132,-1,44
 600 757 600 757 616 787.5 c 132,-1,45
 632 818 632 818 654 818 c 132,-1,46
 676 818 676 818 692 788 c 4,47,48
 708 756 708 756 708 710.5 c 132,-1,49
 708 665 708 665 692 634.5 c 132,-1,50
 676 604 676 604 654 604 c 132,-1,51
 632 604 632 604 616 634 c 4,52,53
 600 665 600 665 600 711 c 132,-1,44
EndSplineSet
EndChar

StartChar: one
Encoding: 49 49 17
Width: 812
GlyphClass: 2
Flags: W
LayerCount: 4
Back
SplineSet
140 80 m 5,0,-1
 240 80 l 5,1,-1
 240 1244 l 5,2,-1
 140 1244 l 5,3,-1
 140 1324 l 5,4,5
 214 1324 214 1324 271 1351 c 132,-1,6
 328 1378 328 1378 364 1418 c 5,7,-1
 604 1418 l 5,8,-1
 604 80 l 5,9,-1
 702 80 l 5,10,-1
 702 0 l 5,11,-1
 140 0 l 5,12,-1
 140 80 l 5,0,-1
EndSplineSet
Fore
SplineSet
140 0 m 1,0,-1
 140 80 l 1,1,-1
 240 80 l 1,2,-1
 240 1244 l 1,3,-1
 140 1244 l 1,4,-1
 140 1324 l 1,5,6
 214 1324 214 1324 271 1351 c 0,7,8
 325 1377 325 1377 361 1414 c 0,9,10
 363 1416 363 1416 364 1418 c 2,11,-1
 604 1418 l 1,12,-1
 604 80 l 1,13,-1
 702 80 l 1,14,-1
 702 0 l 1,15,-1
 140 0 l 1,0,-1
442 1318 m 1,16,-1
 404 1318 l 1,17,18
 375 1294 375 1294 340 1274 c 1,19,-1
 340 1218 l 1,20,21
 358 1230 358 1230 376 1242 c 1,22,-1
 442 1318 l 1,16,-1
453 1318 m 1,23,-1
 381 1236 l 1,24,-1
 340 1209 l 1,25,-1
 340 1159 l 1,26,-1
 491 1267 l 1,27,-1
 504 1280 l 1,28,-1
 504 1318 l 1,29,-1
 453 1318 l 1,23,-1
504 170 m 1,30,-1
 504 246 l 1,31,-1
 340 124 l 1,32,-1
 340 100 l 1,33,-1
 406 100 l 1,34,-1
 504 170 l 1,30,-1
504 255 m 1,35,-1
 504 294 l 1,36,-1
 340 184 l 1,37,-1
 340 133 l 1,38,-1
 504 255 l 1,35,-1
504 161 m 1,39,-1
 418 100 l 1,40,-1
 493 100 l 1,41,42
 499 104 499 104 504 108 c 1,43,-1
 504 161 l 1,39,-1
504 361 m 1,44,-1
 340 239 l 1,45,-1
 340 193 l 1,46,-1
 504 303 l 1,47,-1
 504 361 l 1,44,-1
504 370 m 1,48,-1
 504 418 l 1,49,-1
 340 295 l 1,50,-1
 340 248 l 1,51,-1
 504 370 l 1,48,-1
504 427 m 1,52,-1
 504 470 l 1,53,-1
 340 347 l 1,54,-1
 340 304 l 1,55,-1
 504 427 l 1,52,-1
504 479 m 1,56,-1
 504 508 l 1,57,-1
 340 392 l 1,58,-1
 340 357 l 1,59,-1
 504 479 l 1,56,-1
504 577 m 1,60,-1
 366 483 l 1,61,-1
 340 464 l 1,62,-1
 340 401 l 1,63,-1
 504 517 l 1,64,-1
 504 577 l 1,60,-1
504 650 m 1,65,-1
 436 598 l 1,66,-1
 340 532 l 1,67,-1
 340 473 l 1,68,-1
 362 489 l 1,69,-1
 504 586 l 1,70,-1
 504 650 l 1,65,-1
504 718 m 1,71,72
 490 708 490 708 476 698 c 0,73,74
 419 659 419 659 340 604 c 1,75,-1
 340 541 l 1,76,-1
 432 604 l 2,77,78
 468 632 468 632 504 659 c 1,79,-1
 504 718 l 1,71,72
504 821 m 1,80,-1
 406 753 l 1,81,-1
 340 698 l 1,82,-1
 340 612 l 1,83,-1
 472 704 l 1,84,-1
 504 727 l 1,85,-1
 504 821 l 1,80,-1
504 918 m 1,86,-1
 356 803 l 1,87,-1
 340 793 l 1,88,-1
 340 707 l 1,89,-1
 402 759 l 1,90,-1
 504 830 l 1,91,-1
 504 918 l 1,86,-1
504 1023 m 1,92,-1
 442 973 l 1,93,-1
 356 876 l 2,94,95
 347 865 347 865 340 858 c 1,96,-1
 340 801 l 1,97,-1
 352 809 l 1,98,99
 428 868 428 868 504 928 c 1,100,-1
 504 1023 l 1,92,-1
504 1107 m 1,101,102
 400 1007 400 1007 376 988 c 2,103,-1
 340 959 l 1,104,-1
 340 870 l 1,105,-1
 436 979 l 2,106,107
 459 1005 459 1005 504 1038 c 1,108,-1
 504 1107 l 1,101,102
504 1182 m 1,109,-1
 340 1039 l 1,110,-1
 340 969 l 1,111,112
 356 981 356 981 371 994 c 2,113,-1
 504 1121 l 1,114,-1
 504 1182 l 1,109,-1
504 1269 m 1,115,116
 497 1262 497 1262 496 1261 c 0,117,-1
 340 1150 l 1,118,-1
 340 1049 l 1,119,-1
 504 1193 l 1,120,-1
 504 1269 l 1,115,116
EndSplineSet
Validated: 2049
Layer: 3
SplineSet
246 1250 m 5,0,-1
 146 1250 l 5,1,-1
 146 1318 l 5,2,3
 218 1319 218 1319 274.5 1345.5 c 132,-1,4
 331 1372 331 1372 367 1412 c 5,5,-1
 598 1412 l 5,6,-1
 598 74 l 5,7,-1
 696 74 l 5,8,-1
 696 6 l 5,9,-1
 146 6 l 5,10,-1
 146 74 l 5,11,-1
 246 74 l 5,12,-1
 246 1250 l 5,0,-1
EndSplineSet
EndChar

StartChar: two
Encoding: 50 50 18
Width: 1166
GlyphClass: 2
Flags: W
LayerCount: 4
Back
SplineSet
186 98 m 5,0,1
 232 166 232 166 280 248 c 4,2,3
 330 330 330 330 376 418 c 4,4,5
 424 506 424 506 466 600 c 4,6,7
 510 694 510 694 542 787 c 132,-1,8
 574 880 574 880 593 971 c 132,-1,9
 612 1062 612 1062 612 1144 c 4,10,11
 612 1214 612 1214 602 1260 c 132,-1,12
 592 1306 592 1306 574 1334 c 132,-1,13
 556 1362 556 1362 532 1373 c 132,-1,14
 508 1384 508 1384 482 1384 c 4,15,16
 452 1384 452 1384 422 1374 c 5,17,18
 446 1360 446 1360 468 1338 c 132,-1,19
 490 1316 490 1316 504 1286 c 4,20,21
 520 1256 520 1256 528 1222 c 4,22,23
 536 1186 536 1186 536 1148 c 4,24,25
 536 1096 536 1096 522 1052 c 132,-1,27
 508 1008 508 1008 483 974 c 132,-1,28
 458 940 458 940 426 922 c 132,-1,30
 394 904 394 904 354 904 c 260,31,32
 316 904 316 904 283 922 c 132,-1,33
 250 940 250 940 224 974 c 132,-1,34
 198 1008 198 1008 184 1052 c 132,-1,36
 170 1096 170 1096 170 1148 c 4,37,38
 170 1222 170 1222 198 1280 c 132,-1,40
 226 1338 226 1338 279 1377 c 132,-1,41
 332 1416 332 1416 405 1435 c 132,-1,42
 478 1454 478 1454 566 1454 c 4,43,44
 616 1454 616 1454 664 1444 c 4,45,46
 714 1434 714 1434 758 1412 c 132,-1,48
 802 1390 802 1390 838 1357 c 132,-1,49
 874 1324 874 1324 902 1275 c 132,-1,50
 930 1226 930 1226 944 1164 c 4,51,52
 960 1102 960 1102 960 1024 c 4,53,54
 960 940 960 940 942 876 c 4,55,56
 926 810 926 810 894 758 c 4,57,58
 864 704 864 704 820 664 c 4,59,60
 764 612 764 612 724 592 c 4,61,62
 626 542 626 542 616 536 c 4,63,64
 570 518 570 518 524 498 c 4,65,66
 524 498 524 498 500 450 c 5,67,-1
 886 450 l 5,68,69
 906 486 906 486 920 524 c 4,70,71
 934 560 934 560 946 598 c 5,72,-1
 980 596 l 5,73,-1
 938 0 l 5,74,-1
 186 0 l 5,75,-1
 186 98 l 5,0,1
EndSplineSet
Fore
SplineSet
186 0 m 1,0,-1
 186 98 l 2,1,2
 190 103 190 103 193 109 c 0,3,4
 236 173 236 173 280 248 c 0,5,6
 330 330 330 330 376 418 c 0,7,8
 417 494 417 494 454 574 c 0,9,10
 460 587 460 587 466 600 c 0,11,12
 510 694 510 694 542 787 c 128,-1,13
 574 880 574 880 593 971 c 0,14,15
 601 1008 601 1008 605 1044 c 0,16,17
 611 1097 611 1097 612 1146 c 0,18,19
 612 1215 612 1215 602 1260 c 0,20,21
 592 1306 592 1306 574 1334 c 0,22,23
 559 1361 559 1361 532 1373 c 0,24,25
 508 1384 508 1384 482 1384 c 0,26,27
 452 1384 452 1384 422 1374 c 1,28,29
 424 1373 424 1373 427 1371 c 0,30,31
 536 1303 536 1303 536 1148 c 0,32,33
 536 1046 536 1046 483 974 c 0,34,35
 454 934 454 934 416 917 c 0,36,37
 388 904 388 904 354 904 c 0,38,39
 291 904 291 904 243 952 c 0,40,41
 233 962 233 962 224 974 c 0,42,43
 222 976 222 976 220 979 c 0,44,45
 170 1048 170 1048 170 1134 c 0,46,47
 170 1138 170 1138 170 1141 c 128,-1,48
 170 1144 170 1144 170 1148 c 0,49,50
 170 1222 170 1222 198 1280 c 128,-1,51
 226 1338 226 1338 279 1377 c 0,52,53
 304 1395 304 1395 334 1409 c 0,54,55
 428 1454 428 1454 566 1454 c 0,56,57
 800 1454 800 1454 902 1275 c 0,58,59
 907 1267 907 1267 911 1259 c 0,60,61
 960 1162 960 1162 960 1024 c 0,62,63
 960 996 960 996 958 970 c 0,64,65
 949 846 949 846 894 758 c 0,66,67
 868 710 868 710 830 674 c 0,68,69
 822 666 822 666 814 658 c 0,70,71
 802 647 802 647 789 636 c 0,72,73
 753 606 753 606 724 592 c 0,74,75
 717 588 717 588 710 585 c 0,76,77
 703 581 703 581 695 577 c 0,78,79
 667 563 667 563 648 553 c 0,80,81
 621 539 621 539 616 536 c 0,82,83
 570 518 570 518 524 498 c 1,84,-1
 500 450 l 1,85,-1
 886 450 l 1,86,87
 892 461 892 461 898 473 c 0,88,89
 905 488 905 488 913 505 c 0,90,91
 917 515 917 515 920 524 c 0,92,93
 934 560 934 560 946 598 c 1,94,-1
 980 596 l 1,95,-1
 938 0 l 1,96,-1
 186 0 l 1,0,-1
694 1305 m 1,97,98
 703 1315 703 1315 711 1324 c 1,99,100
 698 1330 698 1330 684 1335 c 1,101,102
 690 1321 690 1321 694 1305 c 1,97,98
697 1295 m 1,103,104
 699 1289 699 1289 700 1281 c 0,105,106
 706 1252 706 1252 709 1216 c 1,107,-1
 751 1254 l 1,108,-1
 774 1280 l 2,109,110
 772 1282 772 1282 770 1284 c 0,111,112
 747 1305 747 1305 720 1319 c 1,113,-1
 697 1295 l 1,103,104
780 1274 m 1,114,115
 761 1253 761 1253 756 1248 c 2,116,-1
 710 1206 l 1,117,118
 712 1175 712 1175 712 1138 c 0,119,120
 712 1127 712 1127 712 1116 c 1,121,-1
 766 1169 l 1,122,-1
 818 1221 l 2,123,124
 817 1222 817 1222 817 1223 c 0,125,126
 799 1253 799 1253 780 1274 c 1,114,115
846 1143 m 1,127,128
 837 1183 837 1183 822 1213 c 1,129,-1
 772 1163 l 2,130,131
 741 1133 741 1133 711 1103 c 1,132,133
 710 1072 710 1072 706 1040 c 1,134,-1
 846 1143 l 1,127,128
858 1070 m 1,135,-1
 756 988 l 1,136,-1
 689 942 l 1,137,138
 679 895 679 895 665 847 c 1,139,-1
 787 939 l 1,140,-1
 859 989 l 1,141,142
 860 1004 860 1004 860 1021 c 0,143,144
 860 1047 860 1047 858 1070 c 1,135,-1
857 1080 m 1,145,146
 854 1110 854 1110 848 1136 c 1,147,-1
 704 1029 l 1,148,149
 699 992 699 992 691 952 c 1,150,-1
 752 994 l 1,151,-1
 857 1080 l 1,145,146
851 923 m 1,152,153
 857 949 857 949 859 979 c 1,154,-1
 791 933 l 1,155,-1
 662 835 l 1,156,157
 651 798 651 798 639 762 c 1,158,-1
 851 923 l 1,152,153
848 912 m 1,159,-1
 635 750 l 1,160,161
 618 702 618 702 599 653 c 1,162,-1
 814 819 l 1,163,164
 834 855 834 855 845 901 c 0,165,166
 847 907 847 907 848 912 c 1,159,-1
803 801 m 1,167,-1
 593 640 l 2,168,169
 592 638 592 638 591 636 c 1,170,171
 636 660 636 660 679 681 c 0,172,173
 706 695 706 695 752 738 c 0,174,175
 782 765 782 765 803 801 c 1,167,-1
403 1261 m 1,176,-1
 381 1236 l 1,177,-1
 270 1163 l 1,178,179
 270 1155 270 1155 270 1148 c 0,180,181
 270 1126 270 1126 273 1107 c 1,182,-1
 337 1157 l 1,183,-1
 424 1219 l 1,184,185
 420 1231 420 1231 414 1241 c 0,186,187
 410 1252 410 1252 403 1261 c 1,176,-1
398 1267 m 2,188,189
 397 1268 397 1268 396 1269 c 0,190,191
 373 1292 373 1292 343 1300 c 1,192,193
 279 1256 279 1256 271 1172 c 1,194,195
 324 1207 324 1207 376 1242 c 1,196,-1
 398 1267 l 2,188,189
427 1212 m 1,197,-1
 341 1151 l 1,198,-1
 275 1099 l 1,199,200
 283 1062 283 1062 304 1035 c 0,201,202
 308 1029 308 1029 312 1024 c 1,203,-1
 436 1132 l 2,204,205
 436 1137 436 1137 436 1143 c 0,206,207
 436 1182 436 1182 427 1212 c 1,197,-1
435 1122 m 1,208,-1
 318 1019 l 1,209,210
 335 1004 335 1004 354 1004 c 0,211,212
 368 1004 368 1004 376 1009 c 0,213,214
 390 1017 390 1017 404 1035.5 c 128,-1,215
 418 1054 418 1054 427 1083 c 0,216,217
 433 1102 433 1102 435 1122 c 1,208,-1
852 350 m 1,218,219
 632 191 632 191 505 100 c 1,220,-1
 570 100 l 1,221,-1
 860 314 l 1,222,-1
 862 350 l 1,223,-1
 852 350 l 1,218,219
774 350 m 1,224,-1
 626 248 l 1,225,-1
 418 100 l 1,226,-1
 493 100 l 1,227,228
 716 261 716 261 839 350 c 1,229,-1
 774 350 l 1,224,-1
645 350 m 1,230,-1
 307 100 l 1,231,-1
 406 100 l 1,232,-1
 622 254 l 1,233,-1
 761 350 l 1,234,-1
 645 350 l 1,230,-1
633 350 m 1,235,-1
 587 350 l 1,236,-1
 371 205 l 1,237,238
 371 205 371 205 318 118 c 1,239,-1
 633 350 l 1,235,-1
489 350 m 1,240,-1
 429 305 l 1,241,242
 405 261 405 261 379 219 c 1,243,-1
 574 350 l 1,244,-1
 489 350 l 1,240,-1
477 350 m 1,245,-1
 453 350 l 1,246,247
 445 335 445 335 437 321 c 1,248,-1
 477 350 l 1,245,-1
845 107 m 1,249,-1
 836 100 l 1,250,-1
 845 100 l 1,251,-1
 845 107 l 1,249,-1
846 116 m 1,252,-1
 850 170 l 1,253,-1
 754 100 l 1,254,-1
 823 100 l 1,255,-1
 846 116 l 1,252,-1
850 180 m 1,256,-1
 853 217 l 1,257,-1
 695 100 l 1,258,-1
 742 100 l 1,259,-1
 850 180 l 1,256,-1
854 227 m 1,260,-1
 859 304 l 1,261,-1
 583 100 l 1,262,-1
 683 100 l 1,263,-1
 854 227 l 1,260,-1
EndSplineSet
Validated: 3073
Layer: 3
SplineSet
936 878 m 4,0,1
 920 813 920 813 889 761 c 6,2,3
 859 707 859 707 816 668 c 4,4,5
 759 615 759 615 721 597 c 4,6,-1
 613 541 l 4,7,-1
 520 503 l 5,8,-1
 490 444 l 5,9,-1
 890 444 l 5,10,11
 921 502 921 502 950 592 c 5,12,-1
 974 590 l 5,13,-1
 932 6 l 5,14,-1
 192 6 l 5,15,-1
 192 96 l 5,16,17
 237 164 237 164 285 245 c 4,18,19
 335 327 335 327 381 415 c 4,20,21
 429 503 429 503 471 597 c 4,22,23
 516 692 516 692 548 785 c 4,24,25
 618 989 618 989 618 1144 c 4,26,27
 618 1277 618 1277 579 1338 c 4,28,29
 561 1366 561 1366 535 1378 c 132,-1,30
 509 1390 509 1390 480 1390 c 132,-1,31
 451 1390 451 1390 420 1380 c 6,32,-1
 408 1375 l 5,33,-1
 419 1369 l 6,34,35
 442 1355 442 1355 463.5 1333.5 c 132,-1,36
 485 1312 485 1312 499 1283 c 6,37,38
 530 1224 530 1224 530 1148 c 4,39,40
 530 1097 530 1097 516 1054 c 132,-1,41
 502 1011 502 1011 478 978 c 4,42,43
 428 910 428 910 354 910 c 4,44,45
 294 910 294 910 247 957 c 4,46,47
 209 996 209 996 190 1054 c 4,48,49
 176 1097 176 1097 176 1148 c 4,50,51
 176 1270 176 1270 252 1346 c 4,52,53
 310 1404 310 1404 407 1429 c 4,54,55
 479 1448 479 1448 566 1448 c 4,56,57
 616 1448 616 1448 663 1438 c 4,58,59
 762 1419 762 1419 834 1353 c 4,60,61
 870 1320 870 1320 899 1269 c 4,62,63
 924 1224 924 1224 938 1163 c 4,64,65
 954 1101 954 1101 954 1021 c 132,-1,66
 954 941 954 941 936 878 c 4,0,1
EndSplineSet
EndChar

StartChar: three
Encoding: 51 51 19
Width: 1178
GlyphClass: 2
Flags: W
LayerCount: 4
Back
SplineSet
182 270 m 4,0,1
 182 322 182 322 197 366 c 132,-1,2
 212 410 212 410 237 443 c 132,-1,3
 262 476 262 476 294 496 c 4,4,5
 326 514 326 514 366 514 c 260,6,7
 404 514 404 514 438 495 c 132,-1,8
 472 476 472 476 496 443 c 132,-1,9
 520 410 520 410 535 366 c 132,-1,10
 550 322 550 322 550 270 c 4,11,12
 550 232 550 232 542 198 c 132,-1,13
 534 164 534 164 520 135 c 132,-1,14
 506 106 506 106 485 83 c 132,-1,15
 464 60 464 60 440 46 c 5,16,17
 458 40 458 40 477 37 c 132,-1,18
 496 34 496 34 512 34 c 4,19,20
 544 34 544 34 569 48 c 132,-1,21
 594 62 594 62 612 97 c 132,-1,22
 630 132 630 132 640 190 c 132,-1,23
 650 248 650 248 650 336 c 4,24,25
 650 414 650 414 636 472 c 132,-1,26
 622 530 622 530 596 571 c 132,-1,27
 570 612 570 612 534 636 c 132,-1,28
 498 660 498 660 452 664 c 5,29,-1
 452 772 l 5,30,31
 496 778 496 778 531 806 c 132,-1,32
 566 834 566 834 593 879 c 132,-1,33
 620 924 620 924 636 984 c 132,-1,34
 652 1044 652 1044 652 1118 c 4,35,36
 652 1190 652 1190 641 1240 c 132,-1,37
 630 1290 630 1290 612 1322 c 132,-1,38
 594 1354 594 1354 568 1367 c 132,-1,39
 542 1380 542 1380 514 1380 c 4,40,41
 492 1380 492 1380 467 1377 c 132,-1,42
 442 1374 442 1374 414 1360 c 5,43,44
 444 1352 444 1352 472 1329 c 132,-1,45
 500 1306 500 1306 519 1275 c 132,-1,46
 538 1244 538 1244 549 1204 c 132,-1,47
 560 1164 560 1164 560 1118 c 4,48,49
 560 1066 560 1066 545 1022 c 132,-1,50
 530 978 530 978 506 946 c 132,-1,51
 482 914 482 914 449 894 c 132,-1,52
 416 874 416 874 378 874 c 260,53,54
 340 874 340 874 306 894 c 132,-1,55
 272 914 272 914 248 946 c 132,-1,56
 224 978 224 978 209 1023 c 132,-1,57
 194 1068 194 1068 194 1118 c 4,58,59
 194 1194 194 1194 221 1255 c 132,-1,60
 248 1316 248 1316 298 1361 c 132,-1,61
 348 1406 348 1406 419 1430 c 132,-1,62
 490 1454 490 1454 578 1454 c 4,63,64
 626 1454 626 1454 674 1445 c 132,-1,65
 722 1436 722 1436 767 1416 c 132,-1,66
 812 1396 812 1396 849 1366 c 132,-1,67
 886 1336 886 1336 915 1294 c 132,-1,68
 944 1252 944 1252 960 1197 c 132,-1,69
 976 1142 976 1142 976 1074 c 4,70,71
 976 908 976 908 877 825 c 132,-1,72
 778 742 778 742 572 738 c 5,73,74
 668 736 668 736 748 716 c 132,-1,75
 828 696 828 696 884 653 c 132,-1,76
 940 610 940 610 971 541 c 132,-1,77
 1002 472 1002 472 1002 372 c 4,78,79
 1002 266 1002 266 974 188 c 132,-1,80
 946 110 946 110 894 60 c 132,-1,81
 842 10 842 10 766 -14 c 132,-1,82
 690 -38 690 -38 598 -38 c 132,-1,84
 506 -38 506 -38 429 -19 c 132,-1,85
 352 0 352 0 297 39 c 132,-1,86
 242 78 242 78 212 135 c 132,-1,87
 182 192 182 192 182 270 c 4,0,1
EndSplineSet
Fore
SplineSet
219 122 m 0,0,1
 215 128 215 128 212 135 c 0,2,3
 182 192 182 192 182 270 c 0,4,5
 182 365 182 365 232 436 c 0,6,7
 234 440 234 440 237 443 c 0,8,9
 262 476 262 476 294 496 c 0,10,11
 326 514 326 514 366 514 c 0,12,13
 440 514 440 514 491 450 c 0,14,15
 494 447 494 447 496 443 c 0,16,17
 550 369 550 369 550 270 c 0,18,19
 550 154 550 154 485 83 c 0,20,21
 464 60 464 60 440 46 c 1,22,23
 458 40 458 40 477 37 c 0,24,25
 495 34 495 34 511 34 c 0,26,27
 544 34 544 34 569 48 c 128,-1,28
 594 62 594 62 612 97 c 0,29,30
 613 99 613 99 615 102 c 0,31,32
 628 129 628 129 636 168 c 0,33,34
 650 235 650 235 650 336 c 0,35,36
 650 370 650 370 647 401 c 0,37,38
 644 439 644 439 636 472 c 0,39,40
 622 530 622 530 596 571 c 128,-1,41
 570 612 570 612 534 636 c 128,-1,42
 498 660 498 660 452 664 c 1,43,-1
 452 772 l 1,44,45
 496 778 496 778 531 806 c 128,-1,46
 566 834 566 834 593 879 c 128,-1,47
 620 924 620 924 636 984 c 0,48,49
 652 1046 652 1046 652 1118 c 128,-1,50
 652 1190 652 1190 641 1240 c 128,-1,51
 630 1290 630 1290 612 1322 c 128,-1,52
 594 1354 594 1354 568 1367 c 128,-1,53
 542 1380 542 1380 514 1380 c 0,54,55
 455 1380 455 1380 414 1360 c 1,56,57
 486 1324 486 1324 519 1275 c 0,58,59
 549 1227 549 1227 557 1176 c 0,60,61
 560 1157 560 1157 560 1137 c 0,62,63
 560 1066 560 1066 545 1022 c 128,-1,64
 530 978 530 978 506 946 c 128,-1,65
 482 914 482 914 449 894 c 128,-1,66
 416 874 416 874 378 874 c 128,-1,67
 340 874 340 874 306 894 c 0,68,69
 273 914 273 914 248 946 c 0,70,71
 194 1017 194 1017 194 1112 c 0,72,73
 194 1193 194 1193 221 1254.5 c 128,-1,74
 248 1316 248 1316 298 1361 c 0,75,76
 401 1454 401 1454 578 1454 c 0,77,78
 805 1454 805 1454 915 1294 c 0,79,80
 920 1287 920 1287 924 1280 c 0,81,82
 947 1243 947 1243 960 1197 c 0,83,84
 976 1142 976 1142 976 1074 c 0,85,86
 976 1070 976 1070 976 1066 c 0,87,88
 976 1061 976 1061 976 1057 c 0,89,90
 976 908 976 908 877 825 c 128,-1,91
 778 742 778 742 572 738 c 1,92,93
 668 736 668 736 748 716 c 128,-1,94
 828 696 828 696 884 653 c 128,-1,95
 940 610 940 610 971 541 c 128,-1,96
 1002 472 1002 472 1002 369 c 128,-1,97
 1002 266 1002 266 974 188 c 128,-1,98
 946 110 946 110 894 60 c 128,-1,99
 842 10 842 10 766 -14 c 128,-1,100
 690 -38 690 -38 598 -38 c 128,-1,101
 506 -38 506 -38 429 -19 c 128,-1,102
 352 0 352 0 297 39 c 0,103,104
 281 51 281 51 267 64 c 0,105,106
 238 90 238 90 219 122 c 0,0,1
708 623 m 1,107,-1
 690 609 l 1,108,109
 698 595 698 595 705 579 c 1,110,-1
 748 612 l 1,111,112
 736 616 736 616 724 619 c 0,113,114
 716 621 716 621 708 623 c 1,107,-1
699 625 m 1,115,116
 689 627 689 627 678 628 c 1,117,118
 682 622 682 622 686 615 c 1,119,-1
 699 625 l 1,115,116
756 609 m 1,120,-1
 708 573 l 1,121,122
 716 554 716 554 722 534 c 1,123,-1
 798 590 l 1,124,125
 779 601 779 601 756 609 c 1,120,-1
805 586 m 1,126,-1
 725 526 l 1,127,128
 731 505 731 505 736 482 c 1,129,-1
 784 522 l 1,130,-1
 835 563 l 1,131,132
 828 569 828 569 821 575 c 128,-1,133
 814 581 814 581 805 586 c 1,126,-1
841 557 m 1,134,-1
 790 516 l 1,135,-1
 738 473 l 1,136,137
 742 453 742 453 744 432 c 1,138,-1
 868 523 l 1,139,140
 856 542 856 542 841 557 c 1,134,-1
872 516 m 1,141,-1
 745 424 l 1,142,143
 749 385 749 385 750 342 c 1,144,-1
 832 399 l 1,145,-1
 896 446 l 1,146,147
 890 476 890 476 880 500 c 0,148,149
 876 508 876 508 872 516 c 1,141,-1
902 386 m 1,150,151
 820 327 820 327 749 275 c 1,152,153
 748 251 748 251 746 230 c 1,154,-1
 902 345 l 1,155,156
 902 366 902 366 902 386 c 1,150,151
897 438 m 1,157,158
 869 417 869 417 836 393 c 2,159,-1
 750 334 l 1,160,161
 750 309 750 309 749 285 c 1,162,163
 844 354 844 354 901 395 c 1,164,165
 900 418 900 418 897 438 c 1,157,158
901 335 m 1,166,-1
 745 220 l 1,167,168
 743 197 743 197 739 178 c 0,169,170
 735 156 735 156 731 136 c 1,171,-1
 889 254 l 1,172,173
 899 291 899 291 901 335 c 1,166,-1
886 242 m 1,174,-1
 728 125 l 1,175,176
 721 100 721 100 713 79 c 1,177,-1
 867 191 l 1,178,179
 874 205 874 205 880 222 c 0,180,181
 883 232 883 232 886 242 c 1,174,-1
859 177 m 1,182,-1
 724 78 l 1,183,184
 789 96 789 96 827 135 c 0,185,186
 845 153 845 153 859 177 c 1,182,-1
722 1321 m 1,187,188
 738 1278 738 1278 742 1246 c 1,189,-1
 783 1291 l 1,190,191
 758 1311 758 1311 726 1325 c 1,192,-1
 722 1321 l 1,187,188
790 1285 m 1,193,194
 790 1285 790 1285 743 1237 c 1,195,196
 749 1200 749 1200 751 1155 c 1,197,-1
 833 1237 l 1,198,199
 813 1265 813 1265 790 1285 c 1,193,194
876 1085 m 1,200,-1
 756 988 l 1,201,-1
 737 975 l 1,202,203
 723 918 723 918 704 876 c 1,204,-1
 787 939 l 1,205,-1
 867 995 l 1,206,207
 876 1030 876 1030 876 1085 c 1,200,-1
866 1161 m 1,208,209
 857 1199 857 1199 838 1229 c 1,210,211
 795 1186 795 1186 752 1143 c 1,212,213
 752 1094 752 1094 751 1073 c 1,214,-1
 847 1144 l 1,215,-1
 866 1161 l 1,208,209
868 1152 m 1,216,217
 856 1142 856 1142 851 1138 c 2,218,-1
 750 1063 l 1,219,220
 747 1023 747 1023 739 985 c 1,221,-1
 752 994 l 1,222,-1
 876 1095 l 1,223,224
 874 1125 874 1125 868 1152 c 1,216,217
864 984 m 1,225,-1
 791 933 l 1,226,-1
 697 862 l 17,227,228
 694 856 694 856 691 850 c 1,229,230
 780 868 780 868 823 911 c 0,231,232
 851 940 851 940 864 984 c 1,225,-1
302 1184 m 1,233,234
 294 1155 294 1155 294 1123 c 1,235,-1
 337 1157 l 1,236,-1
 432 1225 l 1,237,238
 421 1241 421 1241 400 1258 c 1,239,-1
 381 1236 l 1,240,-1
 302 1184 l 1,233,234
305 1195 m 1,241,242
 341 1219 341 1219 376 1242 c 1,243,-1
 393 1261 l 1,244,245
 375 1270 375 1270 345 1266 c 1,246,247
 318 1235 318 1235 305 1195 c 1,241,242
459 1143 m 1,248,-1
 319 1020 l 1,249,250
 333 994 333 994 355 981 c 1,251,252
 363 987 363 987 371 994 c 2,253,-1
 456 1075 l 1,254,255
 460 1095 460 1095 460 1119 c 0,256,257
 460 1130 460 1130 459 1143 c 1,248,-1
436 1219 m 1,258,-1
 341 1151 l 1,259,-1
 294 1112 l 1,260,261
 295 1067 295 1067 315 1027 c 1,262,-1
 458 1152 l 1,263,264
 452 1190 452 1190 436 1219 c 1,258,-1
451 1056 m 1,265,266
 393 1001 393 1001 376 988 c 2,267,-1
 363 977 l 1,268,269
 371 974 371 974 378 974 c 0,270,271
 396 974 396 974 416 994 c 0,272,273
 437 1015 437 1015 450 1054 c 0,274,275
 451 1055 451 1055 451 1056 c 1,265,266
287 317 m 1,276,-1
 399 401 l 1,277,278
 395 404 395 404 391 407 c 0,279,280
 381 413 381 413 371 414 c 1,281,-1
 307 369 l 1,282,283
 298 354 298 354 292 334 c 0,284,285
 289 326 289 326 287 317 c 1,276,-1
285 306 m 1,286,287
 282 289 282 289 282 270 c 0,288,289
 282 265 282 265 282 260 c 1,290,-1
 425 368 l 1,291,292
 420 377 420 377 415 384 c 128,-1,293
 410 391 410 391 405 396 c 1,294,-1
 285 306 l 1,286,287
320 386 m 1,295,-1
 358 414 l 1,296,297
 351 413 351 413 345 410 c 0,298,299
 332 401 332 401 320 386 c 1,295,-1
429 362 m 1,300,-1
 283 252 l 1,301,302
 284 229 284 229 289 210 c 1,303,-1
 443 325 l 1,304,305
 442 330 442 330 440 334 c 0,306,307
 435 349 435 349 429 362 c 1,300,-1
445 317 m 1,308,-1
 292 203 l 1,309,310
 296 192 296 192 301 182 c 0,311,312
 304 176 304 176 307 170 c 1,313,-1
 450 267 l 2,314,315
 450 268 450 268 450 270 c 0,316,317
 450 295 450 295 445 317 c 1,308,-1
438 197 m 1,318,-1
 345 128 l 1,319,320
 351 123 351 123 356 119 c 1,321,322
 406 130 406 130 430 179 c 0,323,324
 435 188 435 188 438 197 c 1,318,-1
450 258 m 1,325,-1
 311 164 l 1,326,327
 323 147 323 147 339 133 c 1,328,-1
 441 208 l 1,329,330
 449 232 449 232 450 258 c 1,325,-1
EndSplineSet
Validated: 3073
Layer: 3
SplineSet
188 270 m 4,0,1
 188 321 188 321 202.5 364 c 132,-1,2
 217 407 217 407 241.5 439.5 c 132,-1,3
 266 472 266 472 297 491 c 4,4,5
 328 508 328 508 365 508 c 132,-1,6
 402 508 402 508 435 490 c 4,7,8
 498 454 498 454 529 364 c 4,9,10
 544 321 544 321 544 270 c 4,11,12
 544 199 544 199 515 138 c 4,13,14
 501 109 501 109 480.5 87 c 132,-1,15
 460 65 460 65 437 51 c 6,16,-1
 426 45 l 5,17,-1
 438 40 l 6,18,19
 475 28 475 28 512 28 c 4,20,21
 562 28 562 28 592 58 c 4,22,23
 656 122 656 122 656 336 c 4,24,25
 656 528 656 528 568 616 c 4,26,27
 522 662 522 662 458 669 c 5,28,-1
 458 767 l 5,29,30
 501 774 501 774 535 801 c 4,31,32
 545 810 545 810 554 819 c 4,33,34
 614 878 614 878 642 982 c 4,35,36
 658 1043 658 1043 658 1116.5 c 132,-1,37
 658 1190 658 1190 647 1241 c 4,38,39
 624 1345 624 1345 571 1372 c 4,40,41
 543 1386 543 1386 514 1386 c 4,42,43
 492 1386 492 1386 466 1382.5 c 132,-1,44
 440 1379 440 1379 411 1365 c 6,45,-1
 397 1358 l 5,46,-1
 412 1354 l 6,47,48
 441 1347 441 1347 468.5 1324.5 c 132,-1,49
 496 1302 496 1302 514 1272 c 4,50,51
 554 1206 554 1206 554 1115 c 4,52,53
 554 1067 554 1067 539 1024 c 4,54,55
 519 965 519 965 482 928 c 4,56,57
 435 880 435 880 378 880 c 4,58,59
 342 880 342 880 309 899 c 4,60,61
 244 938 244 938 215 1025 c 4,62,63
 200 1069 200 1069 200 1118 c 4,64,65
 200 1193 200 1193 226 1253 c 4,66,67
 250 1305 250 1305 290 1345 c 4,68,69
 343 1398 343 1398 421 1424 c 4,70,71
 491 1448 491 1448 578 1448 c 4,72,73
 681 1448 681 1448 765 1411 c 4,74,75
 855 1371 855 1371 910 1291 c 4,76,77
 970 1204 970 1204 970 1074 c 4,78,79
 970 925 970 925 889 844 c 4,80,81
 793 748 793 748 572 744 c 6,82,-1
 512 743 l 5,83,-1
 512 733 l 5,84,-1
 572 732 l 6,85,86
 667 730 667 730 746 710 c 132,-1,87
 825 690 825 690 880.5 648.5 c 132,-1,88
 936 607 936 607 966 539 c 132,-1,89
 996 471 996 471 996 372 c 4,90,91
 996 170 996 170 892 66 c 4,92,93
 842 17 842 17 764 -8 c 4,94,95
 689 -32 689 -32 598 -32 c 132,-1,96
 507 -32 507 -32 431 -13 c 132,-1,97
 355 6 355 6 301 44 c 132,-1,98
 247 82 247 82 217.5 137.5 c 132,-1,99
 188 193 188 193 188 270 c 4,0,1
EndSplineSet
EndChar

StartChar: four
Encoding: 52 52 20
Width: 1122
GlyphClass: 2
Flags: W
LayerCount: 4
Back
SplineSet
158 448 m 5,0,-1
 578 1434 l 5,1,-1
 852 1434 l 5,2,-1
 852 448 l 5,3,-1
 972 448 l 5,4,-1
 972 360 l 5,5,-1
 852 360 l 5,6,-1
 852 80 l 5,7,-1
 952 80 l 5,8,-1
 952 0 l 5,9,-1
 388 0 l 5,10,-1
 388 80 l 5,11,-1
 488 80 l 5,12,-1
 488 360 l 5,13,-1
 158 360 l 5,14,-1
 158 448 l 5,0,-1
488 448 m 5,15,-1
 488 1012 l 5,16,-1
 250 448 l 5,17,-1
 488 448 l 5,15,-1
EndSplineSet
Fore
SplineSet
752 556 m 1,0,-1
 752 605 l 1,1,-1
 588 482 l 1,2,-1
 588 460 l 1,3,-1
 588 433 l 1,4,-1
 752 556 l 1,0,-1
752 547 m 1,5,-1
 588 424 l 1,6,-1
 588 360 l 1,7,-1
 593 363 l 1,8,-1
 752 495 l 1,9,-1
 752 547 l 1,5,-1
752 438 m 1,10,-1
 752 484 l 1,11,-1
 694 436 l 1,12,-1
 597 357 l 1,13,-1
 588 351 l 1,14,-1
 588 348 l 1,15,-1
 588 316 l 1,16,-1
 752 438 l 1,10,-1
752 344 m 1,17,-1
 752 429 l 1,18,-1
 588 307 l 1,19,-1
 588 230 l 1,20,-1
 622 254 l 1,21,-1
 752 344 l 1,17,-1
752 234 m 1,22,-1
 752 278 l 1,23,24
 660 212 660 212 588 160 c 1,25,-1
 588 113 l 1,26,-1
 752 234 l 1,22,-1
752 151 m 1,27,-1
 752 225 l 1,28,-1
 588 103 l 1,29,-1
 588 100 l 1,30,-1
 683 100 l 1,31,-1
 752 151 l 1,27,-1
752 107 m 1,32,-1
 752 142 l 1,33,-1
 695 100 l 1,34,-1
 742 100 l 1,35,-1
 752 107 l 1,32,-1
752 335 m 1,36,-1
 626 248 l 1,37,-1
 588 221 l 1,38,-1
 588 168 l 1,39,40
 681 235 681 235 752 287 c 1,41,-1
 752 335 l 1,36,-1
752 1244 m 1,42,-1
 588 1095 l 1,43,-1
 588 996 l 1,44,-1
 752 1155 l 1,45,-1
 752 1244 l 1,42,-1
752 1143 m 1,46,47
 697 1089 697 1089 644 1038 c 0,48,49
 602 998 602 998 588 984 c 1,50,-1
 588 919 l 1,51,52
 636 988 636 988 637 989 c 2,53,-1
 752 1074 l 1,54,-1
 752 1143 l 1,46,47
752 985 m 1,55,-1
 662 923 l 1,56,-1
 588 841 l 1,57,-1
 588 789 l 1,58,-1
 602 799 l 1,59,-1
 752 913 l 1,60,-1
 752 985 l 1,55,-1
752 904 m 1,61,-1
 606 793 l 2,62,63
 597 786 597 786 588 779 c 1,64,-1
 588 723 l 1,65,66
 670 785 670 785 752 848 c 1,67,-1
 752 904 l 1,61,-1
752 838 m 1,68,-1
 588 714 l 1,69,-1
 588 645 l 1,70,-1
 752 771 l 1,71,-1
 752 838 l 1,68,-1
752 762 m 1,72,-1
 588 636 l 1,73,-1
 588 576 l 1,74,-1
 592 579 l 1,75,-1
 752 700 l 1,76,-1
 752 762 l 1,72,-1
752 656 m 1,77,-1
 588 533 l 1,78,-1
 588 491 l 1,79,-1
 752 615 l 1,80,-1
 752 656 l 1,77,-1
752 691 m 1,81,82
 688 642 688 642 596 573 c 2,83,-1
 588 567 l 1,84,-1
 588 542 l 1,85,-1
 752 665 l 1,86,-1
 752 691 l 1,81,82
734 1334 m 1,87,-1
 679 1276 l 2,88,89
 630 1228 630 1228 588 1188 c 1,90,-1
 588 1106 l 1,91,-1
 752 1255 l 1,92,-1
 752 1334 l 1,93,-1
 734 1334 l 1,87,-1
637 1317 m 1,94,-1
 652 1334 l 1,95,-1
 644 1334 l 1,96,-1
 637 1317 l 1,94,-1
626 1291 m 1,97,-1
 588 1201 l 1,98,-1
 673 1282 l 2,99,100
 698 1310 698 1310 721 1334 c 1,101,-1
 663 1334 l 1,102,-1
 626 1291 l 1,97,-1
250 448 m 1,103,-1
 488 448 l 1,104,-1
 488 1012 l 1,105,-1
 250 448 l 1,103,-1
158 360 m 1,106,-1
 158 448 l 1,107,-1
 578 1434 l 1,108,-1
 852 1434 l 1,109,-1
 852 448 l 1,110,-1
 972 448 l 1,111,-1
 972 360 l 1,112,-1
 852 360 l 1,113,-1
 852 80 l 1,114,-1
 952 80 l 1,115,-1
 952 0 l 1,116,-1
 388 0 l 1,117,-1
 388 80 l 1,118,-1
 488 80 l 1,119,-1
 488 360 l 1,120,-1
 158 360 l 1,106,-1
588 855 m 1,121,122
 637 916 637 916 657 929 c 2,123,-1
 752 994 l 1,124,-1
 752 1064 l 1,125,-1
 642 983 l 1,126,127
 609 935 609 935 588 905 c 1,128,-1
 588 855 l 1,121,122
EndSplineSet
Validated: 2049
Layer: 3
SplineSet
494 442 m 5,0,-1
 494 1042 l 5,1,-1
 241 442 l 5,2,-1
 494 442 l 5,0,-1
164 366 m 13,3,-1
 164 447 l 29,4,-1
 582 1428 l 5,5,-1
 846 1428 l 5,6,-1
 846 442 l 5,7,-1
 966 442 l 5,8,-1
 966 366 l 5,9,-1
 846 366 l 5,10,-1
 846 74 l 5,11,-1
 946 74 l 5,12,-1
 946 6 l 5,13,-1
 394 6 l 5,14,-1
 394 74 l 5,15,-1
 494 74 l 5,16,-1
 494 366 l 5,17,-1
 164 366 l 13,3,-1
EndSplineSet
EndChar

StartChar: five
Encoding: 53 53 21
Width: 1182
GlyphClass: 2
Flags: W
LayerCount: 4
Back
SplineSet
948 1428 m 5,0,-1
 954 1272 l 6,1,2
 954 1208 954 1208 934 1141 c 132,-1,3
 914.0005 1073.995 914.0005 1073.995 879 1035 c 4,4,5
 817.0005 966 817.0005 966 698 966 c 4,6,7
 612.9995 966 612.9995 966 495 1026 c 4,8,9
 470.974255833 1038.01287208 470.974255833 1038.01287208 416.5 1055 c 132,-1,10
 362.1106 1071.96066667 362.1106 1071.96066667 357 1074 c 5,11,-1
 320 702 l 5,12,13
 398 754.0005 398 754.0005 471 778 c 132,-1,14
 544.0005 802 544.0005 802 629 802 c 132,-1,15
 714.0005 802 714.0005 802 778 780 c 132,-1,16
 842.0005 757.9995 842.0005 757.9995 889 709 c 4,17,18
 986.0005 608.0005 986.0005 608.0005 986 402 c 4,19,20
 986 52.9995 986 52.9995 730 -16 c 4,21,22
 647.9995 -38.00005 647.9995 -38.00005 555 -38 c 132,-1,23
 462 -38 462 -38 393 -24 c 132,-1,24
 324 -10.00005 324 -10.00005 274 25 c 4,25,26
 167.9995 98.99995 167.9995 98.99995 168 270 c 4,27,28
 168 421.0005 168 421.0005 281 479 c 4,29,30
 314 495.9995 314 495.9995 350 496 c 4,31,32
 426.9995 496 426.9995 496 481 433 c 4,33,34
 533.9995 371.9995 533.9995 371.9995 534 270 c 4,35,36
 534 195 534 195 508 144 c 4,37,38
 469 67.99995 469 67.99995 408 36 c 5,39,40
 457.9995 25.99995 457.9995 25.99995 488 26 c 132,-1,41
 518 26 518 26 546 45 c 132,-1,42
 574.0005 64.00005 574.0005 64.00005 594 102 c 4,43,44
 637.9995 186 637.9995 186 638 334 c 4,45,46
 638 644.0005 638 644.0005 444 644 c 4,47,48
 364.9995 644 364.9995 644 270 582 c 5,49,-1
 244 638 l 5,50,-1
 302 1418 l 5,51,52
 353 1416.005 353 1416.005 405.5 1404.5 c 132,-1,53
 457.904718693 1393.01588022 457.904718693 1393.01588022 476 1390 c 6,54,-1
 569 1374.5 l 6,55,56
 644 1362.005 644 1362.005 698 1362 c 4,57,58
 831.0005 1362 831.0005 1362 914 1428 c 5,59,-1
 948 1428 l 5,0,-1
EndSplineSet
Fore
SplineSet
596 701 m 1,0,1
 613 690 613 690 628 676 c 1,2,-1
 661 701 l 1,3,4
 644 702 644 702 628 702 c 128,-1,5
 612 702 612 702 596 701 c 1,0,1
328 109 m 0,6,7
 345 116 345 116 360 124 c 128,-1,8
 375 132 375 132 387 143 c 0,9,10
 401 157 401 157 413 179 c 1,11,-1
 324 113 l 1,12,13
 326 111 326 111 328 109 c 0,6,7
914 1428 m 1,14,-1
 948 1428 l 1,15,-1
 954 1272 l 2,16,17
 954 1208 954 1208 934 1141 c 0,18,19
 930 1129 930 1129 926 1118 c 0,20,21
 913 1081 913 1081 894 1054 c 0,22,23
 833 966 833 966 715 966 c 0,24,25
 711 966 711 966 707 966 c 128,-1,26
 703 966 703 966 698 966 c 0,27,28
 613 966 613 966 495 1026 c 0,29,30
 471 1038 471 1038 416.5 1055 c 128,-1,31
 362 1072 362 1072 357 1074 c 1,32,-1
 320 702 l 1,33,34
 398 754 398 754 471 778 c 128,-1,35
 544 802 544 802 629 802 c 128,-1,36
 714 802 714 802 778 780 c 0,37,38
 805 771 805 771 829 757 c 0,39,40
 986 668 986 668 986 402 c 0,41,42
 986 53 986 53 730 -16 c 0,43,44
 682 -29 682 -29 630 -34 c 0,45,46
 593 -38 593 -38 555 -38 c 0,47,48
 462 -38 462 -38 393 -24 c 128,-1,49
 324 -10 324 -10 274 25 c 0,50,51
 273 26 273 26 272 27 c 0,52,53
 269 28 269 28 266 30 c 0,54,55
 168 98 168 98 168 260 c 0,56,57
 168 262 168 262 168 265 c 128,-1,58
 168 268 168 268 168 270 c 0,59,60
 168 421 168 421 281 479 c 0,61,62
 314 496 314 496 350 496 c 0,63,64
 427 496 427 496 480.5 434 c 128,-1,65
 534 372 534 372 534 284 c 0,66,67
 534 280 534 280 534 277 c 128,-1,68
 534 274 534 274 534 270 c 0,69,70
 534 199 534 199 511 150 c 0,71,72
 482 79 482 79 416 41 c 0,73,74
 412 39 412 39 408 36 c 1,75,76
 458 26 458 26 488 26 c 128,-1,77
 518 26 518 26 546 45 c 0,78,79
 553 50 553 50 560 56 c 0,80,81
 580 75 580 75 596 106 c 0,82,83
 597 107 597 107 597 108 c 0,84,85
 638 191 638 191 638 334 c 0,86,87
 638 644 638 644 444 644 c 0,88,89
 365 644 365 644 270 582 c 1,90,-1
 244 638 l 1,91,-1
 302 1418 l 1,92,93
 353 1416 353 1416 405.5 1404.5 c 128,-1,94
 458 1393 458 1393 476 1390 c 2,95,-1
 569 1374 l 2,96,97
 644 1362 644 1362 698 1362 c 0,98,99
 831 1362 831 1362 914 1428 c 1,14,-1
669 628 m 1,100,101
 675 620 675 620 680 611 c 1,102,-1
 767 676 l 1,103,104
 757 681 757 681 745 685 c 0,105,106
 745 685 745 685 669 628 c 1,100,101
737 688 m 1,107,108
 708 697 708 697 671 700 c 1,109,-1
 633 671 l 1,110,111
 650 654 650 654 665 634 c 1,112,-1
 737 688 l 1,107,108
808 648 m 2,113,-1
 701 567 l 1,114,115
 706 554 706 554 710 541 c 0,116,117
 712 535 712 535 714 528 c 1,118,-1
 835 618 l 1,119,120
 825 632 825 632 814 643 c 0,121,122
 811 645 811 645 808 648 c 2,113,-1
803 653 m 1,123,124
 790 664 790 664 775 672 c 1,125,-1
 683 604 l 1,126,127
 691 589 691 589 698 574 c 1,128,-1
 803 653 l 1,123,124
886 430 m 1,129,130
 863 413 863 413 836 393 c 2,131,-1
 738 325 l 1,132,133
 738 300 738 300 736 276 c 1,134,135
 827 342 827 342 886 384 c 1,136,137
 886 430 886 430 886 430 c 1,129,130
875 519 m 1,138,-1
 734 416 l 1,139,140
 737 377 737 377 738 334 c 1,141,-1
 832 399 l 1,142,-1
 885 438 l 1,143,144
 883 482 883 482 875 519 c 1,138,-1
873 527 m 1,145,146
 867 551 867 551 859 572 c 1,147,-1
 790 516 l 1,148,-1
 728 465 l 1,149,150
 731 445 731 445 734 424 c 1,151,-1
 873 527 l 1,145,146
839 611 m 1,152,-1
 717 520 l 1,153,154
 723 498 723 498 727 474 c 1,155,-1
 784 522 l 1,156,-1
 856 580 l 1,157,158
 848 596 848 596 839 611 c 1,152,-1
810 141 m 1,159,-1
 755 100 l 1,160,161
 785 115 785 115 807 137 c 0,162,163
 808 139 808 139 810 141 c 1,159,-1
828 163 m 1,164,165
 846 189 846 189 859 221 c 1,166,-1
 705 107 l 1,167,168
 700 92 700 92 693 78 c 1,169,170
 710 82 710 82 726 88 c 1,171,-1
 828 163 l 1,164,165
863 234 m 1,172,173
 876 273 876 273 882 320 c 1,174,-1
 729 208 l 1,175,176
 722 160 722 160 709 119 c 1,177,-1
 863 234 l 1,172,173
883 330 m 1,178,179
 885 351 885 351 886 374 c 1,180,181
 805 316 805 316 736 266 c 1,182,183
 734 241 734 241 731 219 c 1,184,-1
 883 330 l 1,178,179
318 117 m 2,185,-1
 421 193 l 1,186,187
 431 214 431 214 433 246 c 1,188,-1
 300 157 l 1,189,-1
 292 151 l 1,190,191
 301 134 301 134 314 121 c 0,192,193
 316 119 316 119 318 117 c 2,185,-1
268 250 m 1,194,-1
 412 359 l 1,195,196
 409 364 409 364 405 368 c 0,197,198
 396 378 396 378 388 384 c 1,199,-1
 269 294 l 1,200,201
 268 282 268 282 268 270 c 0,202,203
 268 260 268 260 268 250 c 1,194,-1
277 192 m 1,204,205
 282 173 282 173 289 158 c 1,206,207
 293 161 293 161 296 163 c 2,208,-1
 434 256 l 1,209,210
 434 263 434 263 434 270 c 0,211,212
 434 290 434 290 431 307 c 1,213,-1
 277 192 l 1,204,205
269 241 m 1,214,215
 271 218 271 218 275 199 c 1,216,-1
 430 315 l 1,217,218
 426 336 426 336 416 352 c 1,219,-1
 269 241 l 1,214,215
286 354 m 1,220,221
 274 334 274 334 270 304 c 1,222,-1
 382 388 l 1,223,224
 380 389 380 389 379 390 c 0,225,226
 366 396 366 396 352 396 c 0,227,228
 349 396 349 396 345 396 c 2,229,-1
 286 354 l 1,220,221
320 387 m 1,230,231
 312 382 312 382 305 376 c 1,232,-1
 320 387 l 1,230,231
675 1068 m 1,233,234
 687 1066 687 1066 698 1066 c 0,235,236
 726 1066 726 1066 748 1071 c 1,237,-1
 820 1124 l 1,238,239
 831 1144 831 1144 839 1173 c 0,240,241
 850 1209 850 1209 853 1244 c 1,242,-1
 772 1163 l 2,243,244
 723 1114 723 1114 675 1068 c 1,233,234
586 1094 m 1,245,246
 629 1076 629 1076 663 1069 c 1,247,-1
 766 1169 l 1,248,-1
 854 1257 l 1,249,250
 854 1264 854 1264 854 1270 c 2,251,-1
 853 1285 l 1,252,253
 815 1273 815 1273 774 1267 c 1,254,255
 760 1252 760 1252 756 1248 c 2,256,-1
 586 1094 l 1,245,246
578 1097 m 1,257,-1
 751 1254 l 1,258,-1
 761 1265 l 1,259,260
 731 1262 731 1262 698 1262 c 0,261,262
 682 1262 682 1262 666 1263 c 1,263,264
 582 1181 582 1181 522 1124 c 1,265,266
 532 1120 532 1120 540 1115 c 0,267,268
 560 1105 560 1105 578 1097 c 1,257,-1
453 1148 m 1,269,-1
 592 1270 l 1,270,271
 573 1273 573 1273 552 1276 c 2,272,-1
 517 1282 l 1,273,274
 497 1262 497 1262 496 1261 c 2,275,-1
 385 1182 l 1,276,-1
 384 1171 l 1,277,278
 384 1171 384 1171 453 1148 c 1,269,-1
462 1146 m 1,279,280
 490 1137 490 1137 512 1128 c 1,281,-1
 654 1264 l 1,282,283
 630 1266 630 1266 603 1269 c 1,284,-1
 462 1146 l 1,279,280
390 1258 m 1,285,-1
 425 1298 l 1,286,287
 411 1301 411 1301 394 1305 c 1,288,-1
 390 1258 l 1,285,-1
385 1192 m 1,289,-1
 491 1267 l 1,290,-1
 507 1283 l 1,291,-1
 459 1291 l 2,292,293
 450 1293 450 1293 434 1296 c 1,294,-1
 389 1246 l 1,295,-1
 385 1192 l 1,289,-1
808 1106 m 1,296,-1
 771 1078 l 1,297,298
 791 1087 791 1087 805 1102 c 0,299,300
 806 1104 806 1104 808 1106 c 1,296,-1
EndSplineSet
Validated: 3073
Layer: 3
SplineSet
250 639 m 13,0,-1
 308 1412 l 5,1,2
 355 1409 355 1409 357 1409 c 4,3,-1
 475 1384 l 6,4,-1
 568 1369 l 6,5,6
 649 1356 649 1356 698 1356 c 4,7,8
 832 1356 832 1356 916 1422 c 5,9,-1
 942 1422 l 5,10,-1
 948 1272 l 4,11,12
 948 1213 948 1213 928 1143 c 4,13,14
 908 1077 908 1077 875 1039 c 4,15,16
 814 972 814 972 698 972 c 4,17,18
 615 972 615 972 498 1031 c 4,19,20
 472 1044 472 1044 418 1061 c 4,21,22
 364 1077 364 1077 359 1080 c 6,23,-1
 352 1083 l 5,24,-1
 313 690 l 5,25,-1
 323 697 l 6,26,27
 395 746 395 746 473 772 c 4,28,29
 545 796 545 796 629 796 c 132,-1,30
 713 796 713 796 774 775 c 132,-1,31
 835 754 835 754 880 709 c 4,32,33
 980 610 980 610 980 402 c 4,34,35
 980 177 980 177 873 70 c 4,36,37
 816 13 816 13 731.5 -9.5 c 132,-1,38
 647 -32 647 -32 555 -32 c 132,-1,39
 463 -32 463 -32 394.5 -18 c 132,-1,40
 326 -4 326 -4 277 30 c 4,41,42
 174 102 174 102 174 270 c 4,43,44
 174 378 174 378 233 437 c 4,45,46
 254 459 254 459 284.5 474.5 c 132,-1,47
 315 490 315 490 350 490 c 4,48,49
 424 490 424 490 476 429 c 4,50,51
 528 370 528 370 528 270 c 4,52,53
 528 197 528 197 503 147 c 4,54,55
 466 73 466 73 405 41 c 6,56,-1
 390 33 l 5,57,-1
 407 30 l 6,58,59
 464 20 464 20 488 20 c 4,60,61
 520 20 520 20 549 40 c 132,-1,62
 578 60 578 60 599 99 c 4,63,64
 644 183 644 183 644 334 c 4,65,66
 644 650 644 650 443 650 c 4,67,68
 376 650 376 650 285 598 c 4,0,0
 279 595 279 595 273 591 c 5,1,-1
 250 639 l 13,0,-1
EndSplineSet
EndChar

StartChar: six
Encoding: 54 54 22
Width: 1224
GlyphClass: 2
Flags: W
LayerCount: 4
Back
SplineSet
198 670 m 132,-1,1
 198 776 198 776 207 876 c 132,-1,2
 216 976 216 976 235 1063 c 132,-1,3
 254 1150 254 1150 287 1222 c 132,-1,4
 320 1294 320 1294 370 1346 c 132,-1,5
 420 1398 420 1398 488 1426 c 132,-1,6
 556 1454 556 1454 646 1454 c 4,7,8
 732 1454 732 1454 796 1434 c 132,-1,9
 860 1414 860 1414 904 1377 c 132,-1,10
 948 1340 948 1340 972 1288 c 132,-1,11
 996 1236 996 1236 996 1176 c 4,12,13
 996 1126 996 1126 983 1088 c 132,-1,14
 970 1050 970 1050 949 1024 c 132,-1,15
 928 998 928 998 897 984 c 132,-1,16
 866 970 866 970 832 970 c 260,17,18
 796 970 796 970 765 984 c 132,-1,19
 734 998 734 998 710 1024 c 132,-1,20
 686 1050 686 1050 674 1088 c 132,-1,21
 662 1126 662 1126 662 1176 c 4,22,23
 662 1256 662 1256 693 1303 c 132,-1,24
 724 1350 724 1350 784 1366 c 5,25,26
 770 1370 770 1370 753 1372 c 132,-1,27
 736 1374 736 1374 722 1374 c 4,28,29
 670 1374 670 1374 638 1349 c 132,-1,30
 606 1324 606 1324 589 1260 c 132,-1,31
 572 1196 572 1196 566 1092 c 132,-1,32
 560 988 560 988 558 832 c 5,33,34
 578 846 578 846 602 860 c 132,-1,35
 626 874 626 874 653 886 c 132,-1,36
 680 898 680 898 708 905 c 132,-1,37
 736 912 736 912 762 912 c 4,38,39
 824 912 824 912 875 880 c 132,-1,40
 926 848 926 848 961 792 c 132,-1,41
 996 736 996 736 1015 658 c 132,-1,42
 1034 580 1034 580 1034 486 c 4,43,44
 1034 424 1034 424 1027 362 c 132,-1,45
 1020 300 1020 300 1002 241 c 132,-1,46
 984 182 984 182 955 132 c 132,-1,47
 926 82 926 82 883 44 c 132,-1,48
 840 6 840 6 781 -16 c 132,-1,49
 722 -38 722 -38 648 -38 c 4,50,51
 562 -38 562 -38 495 -15 c 132,-1,52
 428 8 428 8 379 51 c 132,-1,53
 330 94 330 94 295 156 c 132,-1,54
 260 218 260 218 239 296 c 132,-1,55
 218 374 218 374 208 469 c 132,-1,56
 198 564 198 564 198 670 c 132,-1,1
636 40 m 4,57,58
 652 40 652 40 669 53 c 132,-1,59
 686 66 686 66 699 102 c 132,-1,60
 712 138 712 138 720 199 c 132,-1,61
 728 260 728 260 728 358 c 4,62,63
 728 452 728 452 722 523 c 132,-1,64
 716 594 716 594 702 640 c 132,-1,65
 688 686 688 686 666 709 c 132,-1,66
 644 732 644 732 612 732 c 4,67,68
 586 732 586 732 558 718 c 5,69,-1
 558 698 l 6,70,71
 558 536 558 536 559 413 c 132,-1,72
 560 290 560 290 568 207 c 132,-1,73
 576 124 576 124 592 82 c 132,-1,74
 608 40 608 40 636 40 c 4,57,58
EndSplineSet
Fore
SplineSet
208 469 m 128,-1,1
 198 564 198 564 198 670 c 128,-1,2
 198 776 198 776 207 876 c 128,-1,3
 216 976 216 976 235 1063 c 128,-1,4
 254 1150 254 1150 287 1222 c 128,-1,5
 320 1294 320 1294 370 1346 c 0,6,7
 377 1353 377 1353 383 1359 c 0,8,9
 419 1392 419 1392 462 1414 c 0,10,11
 475 1420 475 1420 488 1426 c 0,12,13
 556 1454 556 1454 646 1454 c 0,14,15
 887 1454 887 1454 967 1298 c 0,16,17
 970 1293 970 1293 972 1288 c 0,18,19
 996 1236 996 1236 996 1181 c 0,20,21
 996 1180 996 1180 996 1178 c 0,22,23
 996 1177 996 1177 996 1176 c 0,24,25
 996 1126 996 1126 983 1088 c 128,-1,26
 970 1050 970 1050 949 1024 c 0,27,28
 946 1021 946 1021 943 1017 c 0,29,30
 900 970 900 970 832 970 c 128,-1,31
 764 970 764 970 715 1019 c 0,32,33
 712 1022 712 1022 710 1024 c 0,34,35
 686 1050 686 1050 674 1088 c 128,-1,36
 662 1126 662 1126 662 1176 c 0,37,38
 662 1256 662 1256 693 1303 c 128,-1,39
 724 1350 724 1350 784 1366 c 1,40,41
 758 1373 758 1373 718 1374 c 0,42,43
 669 1373 669 1373 638 1349 c 0,44,45
 606 1324 606 1324 589 1260 c 0,46,47
 564 1166 564 1166 559 878 c 0,48,49
 559 856 559 856 558 832 c 1,50,51
 672 912 672 912 748 912 c 0,52,53
 752 912 752 912 756 912 c 0,54,55
 759 912 759 912 762 912 c 0,56,57
 824 912 824 912 875 880 c 128,-1,58
 926 848 926 848 961 792 c 0,59,60
 963 789 963 789 964 787 c 0,61,62
 1034 671 1034 671 1034 486 c 0,63,64
 1034 78 1034 78 781 -16 c 0,65,66
 722 -38 722 -38 648 -38 c 0,67,68
 646 -38 646 -38 644.5 -38 c 128,-1,69
 643 -38 643 -38 642 -38 c 0,70,71
 562 -38 562 -38 495 -15 c 128,-1,72
 428 8 428 8 379 51 c 128,-1,73
 330 94 330 94 295 156 c 128,-1,74
 260 218 260 218 239 296 c 128,-1,0
 218 374 218 374 208 469 c 128,-1,1
565 240 m 0,75,76
 566 223 566 223 568 207 c 0,77,78
 585 40 585 40 636 40 c 0,79,80
 652 40 652 40 669 53 c 0,81,82
 672 55 672 55 674 58 c 0,83,84
 681 65 681 65 687 75 c 0,85,86
 693 86 693 86 699 102 c 0,87,88
 712 138 712 138 720 199 c 0,89,90
 721 205 721 205 721 211 c 0,91,92
 728 273 728 273 728 358 c 0,93,94
 728 452 728 452 722 523 c 0,95,96
 716 589 716 589 704 633 c 0,97,98
 686 688 686 688 666 709 c 0,99,100
 644 732 644 732 613 732 c 0,101,102
 585 732 585 732 558 718 c 1,103,-1
 558 698 l 2,104,105
 558 352 558 352 565 240 c 0,75,76
872 1263 m 1,106,-1
 772 1163 l 2,107,108
 767 1158 767 1158 763 1154 c 1,109,110
 764 1135 764 1135 768 1121 c 0,111,112
 773 1104 773 1104 781 1095 c 1,113,-1
 847 1144 l 1,114,-1
 896 1186 l 1,115,116
 894 1228 894 1228 872 1263 c 1,106,-1
867 1270 m 2,117,118
 867 1271 867 1271 866 1272 c 0,119,120
 837 1277 837 1277 810 1269 c 0,121,122
 787 1263 787 1263 777 1248 c 0,123,124
 762 1226 762 1226 762 1176 c 0,125,126
 762 1170 762 1170 762 1165 c 1,127,-1
 766 1169 l 1,128,-1
 867 1270 l 2,117,118
896 1175 m 1,129,130
 861 1145 861 1145 851 1138 c 2,131,-1
 786 1089 l 1,132,133
 806 1070 806 1070 832 1070 c 0,134,135
 840 1070 840 1070 847 1072 c 2,136,-1
 878 1097 l 2,137,138
 883 1106 883 1106 888 1119 c 0,139,140
 896 1141 896 1141 896 1175 c 1,129,130
333 1042 m 1,141,-1
 471 1164 l 1,142,143
 476 1213 476 1213 485 1253 c 1,144,-1
 376 1176 l 1,145,146
 349 1115 349 1115 333 1042 c 1,141,-1
382 1189 m 1,147,-1
 487 1264 l 1,148,149
 494 1297 494 1297 504 1323 c 1,150,151
 428 1283 428 1283 382 1189 c 1,147,-1
470 1153 m 1,152,-1
 330 1030 l 1,153,154
 322 991 322 991 316 950 c 1,155,156
 343 972 343 972 371 994 c 2,157,-1
 465 1084 l 1,158,159
 465 1091 465 1091 466 1098 c 0,160,161
 468 1127 468 1127 470 1153 c 1,152,-1
462 1005 m 1,162,163
 463 1039 463 1039 465 1069 c 1,164,165
 395 1003 395 1003 376 988 c 2,166,-1
 315 939 l 1,167,168
 308 890 308 890 304 837 c 1,169,170
 313 843 313 843 321 849 c 2,171,-1
 436 979 l 2,172,173
 447 991 447 991 462 1005 c 1,162,163
459 883 m 1,174,-1
 356 803 l 1,175,-1
 300 767 l 1,176,177
 298 721 298 721 298 672 c 1,178,-1
 402 759 l 1,179,-1
 458 798 l 1,180,181
 458 842 458 842 459 883 c 1,174,-1
457 694 m 1,182,183
 457 743 457 743 458 789 c 1,184,-1
 406 753 l 1,185,-1
 298 663 l 1,186,187
 298 622 298 622 300 584 c 1,188,-1
 457 694 l 1,182,183
461 989 m 1,189,-1
 442 973 l 1,190,-1
 356 876 l 2,191,192
 329 845 329 845 326 843 c 2,193,-1
 303 828 l 1,194,195
 301 802 301 802 300 776 c 1,196,-1
 352 809 l 1,197,198
 405 851 405 851 459 892 c 1,199,200
 459 944 459 944 461 989 c 1,189,-1
458 546 m 1,201,-1
 366 483 l 1,202,-1
 312 442 l 1,203,204
 316 413 316 413 321 387 c 1,205,-1
 459 485 l 1,206,207
 459 513 459 513 458 542 c 0,208,209
 458 544 458 544 458 546 c 1,201,-1
457 614 m 1,210,-1
 436 598 l 1,211,-1
 305 507 l 1,212,213
 308 478 308 478 311 451 c 1,214,-1
 362 489 l 1,215,-1
 458 555 l 1,216,217
 457 585 457 585 457 614 c 1,210,-1
457 685 m 1,218,219
 392 640 392 640 300 576 c 1,220,221
 301 545 301 545 304 515 c 1,222,-1
 432 604 l 2,223,224
 445 614 445 614 457 624 c 1,225,226
 457 655 457 655 457 685 c 1,218,219
459 446 m 1,227,228
 459 461 459 461 459 476 c 1,229,-1
 322 379 l 1,230,231
 325 363 325 363 329 348 c 1,232,-1
 459 446 l 1,227,228
459 437 m 1,233,-1
 331 341 l 1,234,235
 336 322 336 322 341 304 c 1,236,-1
 459 394 l 1,237,238
 459 402 459 402 459 410 c 0,239,240
 459 424 459 424 459 437 c 1,233,-1
467 218 m 1,241,-1
 404 171 l 1,242,243
 422 146 422 146 443 127 c 1,244,-1
 474 149 l 1,245,246
 471 170 471 170 469 193 c 0,247,248
 468 205 468 205 467 218 c 1,241,-1
463 267 m 1,249,-1
 379 211 l 2,250,251
 380 208 380 208 382 205 c 0,252,253
 390 190 390 190 399 178 c 1,254,-1
 466 227 l 1,255,256
 464 246 464 246 463 267 c 1,249,-1
461 329 m 1,257,-1
 359 253 l 1,258,259
 367 234 367 234 376 217 c 1,260,-1
 463 275 l 1,261,262
 462 301 462 301 461 329 c 1,257,-1
459 385 m 1,263,-1
 343 297 l 1,264,265
 349 278 349 278 356 260 c 1,266,-1
 460 338 l 1,267,268
 459 361 459 361 459 385 c 1,263,-1
475 141 m 1,269,-1
 449 123 l 1,270,271
 465 110 465 110 483 99 c 1,272,273
 478 119 478 119 475 141 c 1,269,-1
798 807 m 1,274,275
 781 812 781 812 762 812 c 0,276,277
 739 812 739 812 711 802 c 1,278,279
 731 788 731 788 747 768 c 1,280,-1
 798 807 l 1,274,275
806 803 m 1,281,-1
 752 762 l 1,282,283
 766 743 766 743 778 720 c 1,284,-1
 817 749 l 1,285,-1
 849 774 l 1,286,287
 837 786 837 786 822 795 c 0,288,289
 814 800 814 800 806 803 c 1,281,-1
909 664 m 1,290,-1
 814 593 l 1,291,292
 817 573 817 573 820 551 c 1,293,-1
 919 630 l 2,294,295
 919 631 919 631 918 632 c 0,296,297
 914 649 914 649 909 664 c 1,290,-1
907 671 m 1,298,299
 900 692 900 692 892 711 c 1,300,-1
 804 645 l 1,301,302
 809 624 809 624 813 601 c 1,303,-1
 907 671 l 1,298,299
888 717 m 1,304,305
 880 732 880 732 872 745 c 1,306,-1
 792 685 l 1,307,308
 795 677 795 677 797.5 669 c 128,-1,309
 800 661 800 661 802 652 c 1,310,-1
 888 717 l 1,304,305
868 751 m 1,311,312
 861 760 861 760 854 769 c 1,313,-1
 821 743 l 2,314,315
 803 729 803 729 781 713 c 1,316,317
 785 703 785 703 789 693 c 1,318,-1
 868 751 l 1,311,312
930 569 m 1,319,320
 927 597 927 597 921 622 c 1,321,-1
 821 541 l 2,322,323
 821 538 821 538 821 535 c 0,324,325
 823 514 823 514 824 491 c 1,326,-1
 930 569 l 1,319,320
930 560 m 1,327,-1
 825 483 l 1,328,329
 827 443 827 443 828 398 c 1,330,-1
 934 476 l 1,331,332
 934 481 934 481 934 486 c 0,333,334
 934 525 934 525 930 560 c 1,327,-1
932 418 m 1,335,336
 934 441 934 441 934 466 c 1,337,-1
 828 390 l 1,338,339
 828 373 828 373 828 355 c 0,340,341
 828 349 828 349 828 343 c 1,342,343
 893 390 893 390 932 418 c 1,335,336
925 353 m 1,344,-1
 826 280 l 1,345,346
 824 239 824 239 821 202 c 1,347,-1
 905 265 l 2,348,349
 906 268 906 268 907 271 c 0,350,351
 918 309 918 309 925 353 c 1,344,-1
926 363 m 1,352,353
 929 384 929 384 931 407 c 1,354,355
 877 368 877 368 828 332 c 1,356,357
 828 310 828 310 827 289 c 1,358,-1
 926 363 l 1,352,353
878 200 m 1,359,360
 891 225 891 225 900 252 c 1,361,-1
 820 193 l 1,362,363
 818 172 818 172 814 153 c 1,364,-1
 878 200 l 1,359,360
870 185 m 1,365,-1
 812 142 l 1,366,367
 809 125 809 125 805 110 c 1,368,369
 843 138 843 138 868 182 c 0,370,371
 869 184 869 184 870 185 c 1,365,-1
EndSplineSet
Validated: 3073
Layer: 3
SplineSet
637 34 m 4,0,1
 655 34 655 34 673 48 c 132,-1,2
 691 62 691 62 705 100 c 4,3,4
 734 181 734 181 734 356 c 4,5,6
 734 453 734 453 728 524 c 4,7,8
 716 666 716 666 670 714 c 4,9,10
 647 738 647 738 612 738 c 4,11,12
 585 738 585 738 552 722 c 5,13,-1
 552 718 l 5,14,-1
 552 698 l 6,15,16
 552 536 552 536 553 413 c 4,17,18
 555 162 555 162 586 80 c 4,19,20
 604 34 604 34 637 34 c 4,0,1
245 298 m 4,21,22
 204 450 204 450 204 671.5 c 132,-1,23
 204 893 204 893 241 1062 c 4,24,25
 280 1245 280 1245 374 1342 c 4,26,27
 424 1393 424 1393 492 1421 c 4,28,29
 557 1448 557 1448 646 1448 c 4,30,31
 810 1448 810 1448 900 1372 c 4,32,33
 943 1336 943 1336 966.5 1285.5 c 132,-1,34
 990 1235 990 1235 990 1176 c 4,35,36
 990 1127 990 1127 977.5 1090 c 132,-1,37
 965 1053 965 1053 944.5 1028 c 132,-1,38
 924 1003 924 1003 894.5 989.5 c 132,-1,39
 865 976 865 976 831 976 c 132,-1,40
 797 976 797 976 768.5 989 c 132,-1,41
 740 1002 740 1002 719 1023 c 4,42,43
 668 1074 668 1074 668 1176 c 4,44,45
 668 1329 668 1329 786 1360 c 6,46,-1
 807 1366 l 5,47,-1
 786 1372 l 6,48,49
 757 1380 757 1380 722 1380 c 4,50,51
 668 1380 668 1380 634 1354 c 132,-1,52
 600 1328 600 1328 582 1258 c 4,53,54
 566 1197 566 1197 560 1092.5 c 132,-1,55
 554 988 554 988 552 820 c 5,56,57
 581 841 581 841 605 855 c 4,58,59
 693 906 693 906 762 906 c 4,60,61
 822 906 822 906 872 875 c 4,62,63
 971 812 971 812 1009 656 c 4,64,65
 1028 579 1028 579 1028 486 c 4,66,67
 1028 347 1028 347 996 243 c 4,68,69
 962 130 962 130 895 63 c 4,70,71
 846 15 846 15 779 -10 c 4,72,73
 721 -32 721 -32 648 -32 c 4,74,75
 483 -32 483 -32 383 56 c 4,76,77
 288 140 288 140 245 298 c 4,21,22
EndSplineSet
EndChar

StartChar: seven
Encoding: 55 55 23
Width: 1134
GlyphClass: 2
Flags: W
LayerCount: 4
Back
SplineSet
822 1152 m 4,0,1
 784 1118 784 1118 729 1088 c 132,-1,2
 673.9995 1058 673.9995 1058 617 1050 c 4,3,4
 564 1043 564 1043 551 1043 c 4,5,6
 550 1044 550 1044 549 1044 c 4,7,8
 538 1044 538 1044 521 1045 c 132,-1,9
 504 1046 504 1046 458 1046 c 132,-1,10
 412 1046 412 1046 412 1050 c 4,11,12
 412 1052 412 1052 368 1055 c 132,-1,13
 324.0005 1058 324.0005 1058 294 1058 c 4,14,15
 280.0005 1058 280.0005 1058 270 1026 c 4,16,17
 259.798010712 993.360367253 259.798010712 993.360367253 251 965.5 c 4,18,19
 242 937 242 937 242 838 c 5,20,-1
 200 838 l 5,21,-1
 200 1442 l 5,22,-1
 246 1442 l 5,23,-1
 246 1360 l 5,24,25
 319.9995 1448.005 319.9995 1448.005 433 1448 c 4,26,27
 479.9995 1448 479.9995 1448 589.5 1411 c 132,-1,28
 699 1373.995 699 1373.995 754 1374 c 4,29,30
 842.9995 1374 842.9995 1374 912 1454 c 5,31,-1
 964 1454 l 5,32,-1
 964 1178 l 6,33,34
 964 1164.005 964 1164.005 924 1056 c 4,35,36
 883.9995 949.9995 883.9995 949.9995 862 886 c 132,-1,37
 839.9995 821.9995 839.9995 821.9995 816 753 c 4,38,39
 694.0005 400.9995 694.0005 400.9995 694 244 c 4,40,41
 694 -38 694 -38 530 -38 c 4,42,43
 450.0005 -38 450.0005 -38 402 39 c 132,-1,44
 354 115.99995 354 115.99995 354 212 c 132,-1,45
 354 308 354 308 370 371 c 132,-1,46
 386.0005 434 386.0005 434 420 507 c 132,-1,47
 454.0005 580.0005 454.0005 580.0005 517 662 c 132,-1,48
 580 744.0005 580 744.0005 702.5 874 c 132,-1,49
 825.0005 1004.0005 825.0005 1004.0005 858 1089 c 4,50,51
 880.0005 1146 880.0005 1146 880 1167 c 4,52,53
 880 1178 880 1178 875 1180 c 4,54,55
 873.0005 1181.005 873.0005 1181.005 870 1180 c 4,56,57
 853.9995 1181.005 853.9995 1181.005 822 1152 c 4,0,1
EndSplineSet
Fore
SplineSet
870 1180 m 0,0,1
 854 1181 854 1181 822 1152 c 0,2,3
 811 1142 811 1142 799 1133 c 0,4,5
 688 1044 688 1044 551 1043 c 0,6,7
 550 1044 550 1044 481 1044 c 0,8,9
 429 1044 429 1044 416 1048 c 0,10,11
 412 1049 412 1049 412 1050 c 0,12,13
 412 1052 412 1052 368 1055 c 128,-1,14
 324 1058 324 1058 294 1058 c 0,15,16
 280 1058 280 1058 270 1026 c 128,-1,17
 260 994 260 994 251 966 c 128,-1,18
 242 938 242 938 242 838 c 1,19,-1
 200 838 l 1,20,-1
 200 1442 l 1,21,-1
 246 1442 l 1,22,-1
 246 1360 l 1,23,24
 320 1448 320 1448 433 1448 c 0,25,26
 480 1448 480 1448 589.5 1411 c 128,-1,27
 699 1374 699 1374 754 1374 c 0,28,29
 843 1374 843 1374 912 1454 c 1,30,-1
 964 1454 l 1,31,-1
 964 1178 l 2,32,33
 964 1164 964 1164 924 1056 c 0,34,35
 884 950 884 950 862 886 c 128,-1,36
 840 822 840 822 816 753 c 0,37,38
 694 401 694 401 694 244 c 0,39,40
 694 -38 694 -38 530 -38 c 0,41,42
 450 -38 450 -38 402 39 c 128,-1,43
 354 116 354 116 354 212 c 128,-1,44
 354 308 354 308 370 371 c 128,-1,45
 386 434 386 434 420 507 c 128,-1,46
 454 580 454 580 517 662 c 128,-1,47
 580 744 580 744 702 874 c 0,48,49
 820 999 820 999 855 1083 c 0,50,51
 871 1124 871 1124 877 1146 c 0,52,53
 880 1158 880 1158 880 1166 c 0,54,55
 880 1183 880 1183 870 1180 c 0,0,1
455 261 m 1,56,57
 454 241 454 241 454 218 c 1,58,-1
 600 325 l 1,59,60
 602 343 602 343 605 364 c 1,61,-1
 597 357 l 1,62,-1
 455 261 l 1,56,57
463 331 m 1,63,64
 458 304 458 304 456 271 c 1,65,-1
 593 363 l 1,66,-1
 607 374 l 1,67,68
 613 407 613 407 621 444 c 0,69,70
 622 446 622 446 622 449 c 1,71,-1
 463 331 l 1,63,64
466 342 m 1,72,-1
 624 461 l 1,73,74
 631 490 631 490 639 520 c 1,75,-1
 485 404 l 1,76,77
 474 374 474 374 467 348 c 0,78,79
 467 345 467 345 466 342 c 1,72,-1
490 417 m 1,80,-1
 642 532 l 1,81,82
 649 557 649 557 657 584 c 1,83,-1
 518 480 l 1,84,85
 514 472 514 472 510 464 c 0,86,87
 499 440 499 440 490 417 c 1,80,-1
556 544 m 1,88,89
 540 520 540 520 527 497 c 1,90,-1
 661 597 l 1,91,92
 666 613 666 613 670 629 c 1,93,94
 636 603 636 603 596 573 c 2,95,-1
 556 544 l 1,88,89
567 562 m 1,96,-1
 592 579 l 1,97,-1
 674 641 l 1,98,99
 686 680 686 680 700 722 c 1,100,-1
 695 718 l 1,101,102
 634 650 634 650 596 601 c 0,103,104
 580 581 580 581 567 562 c 1,96,-1
598 315 m 1,105,-1
 454 209 l 1,106,107
 454 174 454 174 464 142 c 1,108,-1
 594 234 l 2,109,110
 594 238 594 238 594 243 c 0,111,112
 594 276 594 276 598 315 c 1,105,-1
589 161 m 1,113,114
 533 121 533 121 489 89 c 1,115,116
 501 71 501 71 513 65 c 0,117,118
 516 63 516 63 520 63 c 2,119,-1
 576 104 l 2,120,121
 577 107 577 107 578 111 c 0,122,123
 585 133 585 133 589 161 c 1,113,114
594 225 m 1,124,-1
 466 135 l 1,125,126
 473 114 473 114 485 94 c 1,127,128
 541 134 541 134 590 170 c 1,129,130
 593 195 593 195 594 225 c 1,124,-1
571 91 m 1,131,-1
 532 62 l 1,132,133
 550 62 550 62 558 71 c 0,134,135
 565 78 565 78 571 91 c 1,131,-1
337 1157 m 1,136,137
 414 1212 414 1212 491 1267 c 1,138,-1
 545 1321 l 1,139,140
 499 1336 499 1336 473 1341 c 1,141,-1
 381 1236 l 1,142,-1
 300 1183 l 1,143,-1
 300 1158 l 1,144,145
 318 1158 318 1158 337 1157 c 1,136,137
349 1156 m 1,146,147
 358 1156 358 1156 366 1155 c 0,148,149
 416 1152 416 1152 426 1150 c 128,-1,150
 436 1148 436 1148 441 1146 c 0,151,152
 444 1146 444 1146 450 1146 c 1,153,-1
 611 1287 l 1,154,-1
 620 1297 l 1,155,156
 591 1305 591 1305 557 1316 c 0,157,158
 555 1317 555 1317 554 1318 c 0,159,160
 499 1263 499 1263 496 1261 c 2,161,-1
 349 1156 l 1,146,147
300 1191 m 1,162,163
 338 1216 338 1216 376 1242 c 1,164,-1
 464 1343 l 1,165,166
 441 1348 441 1348 433 1348 c 0,167,168
 399 1348 399 1348 376 1337 c 0,169,170
 346 1323 346 1323 323 1296 c 0,171,172
 311 1282 311 1282 300 1267 c 1,173,-1
 300 1191 l 1,162,163
674 1283 m 1,174,175
 652 1287 652 1287 629 1294 c 1,176,-1
 617 1281 l 1,177,-1
 463 1146 l 1,178,179
 463 1146 463 1146 529 1145 c 9,180,-1
 674 1283 l 1,174,175
684 1282 m 1,181,-1
 543 1144 l 1,182,183
 565 1144 565 1144 607 1150 c 0,184,185
 626 1153 626 1153 649 1161 c 1,186,-1
 751 1254 l 1,187,-1
 769 1274 l 1,188,189
 724 1274 724 1274 684 1282 c 1,181,-1
781 1275 m 1,190,191
 761 1252 761 1252 756 1248 c 2,192,-1
 671 1171 l 1,193,194
 715 1190 715 1190 754 1226 c 0,195,196
 782 1251 782 1251 802 1261.5 c 128,-1,197
 822 1272 822 1272 834 1275 c 0,198,199
 849 1279 849 1279 864 1280 c 1,200,-1
 864 1296 l 1,201,202
 824 1279 824 1279 781 1275 c 1,190,191
EndSplineSet
Validated: 2049
Layer: 3
SplineSet
958 1448 m 5,0,-1
 958 1178 l 6,1,2
 958 1165 958 1165 918 1058 c 4,3,4
 878 952 878 952 856 888 c 6,5,-1
 810 755 l 6,6,7
 688 402 688 402 688 244 c 4,8,9
 688 68 688 68 624 4 c 4,10,11
 588 -32 588 -32 530 -32 c 4,12,13
 453 -32 453 -32 407 42 c 4,14,15
 360 118 360 118 360 212.5 c 132,-1,16
 360 307 360 307 376 369.5 c 132,-1,17
 392 432 392 432 425.5 504.5 c 132,-1,18
 459 577 459 577 522 658.5 c 132,-1,19
 585 740 585 740 708 870.5 c 132,-1,20
 831 1001 831 1001 864 1087 c 4,21,22
 886 1145 886 1145 886 1167 c 4,23,24
 886 1178 886 1178 882 1182 c 132,-1,25
 878 1186 878 1186 873 1187 c 4,26,27
 849 1186 849 1186 816 1154 c 4,28,29
 785 1126 785 1126 726 1094 c 4,30,31
 672 1064 672 1064 620 1056 c 4,32,33
 560 1048 560 1048 521 1051 c 4,34,35
 409 1059 409 1059 358 1062 c 4,36,37
 319 1064 319 1064 294 1064 c 4,38,39
 286 1064 286 1064 278.5 1056.5 c 132,-1,40
 271 1049 271 1049 264 1028 c 4,41,42
 264 1027 264 1027 245 967 c 4,43,44
 236 939 236 939 236 844 c 5,45,-1
 206 844 l 5,46,-1
 206 1436 l 5,47,-1
 240 1436 l 5,48,-1
 240 1344 l 5,49,-1
 251 1356 l 6,50,51
 323 1442 323 1442 433 1442 c 4,52,53
 479 1442 479 1442 588.5 1405 c 132,-1,54
 698 1368 698 1368 754 1368 c 4,55,56
 845 1368 845 1368 915 1448 c 5,57,-1
 958 1448 l 5,0,-1
EndSplineSet
EndChar

StartChar: eight
Encoding: 56 56 24
Width: 1196
GlyphClass: 2
Flags: W
LayerCount: 4
Back
SplineSet
178 313 m 4,0,1
 178 425.0005 178 425.0005 231 499 c 4,2,3
 256.0005 533.9995 256.0005 533.9995 318.5 585 c 132,-1,4
 381.0005 636 381.0005 636 419 654 c 5,5,6
 249.9995 856.0005 249.9995 856.0005 230 1033 c 4,7,8
 222.9995 1093 222.9995 1093 228 1125 c 4,9,10
 241.0005 1198.995 241.0005 1198.995 241.75 1202.75 c 4,11,12
 248.998731245 1262.99861041 248.998731245 1262.99861041 312 1332 c 4,13,14
 423 1453.995 423 1453.995 602 1454 c 4,15,16
 852.0005 1454 852.0005 1454 928 1284 c 4,17,18
 953.9995 1225.995 953.9995 1225.995 954 1138 c 4,19,20
 954 985 954 985 793 810 c 5,21,22
 806.0005 810 806.0005 810 847 757.5 c 4,23,24
 884.9995 709.0005 884.9995 709.0005 905.943 684.057 c 4,25,26
 963 613.9995 963 613.9995 982 563 c 4,27,28
 1025.995 441.9995 1025.995 441.9995 1020 387 c 4,29,30
 997.005 154.9995 997.005 154.9995 901 68.5 c 4,31,32
 782.9995 -38 782.9995 -38 560 -38 c 4,33,34
 405.9995 -38 405.9995 -38 302 41 c 4,35,36
 177.9995 135.9995 177.9995 135.9995 178 313 c 4,0,1
668 912 m 5,37,38
 698 958 698 958 728 1034 c 132,-1,39
 758 1110 758 1110 758 1168 c 4,40,41
 758 1368.73 758 1368.73 638 1382 c 4,42,43
 569 1389.995 569 1389.995 516 1322 c 4,44,45
 482 1278 482 1278 477 1249 c 132,-1,46
 472 1220 472 1220 472 1179 c 4,47,48
 472 1113 472 1113 530 1043 c 132,-1,49
 588.0005 972.9995 588.0005 972.9995 668 912 c 5,37,38
440 440 m 5,50,51
 393.9995 378.9995 393.9995 378.9995 394 296 c 6,52,-1
 395 258 l 6,53,54
 396.0005 220.0005 396.0005 220.0005 410 171 c 4,55,56
 438.9995 72 438.9995 72 493 43 c 4,57,58
 521.9995 28 521.9995 28 552 28 c 6,59,-1
 592 28 l 6,60,61
 629.9995 29.99995 629.9995 29.99995 674 61 c 4,62,63
 716 92.00005 716 92.00005 731 124 c 132,-1,64
 746 155.9995 746 155.9995 745 169 c 5,65,66
 739 182.0005 739 182.0005 735 218 c 4,67,68
 720 350 720 350 522 535 c 5,69,-1
 440 440 l 5,50,51
EndSplineSet
Fore
SplineSet
302 41 m 0,0,1
 178 136 178 136 178 313 c 0,2,3
 178 425 178 425 231 499 c 0,4,5
 256 534 256 534 318.5 585 c 128,-1,6
 381 636 381 636 419 654 c 1,7,8
 250 856 250 856 230 1033 c 0,9,10
 226 1068 226 1068 226 1093 c 0,11,12
 226 1111 226 1111 228 1125 c 0,13,14
 229 1130 229 1130 230 1135 c 0,15,16
 233 1167 233 1167 241 1200 c 0,17,18
 241 1202 241 1202 242 1203 c 0,19,20
 249 1263 249 1263 312 1332 c 0,21,22
 423 1454 423 1454 602 1454 c 0,23,24
 852 1454 852 1454 928 1284 c 0,25,26
 954 1226 954 1226 954 1138 c 0,27,28
 954 985 954 985 793 810 c 1,29,30
 806 810 806 810 845.5 760 c 128,-1,31
 885 710 885 710 924 662 c 0,32,33
 935 648 935 648 945 631 c 0,34,35
 970 593 970 593 982 563 c 0,36,37
 989 542 989 542 996 524 c 0,38,39
 1021 455 1021 455 1021 405 c 0,40,41
 1021 395 1021 395 1020 387 c 0,42,43
 997 154 997 154 901 68 c 0,44,45
 783 -38 783 -38 560 -38 c 0,46,47
 406 -38 406 -38 302 41 c 0,0,1
472 1176 m 0,48,49
 473 1112 473 1112 530 1043 c 0,50,51
 588 973 588 973 668 912 c 1,52,53
 698 958 698 958 728 1034 c 128,-1,54
 758 1110 758 1110 758 1168 c 0,55,56
 758 1369 758 1369 638 1382 c 0,57,58
 631 1383 631 1383 623 1383 c 0,59,60
 604 1383 604 1383 587 1377 c 0,61,62
 549 1364 549 1364 516 1322 c 0,63,64
 482 1278 482 1278 477 1249 c 0,65,66
 472 1223 472 1223 472 1176 c 0,48,49
522 535 m 1,67,-1
 440 440 l 1,68,69
 394 379 394 379 394 296 c 2,70,-1
 395 258 l 2,71,72
 396 220 396 220 410 171 c 0,73,74
 439 71 439 71 497 41 c 0,75,76
 524 28 524 28 552 28 c 2,77,-1
 592 28 l 2,78,79
 630 30 630 30 674 61 c 0,80,81
 716 92 716 92 731 124 c 0,82,83
 745 154 745 154 745 167 c 0,84,85
 745 168 745 168 745 169 c 0,86,87
 739 182 739 182 735 218 c 0,88,89
 720 350 720 350 522 535 c 1,67,-1
669 784 m 1,90,91
 658 794 658 794 647 804 c 0,92,93
 640 809 640 809 633 813 c 1,94,-1
 606 793 l 2,95,96
 559 757 559 757 500 715 c 1,97,98
 515 697 515 697 530 679 c 1,99,100
 600 732 600 732 669 784 c 1,90,91
714 742 m 1,101,102
 694 760 694 760 674 779 c 1,103,-1
 535 673 l 1,104,105
 537 671 537 671 539 668 c 2,106,-1
 572 633 l 1,107,-1
 714 742 l 1,101,102
719 737 m 1,108,-1
 577 628 l 1,109,-1
 610 592 l 1,110,-1
 756 703 l 1,111,112
 737 720 737 720 719 737 c 1,108,-1
777 683 m 1,113,114
 769 690 769 690 761 698 c 1,115,116
 700 652 700 652 614 587 c 1,117,-1
 628 572 l 1,118,-1
 777 683 l 1,113,114
633 567 m 1,119,120
 636 564 636 564 656 542 c 1,121,-1
 803 653 l 1,122,-1
 782 678 l 25,123,124
 782 678 782 678 633 567 c 1,119,120
807 648 m 1,125,-1
 661 537 l 1,126,127
 675 522 675 522 688 508 c 1,128,-1
 833 616 l 1,129,130
 831 618 831 618 829 620 c 2,131,-1
 807 648 l 1,125,-1
863 575 m 1,132,-1
 790 516 l 1,133,-1
 726 462 l 1,134,135
 737 447 737 447 747 434 c 1,136,-1
 885 536 l 1,137,138
 878 553 878 553 863 575 c 1,132,-1
888 529 m 1,139,-1
 751 428 l 1,140,141
 751 428 751 428 788 369 c 1,142,-1
 832 399 l 1,143,-1
 911 458 l 1,144,145
 897 503 897 503 888 529 c 1,139,-1
837 610 m 1,146,-1
 693 502 l 1,147,148
 707 485 707 485 720 469 c 1,149,-1
 784 522 l 1,150,-1
 858 582 l 1,151,152
 849 595 849 595 837 610 c 1,146,-1
913 450 m 1,153,154
 878 424 878 424 836 393 c 2,155,-1
 791 362 l 1,156,157
 800 345 800 345 807 327 c 1,158,159
 877 377 877 377 920 408 c 1,160,161
 918 433 918 433 913 450 c 1,153,154
921 400 m 1,162,163
 862 358 862 358 810 320 c 1,164,165
 817 303 817 303 822 286 c 1,166,-1
 920 358 l 1,167,168
 921 373 921 373 921 386 c 0,169,170
 921 393 921 393 921 400 c 1,162,163
919 349 m 1,171,-1
 824 278 l 1,172,173
 831 254 831 254 834 229 c 2,174,-1
 837 214 l 1,175,-1
 897 259 l 1,176,177
 914 308 914 308 919 349 c 1,171,-1
893 247 m 1,178,-1
 838 206 l 1,179,-1
 844 175 l 1,180,-1
 872 196 l 1,181,182
 877 207 877 207 882 219 c 0,183,184
 888 233 888 233 893 247 c 1,178,-1
864 180 m 1,185,-1
 845 166 l 1,186,187
 845 160 845 160 844 153 c 1,188,189
 855 165 855 165 864 180 c 1,185,-1
449 782 m 1,190,191
 470 752 470 752 495 721 c 1,192,-1
 602 799 l 1,193,-1
 627 818 l 1,194,195
 594 842 594 842 563 868 c 1,196,197
 552 853 552 853 551 853 c 2,198,-1
 449 782 l 1,190,191
408 843 m 1,199,200
 424 816 424 816 444 788 c 1,201,-1
 546 859 l 2,202,203
 551 867 551 867 556 874 c 1,204,205
 530 896 530 896 507 920 c 1,206,-1
 408 843 l 1,199,200
377 899 m 1,207,208
 389 875 389 875 404 850 c 1,209,210
 453 888 453 888 501 926 c 1,211,212
 476 952 476 952 453 979 c 0,213,214
 452 980 452 980 452 981 c 2,215,-1
 442 973 l 1,216,-1
 377 899 l 1,207,208
348 966 m 1,217,218
 358 938 358 938 373 907 c 1,219,-1
 436 979 l 2,220,221
 440 984 440 984 445 989 c 1,222,223
 430 1008 430 1008 419 1026 c 1,224,225
 388 997 388 997 376 988 c 2,226,-1
 348 966 l 1,217,218
331 1031 m 1,227,228
 335 1003 335 1003 345 973 c 1,229,230
 358 983 358 983 371 994 c 2,231,-1
 414 1035 l 1,232,233
 400 1059 400 1059 390 1083 c 1,234,-1
 331 1031 l 1,227,228
330 1040 m 1,235,-1
 387 1091 l 1,236,237
 373 1132 373 1132 372 1173 c 1,238,-1
 341 1151 l 1,239,-1
 331 1143 l 1,240,241
 329 1127 329 1127 327 1109 c 0,242,243
 326 1102 326 1102 326 1089 c 0,244,245
 326 1075 326 1075 329 1044 c 0,246,247
 330 1042 330 1042 330 1040 c 1,235,-1
333 1153 m 1,248,-1
 337 1157 l 1,249,-1
 372 1182 l 1,250,251
 372 1209 372 1209 374 1231 c 1,252,-1
 350 1215 l 2,253,254
 350 1214 350 1214 349 1213 c 0,255,256
 343 1200 343 1200 341 1191 c 0,257,258
 337 1175 337 1175 333 1153 c 1,248,-1
358 1230 m 1,259,-1
 375 1241 l 1,260,261
 376 1248 376 1248 376 1254 c 1,262,263
 365 1241 365 1241 358 1230 c 1,259,-1
333 459 m 1,264,-1
 316 446 l 2,265,266
 314 443 314 443 312 441 c 0,267,268
 288 408 288 408 281 359 c 1,269,-1
 302 374 l 1,270,271
 311 419 311 419 333 459 c 1,264,-1
294 313 m 1,272,-1
 278 301 l 1,273,274
 279 280 279 280 282 260 c 1,275,-1
 295 270 l 1,276,277
 294 284 294 284 294 313 c 1,272,-1
295 323 m 1,278,279
 296 344 296 344 300 363 c 1,280,-1
 280 349 l 1,281,282
 278 332 278 332 278 310 c 1,283,-1
 295 323 l 1,278,279
296.5 226 m 129,-1,285
 295 236 295 236 295 261 c 1,286,287
 283 252 283 252 283 252 c 1,288,289
 287 232 287 232 294 213 c 1,290,291
 294 213 294 213 296.5 206.5 c 129,-1,292
 299 200 299 200 302 195 c 1,293,294
 300 201 300 201 299 208.5 c 129,-1,284
 298 216 298 216 296.5 226 c 129,-1,285
EndSplineSet
Validated: 3073
Layer: 3
SplineSet
751 167 m 4,0,1
 752 168 752 168 751 171 c 4,2,3
 744 192 744 192 741 219 c 4,4,5
 727 340 727 340 564 503 c 4,6,7
 546 521 546 521 522 544 c 5,8,-1
 435 444 l 5,9,10
 388 381 388 381 388 286 c 30,11,-1
 389 258 l 6,12,13
 391 215 391 215 404 169 c 4,14,15
 433 68 433 68 490 38 c 4,16,17
 523 21 523 21 566 21 c 5,18,19
 633 23 633 23 678 56 c 4,20,21
 720 88 720 88 736 121 c 4,22,23
 751 152 751 152 751 167 c 4,0,1
466 1179 m 4,24,25
 466 1111 466 1111 524.5 1039.5 c 132,-1,26
 583 968 583 968 669 903 c 5,27,-1
 673 909 l 6,28,29
 703 955 703 955 733.5 1032 c 132,-1,30
 764 1109 764 1109 764 1168 c 4,31,32
 764 1374 764 1374 639 1388 c 4,33,34
 631 1389 631 1389 624 1389 c 4,35,36
 560 1389 560 1389 511 1326 c 4,37,38
 476 1280 476 1280 471 1250.5 c 132,-1,39
 466 1221 466 1221 466 1179 c 4,24,25
184 313 m 4,40,41
 184 423 184 423 236 496 c 4,42,43
 260 530 260 530 322.5 580.5 c 132,-1,44
 385 631 385 631 422 649 c 6,45,-1
 429 652 l 5,46,-1
 424 658 l 6,47,48
 256 859 256 859 236 1034 c 4,49,50
 232 1068 232 1068 232 1089.5 c 132,-1,51
 232 1111 232 1111 234 1124 c 4,52,53
 259 1266 259 1266 316 1328 c 4,54,55
 426 1448 426 1448 602 1448 c 4,56,57
 849 1448 849 1448 923 1282 c 4,58,59
 948 1225 948 1225 948 1138 c 4,60,61
 948 987 948 987 789 814 c 6,62,-1
 779 804 l 5,63,-1
 793 804 l 6,64,65
 803 804 803 804 852 742 c 4,66,67
 880 705 880 705 901 680 c 4,68,69
 957 611 957 611 976 561 c 4,70,71
 1015 455 1015 455 1015 401 c 4,72,73
 1015 394 1015 394 1014 388 c 4,74,75
 991 158 991 158 897 73 c 4,76,77
 781 -32 781 -32 560 -32 c 4,78,79
 408 -32 408 -32 306 46 c 4,80,81
 184 139 184 139 184 313 c 4,40,41
EndSplineSet
EndChar

StartChar: nine
Encoding: 57 57 25
Width: 1222
GlyphClass: 2
Flags: W
LayerCount: 4
Back
SplineSet
226 242 m 4,0,1
 226 292 226 292 238 329 c 132,-1,2
 250 366 250 366 272 393 c 132,-1,3
 294 420 294 420 324 433 c 132,-1,4
 354 446 354 446 390 446 c 260,5,6
 426 446 426 446 457 433 c 132,-1,7
 488 420 488 420 511 393 c 132,-1,8
 534 366 534 366 547 328 c 132,-1,9
 560 290 560 290 560 242 c 4,10,11
 560 162 560 162 528 115 c 132,-1,12
 496 68 496 68 436 52 c 5,13,14
 450 48 450 48 468 46 c 132,-1,15
 486 44 486 44 500 44 c 4,16,17
 552 44 552 44 583 69 c 132,-1,18
 614 94 614 94 632 157 c 132,-1,19
 650 220 650 220 656 324 c 132,-1,20
 662 428 662 428 664 586 c 5,21,22
 644 572 644 572 620 557 c 132,-1,23
 596 542 596 542 569 530 c 132,-1,24
 542 518 542 518 514 512 c 132,-1,25
 486 506 486 506 458 506 c 4,26,27
 396 506 396 506 345 538 c 132,-1,28
 294 570 294 570 259 626 c 132,-1,29
 224 682 224 682 205 760 c 132,-1,30
 186 838 186 838 186 932 c 4,31,32
 186 994 186 994 194 1056 c 132,-1,33
 202 1118 202 1118 220 1176 c 132,-1,34
 238 1234 238 1234 267 1285 c 132,-1,35
 296 1336 296 1336 339 1374 c 132,-1,36
 382 1412 382 1412 440 1433 c 132,-1,37
 498 1454 498 1454 574 1454 c 4,38,39
 700 1454 700 1454 787 1404 c 132,-1,40
 874 1354 874 1354 926 1261 c 132,-1,41
 978 1168 978 1168 1000 1038 c 132,-1,42
 1022 908 1022 908 1022 748 c 4,43,44
 1022 642 1022 642 1014 541 c 132,-1,45
 1006 440 1006 440 986 353 c 132,-1,46
 966 266 966 266 934 194 c 132,-1,47
 902 122 902 122 852 70 c 132,-1,48
 802 18 802 18 734 -10 c 132,-1,49
 666 -38 666 -38 576 -38 c 4,50,51
 490 -38 490 -38 425 -18 c 132,-1,52
 360 2 360 2 316 40 c 132,-1,53
 272 78 272 78 249 129 c 132,-1,54
 226 180 226 180 226 242 c 4,0,1
608 684 m 4,55,56
 634 684 634 684 664 698 c 5,57,-1
 664 718 l 6,58,59
 664 880 664 880 663 1003 c 132,-1,60
 662 1126 662 1126 654 1209 c 132,-1,61
 646 1292 646 1292 629 1334 c 132,-1,62
 612 1376 612 1376 584 1376 c 4,63,64
 568 1376 568 1376 551 1364 c 132,-1,65
 534 1352 534 1352 522 1316 c 132,-1,66
 510 1280 510 1280 502 1218 c 132,-1,67
 494 1156 494 1156 494 1058 c 4,68,69
 494 964 494 964 500 894 c 132,-1,70
 506 824 506 824 519 778 c 132,-1,71
 532 732 532 732 554 708 c 132,-1,72
 576 684 576 684 608 684 c 4,55,56
EndSplineSet
Fore
SplineSet
226 239 m 0,0,1
 226 292 226 292 238 329 c 128,-1,2
 250 366 250 366 272 393 c 128,-1,3
 294 420 294 420 324 433 c 128,-1,4
 354 446 354 446 390 446 c 128,-1,5
 426 446 426 446 457 433 c 128,-1,6
 488 420 488 420 511 393 c 0,7,8
 553 342 553 342 559 268 c 0,9,10
 560 254 560 254 560 241 c 0,11,12
 560 205 560 205 552 172 c 0,13,14
 529 77 529 77 436 52 c 1,15,16
 464 44 464 44 503 44 c 0,17,18
 552 44 552 44 583 69 c 0,19,20
 621 99 621 99 635 169 c 0,21,22
 650 241 650 241 664 586 c 1,23,24
 640 568 640 568 620 557 c 0,25,26
 569 529 569 529 553 523 c 0,27,28
 509 506 509 506 458 506 c 0,29,30
 396 506 396 506 345 538 c 0,31,32
 283 577 283 577 256 631 c 1,33,34
 186 747 186 747 186 932 c 0,35,36
 186 1143 186 1143 267 1285 c 0,37,38
 333 1402 333 1402 455 1438 c 0,39,40
 508 1454 508 1454 574 1454 c 0,41,42
 700 1454 700 1454 787 1404 c 0,43,44
 852 1367 852 1367 897 1306 c 0,45,46
 972 1206 972 1206 1000 1038 c 0,47,48
 1022 908 1022 908 1022 748 c 0,49,50
 1022 642 1022 642 1014 541 c 128,-1,51
 1006 440 1006 440 986 353 c 128,-1,52
 966 266 966 266 934 194 c 128,-1,53
 902 122 902 122 852 70 c 0,54,55
 789 7 789 7 734 -10 c 0,56,57
 643 -38 643 -38 576 -38 c 0,58,59
 324 -38 324 -38 249 129 c 0,60,61
 226 180 226 180 226 236 c 0,62,63
 226 237 226 237 226 239 c 0,0,1
607 684 m 0,64,65
 635 684 635 684 664 698 c 1,66,67
 664 1133 664 1133 654 1208 c 0,68,69
 636 1376 636 1376 584 1376 c 0,70,71
 566 1376 566 1376 550 1363 c 1,72,73
 533 1348 533 1348 522 1316 c 0,74,75
 510 1280 510 1280 502 1218 c 0,76,77
 495 1161 495 1161 494 1074 c 0,78,79
 495 958 495 958 500 894 c 0,80,81
 506 824 506 824 519 778 c 128,-1,82
 532 732 532 732 554 708 c 0,83,84
 576 685 576 685 607 684 c 0,64,65
922 743 m 1,85,86
 922 755 922 755 922 782 c 1,87,-1
 765 665 l 1,88,89
 765 644 765 644 765 624 c 1,90,-1
 922 743 l 1,85,86
922 733 m 1,91,-1
 764 615 l 1,92,93
 764 589 764 589 764 565 c 1,94,-1
 921 682 l 1,95,96
 922 707 922 707 922 733 c 1,91,-1
919 621 m 1,97,-1
 790 516 l 1,98,-1
 763 493 l 1,99,100
 762 468 762 468 761 445 c 1,101,-1
 915 558 l 1,102,103
 917 589 917 589 919 621 c 1,97,-1
921 673 m 1,104,-1
 764 555 l 1,105,106
 764 529 764 529 763 504 c 1,107,-1
 784 522 l 1,108,-1
 919 631 l 1,109,110
 920 652 920 652 921 673 c 1,104,-1
872 313 m 1,111,-1
 747 221 l 1,112,113
 740 172 740 172 729 134 c 1,114,-1
 830 208 l 1,115,116
 837 221 837 221 843 235 c 0,117,118
 859 271 859 271 872 313 c 1,111,-1
914 549 m 1,119,-1
 761 435 l 1,120,121
 760 389 760 389 757 348 c 1,122,-1
 832 399 l 1,123,-1
 903 452 l 1,124,125
 910 498 910 498 914 549 c 1,119,-1
889 377 m 1,126,127
 816 324 816 324 753 279 c 1,128,129
 751 254 751 254 748 231 c 1,130,-1
 876 326 l 1,131,132
 883 350 883 350 889 377 c 1,126,127
902 442 m 1,133,134
 872 420 872 420 836 393 c 2,135,-1
 757 338 l 1,136,137
 756 328 756 328 756 318 c 0,138,139
 755 303 755 303 754 288 c 1,140,141
 838 349 838 349 891 388 c 1,142,143
 897 414 897 414 902 442 c 1,133,134
822 194 m 1,144,-1
 726 123 l 1,145,146
 721 106 721 106 715 91 c 1,147,148
 780 124 780 124 822 194 c 1,144,-1
920 831 m 1,149,150
 919 860 919 860 917 889 c 1,151,-1
 765 772 l 1,152,153
 765 772 765 772 765 754 c 0,154,155
 765 754 765 754 765 712 c 1,156,157
 782 726 782 726 920 831 c 1,149,150
765 701 m 1,158,159
 765 688 765 688 765 675 c 1,160,-1
 922 792 l 1,161,162
 922 807 922 807 921 822 c 1,163,164
 821 743 821 743 765 701 c 1,158,159
765 781 m 1,165,-1
 917 898 l 1,166,167
 915 929 915 929 911 959 c 1,168,-1
 764 847 l 1,169,170
 764 847 764 847 765 781 c 1,165,-1
763 994 m 1,171,172
 763 959 763 959 764 921 c 1,173,-1
 787 939 l 1,174,-1
 902 1019 l 1,175,176
 895 1058 895 1058 886 1093 c 1,177,-1
 763 994 l 1,171,172
764 856 m 1,178,179
 837 912 837 912 909 968 c 1,180,181
 906 990 906 990 903 1010 c 1,182,-1
 791 933 l 1,183,-1
 764 912 l 1,184,185
 764 885 764 885 764 856 c 1,178,179
763 1003 m 1,186,-1
 883 1101 l 1,187,188
 876 1127 876 1127 867 1151 c 1,189,190
 856 1142 856 1142 851 1138 c 2,191,-1
 762 1072 l 1,192,193
 763 1040 763 1040 763 1006 c 0,194,195
 763 1004 763 1004 763 1003 c 1,186,-1
758 1161 m 1,196,-1
 766 1169 l 1,197,-1
 828 1231 l 1,198,199
 810 1259 810 1259 787 1280 c 1,200,201
 787 1280 787 1280 751 1243 c 1,202,203
 752 1233 752 1233 753 1224 c 0,204,205
 756 1194 756 1194 758 1161 c 1,196,-1
762 1081 m 1,206,-1
 847 1144 l 1,207,-1
 864 1159 l 1,208,209
 853 1188 853 1188 839 1212 c 0,210,211
 836 1218 836 1218 832 1223 c 1,212,-1
 772 1163 l 2,213,214
 765 1156 765 1156 759 1150 c 1,215,216
 761 1117 761 1117 762 1081 c 1,206,-1
750 1253 m 1,217,-1
 780 1287 l 1,218,219
 761 1304 761 1304 739 1316 c 1,220,221
 746 1288 746 1288 750 1253 c 1,217,-1
395 346 m 1,222,223
 393 346 393 346 390 346 c 0,224,225
 375 346 375 346 364 341 c 0,226,227
 345 333 345 333 334 299 c 1,228,-1
 395 346 l 1,222,223
406 345 m 1,229,-1
 330 288 l 1,230,231
 326 269 326 269 326 239 c 0,232,233
 326 238 326 238 326 237 c 1,234,-1
 440 322 l 1,235,236
 431 336 431 336 418 341 c 0,237,238
 412 344 412 344 406 345 c 1,229,-1
443 316 m 1,239,-1
 326 229 l 1,240,241
 327 208 327 208 333 188 c 1,242,-1
 458 272 l 1,243,244
 456 284 456 284 453 294 c 0,245,246
 448 307 448 307 443 316 c 1,239,-1
459 264 m 1,247,-1
 336 181 l 1,248,249
 343 163 343 163 353 147 c 0,250,251
 355 147 355 147 357 146 c 2,252,-1
 459 222 l 1,253,254
 460 231 460 231 460 242 c 0,255,256
 460 254 460 254 459 264 c 1,247,-1
458 212 m 1,257,-1
 367 145 l 1,258,259
 369 145 369 145 370 144 c 0,260,261
 377 144 377 144 378 144 c 0,262,263
 394 144 394 144 412 149 c 0,264,265
 434 155 434 155 445 171 c 0,266,267
 455 185 455 185 458 212 c 1,257,-1
447 606 m 1,268,269
 452 606 452 606 458 606 c 0,270,271
 484 606 484 606 510 614 c 1,272,273
 497 623 497 623 485 635 c 1,274,-1
 447 606 l 1,268,269
437 608 m 1,275,-1
 480 641 l 1,276,277
 464 659 464 659 451 681 c 1,278,279
 420 659 420 659 383 634 c 1,280,281
 390 628 390 628 398 623 c 0,282,283
 416 612 416 612 437 608 c 1,275,-1
335 694 m 1,284,285
 353 660 353 660 378 638 c 1,286,-1
 448 687 l 1,287,288
 433 715 433 715 423 751 c 0,289,290
 421 757 421 757 420 762 c 1,291,-1
 406 753 l 1,292,-1
 335 694 l 1,284,285
306 771 m 1,293,294
 317 731 317 731 332 700 c 1,295,-1
 402 759 l 1,296,-1
 418 770 l 1,297,298
 410 802 410 802 405 841 c 1,299,-1
 356 803 l 1,300,-1
 306 771 l 1,293,294
304 778 m 1,301,-1
 352 809 l 2,302,303
 378 829 378 829 404 849 c 1,304,305
 402 865 402 865 401 883 c 0,306,307
 399 902 399 902 398 923 c 1,308,-1
 356 876 l 2,309,310
 329 845 329 845 326 843 c 2,311,-1
 294 822 l 1,312,313
 297 803 297 803 302 786 c 0,314,315
 303 782 303 782 304 778 c 1,301,-1
286 916 m 1,316,317
 287 870 287 870 293 830 c 1,318,319
 307 839 307 839 321 849 c 1,320,-1
 397 935 l 1,321,322
 395 967 395 967 395 1004 c 1,323,324
 383 993 383 993 376 988 c 2,325,-1
 286 916 l 1,316,317
286 926 m 1,326,327
 329 960 329 960 371 994 c 1,328,-1
 394 1016 l 1,329,330
 394 1038 394 1038 394 1061 c 0,331,332
 394 1074 394 1074 394 1086 c 1,333,-1
 291 996 l 1,334,-1
 288 994 l 1,335,336
 286 963 286 963 286 932 c 0,337,338
 286 929 286 929 286 926 c 1,326,327
289 1004 m 1,339,-1
 394 1096 l 1,340,341
 395 1148 395 1148 399 1192 c 1,342,-1
 341 1151 l 1,343,-1
 309 1126 l 1,344,345
 298 1087 298 1087 293 1043 c 0,346,347
 291 1024 291 1024 289 1004 c 1,339,-1
340 1209 m 1,348,349
 324 1176 324 1176 313 1138 c 1,350,-1
 337 1157 l 1,351,-1
 400 1202 l 1,352,353
 403 1237 403 1237 408 1266 c 1,354,-1
 381 1236 l 1,355,-1
 340 1209 l 1,348,349
347 1222 m 1,356,357
 362 1232 362 1232 376 1242 c 1,358,-1
 410 1281 l 1,359,360
 413 1295 413 1295 416 1307 c 1,361,362
 379 1279 379 1279 354 1236 c 0,363,364
 351 1229 351 1229 347 1222 c 1,356,357
EndSplineSet
Validated: 3073
Layer: 3
SplineSet
608 678 m 4,0,1
 635 678 635 678 670 694 c 5,2,-1
 670 698 l 5,3,-1
 670 718 l 6,4,5
 670 880 670 880 669 1003 c 132,-1,6
 668 1126 668 1126 660 1209.5 c 132,-1,7
 652 1293 652 1293 635 1336 c 4,8,9
 616 1382 616 1382 584 1382 c 4,10,11
 566 1382 566 1382 547.5 1369 c 132,-1,12
 529 1356 529 1356 516 1318 c 4,13,14
 488 1233 488 1233 488 1058 c 4,15,16
 488 866 488 866 513 776 c 4,17,18
 527 729 527 729 550 703.5 c 132,-1,19
 573 678 573 678 608 678 c 4,0,1
232 242 m 4,20,21
 232 334 232 334 277 389 c 4,22,23
 318 440 318 440 390 440 c 4,24,25
 425 440 425 440 452 428.5 c 132,-1,26
 479 417 479 417 498 398 c 4,27,28
 526 370 526 370 541 326 c 4,29,30
 554 289 554 289 554 242 c 4,31,32
 554 164 554 164 523 118.5 c 132,-1,33
 492 73 492 73 434 58 c 6,34,-1
 413 52 l 5,35,-1
 434 46 l 6,36,37
 463 38 463 38 500 38 c 4,38,39
 554 38 554 38 587 64.5 c 132,-1,40
 620 91 620 91 639 159 c 4,41,42
 656 219 656 219 662 323.5 c 132,-1,43
 668 428 668 428 670 598 c 5,44,-1
 661 591 l 6,45,46
 608 553 608 553 567 535 c 4,47,48
 514 512 514 512 458 512 c 4,49,50
 398 512 398 512 348 543 c 4,51,52
 249 606 249 606 211 762 c 4,53,54
 192 839 192 839 192 932 c 4,55,56
 192 1065 192 1065 226 1174 c 4,57,58
 265 1301 265 1301 343 1370 c 4,59,60
 432 1448 432 1448 574 1448 c 4,61,62
 698 1448 698 1448 784 1399 c 132,-1,63
 870 1350 870 1350 921 1258 c 132,-1,64
 972 1166 972 1166 994 1036.5 c 132,-1,65
 1016 907 1016 907 1016 748 c 4,66,67
 1016 642 1016 642 1008 541 c 4,68,69
 992 339 992 339 929 196 c 4,70,71
 863 50 863 50 730 -5 c 4,72,73
 665 -32 665 -32 576 -32 c 4,74,75
 409 -32 409 -32 320 45 c 4,76,77
 232 120 232 120 232 242 c 4,20,21
EndSplineSet
EndChar

StartChar: less
Encoding: 60 60 28
Width: 582
GlyphClass: 2
Flags: W
LayerCount: 4
Back
SplineSet
-4 490 m 5,0,-1
 502 972 l 5,1,-1
 590 884 l 5,2,-1
 174 490 l 5,3,-1
 590 94 l 5,4,-1
 502 6 l 5,5,-1
 -4 490 l 5,0,-1
EndSplineSet
Fore
SplineSet
502 6 m 1,0,-1
 -4 490 l 1,1,-1
 502 972 l 1,2,-1
 590 884 l 1,3,-1
 174 490 l 1,4,-1
 590 94 l 1,5,-1
 502 6 l 1,0,-1
EndSplineSet
Validated: 1
Layer: 3
SplineSet
581 884 m 5,0,-1
 165 490 l 5,1,-1
 581 94 l 5,2,-1
 502 14 l 5,3,-1
 5 490 l 5,4,-1
 502 964 l 5,5,-1
 581 884 l 5,0,-1
EndSplineSet
EndChar

StartChar: greater
Encoding: 62 62 30
Width: 582
GlyphClass: 2
Flags: W
LayerCount: 4
Back
SplineSet
594 490 m 5,0,-1
 88 6 l 5,1,-1
 0 94 l 5,2,-1
 416 490 l 5,3,-1
 0 884 l 5,4,-1
 88 972 l 5,5,-1
 594 490 l 5,0,-1
EndSplineSet
Fore
SplineSet
88 972 m 1,0,-1
 594 490 l 1,1,-1
 88 6 l 1,2,-1
 0 94 l 1,3,-1
 416 490 l 1,4,-1
 0 884 l 1,5,-1
 88 972 l 1,0,-1
EndSplineSet
Validated: 1
Layer: 3
SplineSet
9 94 m 5,0,-1
 425 490 l 5,1,-1
 9 884 l 5,2,-1
 88 964 l 5,3,-1
 585 490 l 5,4,-1
 88 14 l 5,5,-1
 9 94 l 5,0,-1
EndSplineSet
EndChar

StartChar: at
Encoding: 64 64 32
Width: 2080
GlyphClass: 2
Flags: W
LayerCount: 4
Back
SplineSet
1460 140 m 4,0,1
 1536 140 1536 140 1602 216 c 4,2,3
 1656 278 1656 278 1704 356 c 4,4,5
 1750 432 1750 432 1779 531 c 132,-1,6
 1808 630 1808 630 1808 736 c 4,7,8
 1808 884 1808 884 1750 1008 c 132,-1,9
 1692 1132 1692 1132 1578 1224 c 132,-1,10
 1464 1316 1464 1316 1343 1369 c 132,-1,11
 1222 1422 1222 1422 1088 1422 c 4,12,13
 950 1422 950 1422 844 1394 c 132,-1,14
 738 1366 738 1366 659 1314 c 132,-1,15
 580 1262 580 1262 501 1186 c 132,-1,16
 422 1110 422 1110 374 1013 c 132,-1,17
 326 916 326 916 291 800 c 132,-1,18
 256 684 256 684 256 550 c 4,19,20
 256 352 256 352 321 213 c 132,-1,21
 386 74 386 74 481 -15 c 132,-1,22
 576 -104 576 -104 708 -145 c 132,-1,23
 840 -186 840 -186 1044 -186 c 4,24,25
 1164 -186 1164 -186 1275 -162 c 132,-1,26
 1386 -138 1386 -138 1485 -99 c 132,-1,27
 1584 -60 1584 -60 1674 -10 c 132,-1,28
 1764 40 1764 40 1842 92 c 5,29,30
 1842 92 1842 92 1890 30 c 5,31,32
 1852 -6 1852 -6 1799 -52 c 132,-1,33
 1746 -98 1746 -98 1679 -145 c 132,-1,34
 1612 -192 1612 -192 1533 -237 c 132,-1,35
 1454 -282 1454 -282 1385 -316 c 132,-1,36
 1316 -350 1316 -350 1221 -371 c 132,-1,37
 1126 -392 1126 -392 1054 -392 c 4,38,39
 908 -392 908 -392 804 -368 c 132,-1,40
 700 -344 700 -344 602 -303 c 132,-1,41
 504 -262 504 -262 423 -193 c 132,-1,42
 342 -124 342 -124 273 -13 c 132,-1,43
 204 98 204 98 160 238 c 132,-1,44
 116 378 116 378 116 542 c 4,45,46
 116 674 116 674 143 810 c 132,-1,47
 170 946 170 946 233 1068 c 132,-1,48
 296 1190 296 1190 381 1288 c 132,-1,49
 466 1386 466 1386 575 1463 c 132,-1,50
 684 1540 684 1540 826 1584 c 132,-1,51
 968 1628 968 1628 1166 1628 c 4,52,53
 1210 1628 1210 1628 1288 1608 c 132,-1,54
 1366 1588 1366 1588 1455 1544 c 132,-1,55
 1544 1500 1544 1500 1637 1432 c 132,-1,56
 1730 1364 1730 1364 1800 1268 c 132,-1,57
 1870 1172 1870 1172 1911 1048 c 132,-1,58
 1952 924 1952 924 1952 768 c 4,59,60
 1952 672 1952 672 1930 579 c 4,61,62
 1907 480 1907 480 1860 386 c 4,63,64
 1817 299 1817 299 1774 248 c 4,65,66
 1671 125 1671 125 1596 74 c 28,67,68
 1548 42 1548 42 1446 12 c 4,69,70
 1380 -8 1380 -8 1320 -8 c 4,71,72
 1262 -8 1262 -8 1221 13 c 132,-1,73
 1180 34 1180 34 1153 69 c 132,-1,74
 1126 104 1126 104 1114 147 c 132,-1,75
 1102 190 1102 190 1100 232 c 5,76,77
 1084 180 1084 180 1060 136 c 132,-1,78
 1036 92 1036 92 1002 60 c 132,-1,79
 968 28 968 28 921 10 c 132,-1,80
 874 -8 874 -8 812 -8 c 4,81,82
 740 -8 740 -8 681 26 c 132,-1,83
 622 60 622 60 580 121 c 132,-1,84
 538 182 538 182 517 269 c 132,-1,85
 496 356 496 356 496 464 c 4,86,87
 496 648 496 648 531 784 c 132,-1,88
 566 920 566 920 627 1008 c 132,-1,89
 688 1096 688 1096 770 1139 c 132,-1,90
 852 1182 852 1182 942 1182 c 4,91,92
 1008 1182 1008 1182 1055 1157 c 132,-1,93
 1102 1132 1102 1132 1132 1090 c 132,-1,94
 1162 1048 1162 1048 1177 992 c 132,-1,95
 1192 936 1192 936 1194 868 c 5,96,97
 1194 868 1194 868 1228 1076 c 5,98,-1
 1540 1076 l 5,99,100
 1526 1026 1526 1026 1511 955 c 132,-1,101
 1496 884 1496 884 1481 804 c 132,-1,102
 1466 724 1466 724 1455 640 c 132,-1,103
 1444 556 1444 556 1435 477 c 132,-1,104
 1426 398 1426 398 1421 329 c 132,-1,105
 1416 260 1416 260 1416 212 c 4,106,107
 1416 172 1416 172 1429 156 c 132,-1,108
 1442 140 1442 140 1460 140 c 4,0,1
872 398 m 4,109,110
 872 316 872 316 879 264 c 132,-1,111
 886 212 886 212 898 183 c 132,-1,112
 910 154 910 154 925 143 c 132,-1,113
 940 132 940 132 958 132 c 4,114,115
 990 132 990 132 1024 178 c 132,-1,116
 1058 224 1058 224 1085 309 c 132,-1,117
 1112 394 1112 394 1130 513 c 132,-1,118
 1148 632 1148 632 1148 776 c 4,119,120
 1148 838 1148 838 1144 888 c 132,-1,121
 1140 938 1140 938 1131 975 c 132,-1,122
 1122 1012 1122 1012 1107 1031 c 132,-1,123
 1092 1050 1092 1050 1070 1050 c 4,124,125
 1034 1050 1034 1050 998 1004 c 132,-1,126
 962 958 962 958 934 873 c 132,-1,127
 906 788 906 788 889 667 c 132,-1,128
 872 546 872 546 872 398 c 4,109,110
EndSplineSet
Fore
SplineSet
1416 209 m 0,0,1
 1417 172 1417 172 1429 156 c 0,2,3
 1442 140 1442 140 1460 140 c 0,4,5
 1536 140 1536 140 1602 216 c 0,6,7
 1603 217 1603 217 1604 218 c 0,8,9
 1659 283 1659 283 1703 355 c 0,10,11
 1715 374 1715 374 1725 394 c 0,12,13
 1757 456 1757 456 1779 531 c 0,14,15
 1808 630 1808 630 1808 736 c 0,16,17
 1808 884 1808 884 1750 1008 c 0,18,19
 1699 1116 1699 1116 1606 1200 c 0,20,21
 1593 1212 1593 1212 1578 1224 c 0,22,23
 1487 1297 1487 1297 1392 1346 c 0,24,25
 1240 1422 1240 1422 1088 1422 c 0,26,27
 944 1422 944 1422 829 1390 c 0,28,29
 732 1362 732 1362 659 1314 c 0,30,31
 580 1262 580 1262 501 1186 c 0,32,33
 487 1172 487 1172 473 1158 c 0,34,35
 402 1079 402 1079 368 1000 c 0,36,37
 324 908 324 908 291 800 c 0,38,39
 257 687 257 687 256 556 c 0,40,41
 257 349 257 349 321 213 c 0,42,43
 386 74 386 74 481 -15 c 128,-1,44
 576 -104 576 -104 708 -145 c 128,-1,45
 840 -186 840 -186 1044 -186 c 0,46,47
 1258 -186 1258 -186 1484 -98 c 0,48,49
 1603 -51 1603 -51 1726 20 c 0,50,51
 1787 56 1787 56 1842 92 c 1,52,-1
 1890 30 l 1,53,54
 1852 -6 1852 -6 1799 -52 c 128,-1,55
 1746 -98 1746 -98 1679 -145 c 128,-1,56
 1612 -192 1612 -192 1533 -237 c 128,-1,57
 1454 -282 1454 -282 1385 -316 c 128,-1,58
 1316 -350 1316 -350 1221 -371 c 128,-1,59
 1126 -392 1126 -392 1054 -392 c 0,60,61
 1044 -392 1044 -392 1033 -392 c 0,62,63
 1025 -392 1025 -392 1017 -392 c 0,64,65
 1006 -392 1006 -392 996 -392 c 0,66,67
 898 -390 898 -390 804 -368 c 0,68,69
 700 -344 700 -344 602 -303 c 128,-1,70
 504 -262 504 -262 423 -193 c 128,-1,71
 342 -124 342 -124 273 -13 c 0,72,73
 271 -9 271 -9 268 -5 c 0,74,75
 182 137 182 137 144 294 c 0,76,77
 116 410 116 410 116 542 c 0,78,79
 116 648 116 648 143 810 c 1,80,81
 170 946 170 946 233 1068 c 1,82,83
 323 1230 323 1230 381 1288 c 0,84,85
 397 1306 397 1306 414 1324 c 0,86,87
 471 1385 471 1385 535 1433 c 0,88,89
 555 1448 555 1448 575 1463 c 0,90,91
 684 1540 684 1540 826 1584 c 128,-1,92
 968 1628 968 1628 1166 1628 c 0,93,94
 1278 1628 1278 1628 1455 1544 c 0,95,96
 1571 1489 1571 1489 1659 1417 c 0,97,98
 1732 1359 1732 1359 1790 1281 c 0,99,100
 1797 1272 1797 1272 1800 1268 c 0,101,102
 1879 1161 1879 1161 1917 1031 c 0,103,104
 1952 914 1952 914 1952 768 c 0,105,106
 1952 570 1952 570 1860 386 c 0,107,108
 1817 299 1817 299 1774 248 c 0,109,110
 1672 126 1672 126 1610 84 c 0,111,112
 1609 84 1609 84 1608 83 c 0,113,114
 1602 79 1602 79 1596 74 c 0,115,116
 1571 57 1571 57 1530 41 c 0,117,118
 1499 28 1499 28 1464 17 c 0,119,120
 1393 -7 1393 -7 1329 -8 c 0,121,122
 1262 -8 1262 -8 1221 13 c 128,-1,123
 1180 34 1180 34 1153 69 c 0,124,125
 1150 73 1150 73 1147 76 c 0,126,127
 1128 103 1128 103 1118 135 c 0,128,129
 1103 178 1103 178 1100 232 c 1,130,131
 1084 180 1084 180 1060 136 c 128,-1,132
 1036 92 1036 92 1002 60 c 128,-1,133
 968 28 968 28 921 10 c 128,-1,134
 874 -8 874 -8 812 -8 c 0,135,136
 672 -8 672 -8 584 115 c 0,137,138
 582 118 582 118 580 121 c 0,139,140
 496 244 496 244 496 446 c 128,-1,141
 496 648 496 648 531 784 c 128,-1,142
 566 920 566 920 627 1008 c 0,143,144
 747 1182 747 1182 942 1182 c 0,145,146
 1074 1182 1074 1182 1142 1074 c 0,147,148
 1162 1042 1162 1042 1174 1003 c 0,149,150
 1192 944 1192 944 1194 868 c 1,151,-1
 1228 1076 l 1,152,-1
 1375 1076 l 1,153,-1
 1540 1076 l 1,154,155
 1539 1073 1539 1073 1538 1070 c 0,156,157
 1515 984 1515 984 1481 804 c 0,158,159
 1439 582 1439 582 1421 329 c 0,160,161
 1416 265 1416 265 1416 209 c 0,0,1
872 404 m 0,162,163
 873 132 873 132 958 132 c 0,164,165
 990 132 990 132 1024 178 c 128,-1,166
 1058 224 1058 224 1085 309 c 0,167,168
 1130 450 1130 450 1142 623 c 0,169,170
 1148 701 1148 701 1148 774 c 0,171,172
 1148 827 1148 827 1145 878 c 0,173,174
 1132 1050 1132 1050 1070 1050 c 0,175,176
 1034 1050 1034 1050 998 1004 c 128,-1,177
 962 958 962 958 934 873 c 128,-1,178
 906 788 906 788 889 667 c 0,179,180
 872 549 872 549 872 404 c 0,162,163
795 175 m 1,181,-1
 720 119 l 1,182,183
 725 116 725 116 731 113 c 0,184,185
 739 108 739 108 748 104 c 1,186,-1
 805 146 l 1,187,188
 799 160 799 160 795 175 c 1,181,-1
781 246 m 1,189,-1
 671 165 l 1,190,191
 690 140 690 140 715 123 c 1,192,-1
 793 182 l 1,193,194
 786 210 786 210 781 246 c 1,189,-1
773 358 m 1,195,196
 773 377 773 377 772 398 c 0,197,198
 772 421 772 421 772 444 c 1,199,-1
 608 323 l 1,200,201
 611 309 611 309 613 296 c 0,202,203
 618 275 618 275 625 256 c 1,204,-1
 773 358 l 1,195,196
776 295 m 1,205,206
 707 245 707 245 648 203 c 1,207,208
 657 186 657 186 667 172 c 1,209,-1
 780 255 l 1,210,211
 778 274 778 274 776 295 c 1,205,206
773 349 m 1,212,-1
 627 249 l 1,213,214
 635 228 635 228 644 209 c 1,215,216
 717 262 717 262 775 304 c 1,217,218
 774 325 774 325 773 349 c 1,212,-1
832 97 m 1,219,-1
 825 92 l 1,220,221
 830 92 830 92 835 93 c 1,222,223
 834 95 834 95 832 97 c 1,219,-1
808 140 m 1,224,-1
 756 101 l 1,225,226
 782 92 782 92 811 92 c 0,227,228
 812 92 812 92 813 92 c 2,229,-1
 828 103 l 1,230,231
 817 120 817 120 808 140 c 1,224,-1
602 361 m 1,232,233
 604 345 604 345 606 330 c 1,234,-1
 773 453 l 1,235,236
 774 478 774 478 774 503 c 1,237,-1
 694 436 l 1,238,-1
 602 361 l 1,232,233
597 430 m 1,239,240
 598 398 598 398 601 370 c 1,241,-1
 775 514 l 1,242,243
 776 540 776 540 778 566 c 1,244,-1
 597 430 l 1,239,240
596 439 m 1,245,-1
 779 575 l 1,246,247
 781 603 781 603 784 629 c 1,248,-1
 596 488 l 1,249,250
 596 476 596 476 596 464 c 0,251,252
 596 451 596 451 596 439 c 1,245,-1
598 540 m 1,253,254
 597 519 597 519 596 498 c 1,255,-1
 785 640 l 1,256,257
 787 662 787 662 790 682 c 0,258,259
 790 683 790 683 790 684 c 1,260,-1
 598 540 l 1,253,254
600 576 m 1,261,262
 599 563 599 563 598 550 c 1,263,-1
 792 695 l 1,264,265
 794 710 794 710 797 725 c 1,266,267
 724 669 724 669 600 576 c 1,261,262
607 651 m 1,268,269
 603 620 603 620 600 585 c 1,270,-1
 798 735 l 1,271,272
 805 773 805 773 813 808 c 1,273,-1
 607 651 l 1,268,269
623 741 m 1,274,275
 614 703 614 703 609 661 c 1,276,-1
 816 821 l 1,277,278
 827 866 827 866 839 905 c 1,279,-1
 623 741 l 1,274,275
626 751 m 1,280,281
 735 834 735 834 843 917 c 1,282,283
 857 956 857 956 873 989 c 1,284,-1
 791 933 l 1,285,-1
 647 824 l 1,286,287
 636 792 636 792 627 756 c 0,288,289
 627 754 627 754 626 751 c 1,280,281
652 837 m 1,290,-1
 787 939 l 1,291,-1
 880 1003 l 1,292,293
 904 1049 904 1049 933 1082 c 1,294,295
 892 1081 892 1081 853 1067 c 1,296,-1
 756 988 l 1,297,-1
 716 960 l 2,298,299
 713 956 713 956 709 951 c 0,300,301
 677 904 677 904 652 837 c 1,290,-1
731 980 m 1,302,-1
 752 994 l 1,303,-1
 828 1056 l 1,304,305
 822 1053 822 1053 816 1050 c 0,306,307
 770 1026 770 1026 731 980 c 1,302,-1
1289 95 m 1,308,-1
 1332 126 l 1,309,310
 1324 144 1324 144 1320 165 c 1,311,-1
 1250 112 l 1,312,313
 1258 106 1258 106 1269 101 c 0,314,315
 1277 97 1277 97 1289 95 c 1,308,-1
1299 93 m 1,316,317
 1309 92 1309 92 1320 92 c 0,318,319
 1335 92 1335 92 1351 94 c 1,320,321
 1342 105 1342 105 1335 119 c 1,322,-1
 1299 93 l 1,316,317
1244 118 m 2,323,-1
 1319 173 l 1,324,325
 1316 191 1316 191 1316 212 c 0,326,327
 1316 218 1316 218 1316 224 c 1,328,329
 1263 187 1263 187 1217 156 c 1,330,331
 1226 135 1226 135 1240 121 c 0,332,333
 1242 120 1242 120 1244 118 c 2,323,-1
1214 163 m 1,334,-1
 1316 234 l 1,335,336
 1317 269 1317 269 1319 310 c 1,337,338
 1275 284 1275 284 1226 256 c 1,339,-1
 1200 237 l 2,340,341
 1200 234 1200 234 1200 231 c 0,342,343
 1201 220 1201 220 1203 208 c 0,344,345
 1205 193 1205 193 1209 178 c 0,346,347
 1211 170 1211 170 1214 163 c 1,334,-1
1199 245 m 1,348,-1
 1222 262 l 1,349,-1
 1320 323 l 1,350,351
 1322 351 1322 351 1325 382 c 1,352,-1
 1251 333 l 1,353,-1
 1202 300 l 1,354,-1
 1198 274 l 2,355,356
 1198 261 1198 261 1199 245 c 1,348,-1
1290 834 m 1,357,-1
 1401 916 l 1,358,359
 1407 945 1407 945 1413 976 c 1,360,-1
 1409 976 l 1,361,-1
 1301 902 l 1,362,-1
 1290 834 l 1,357,-1
1311 964 m 1,363,-1
 1303 912 l 1,364,-1
 1396 976 l 1,365,-1
 1327 976 l 1,366,-1
 1311 964 l 1,363,-1
1288 825 m 1,367,-1
 1273 731 l 1,368,369
 1366 814 1366 814 1367 814 c 2,370,-1
 1384 827 l 1,371,372
 1391 865 1391 865 1399 907 c 1,373,-1
 1288 825 l 1,367,-1
1250 593 m 1,374,-1
 1237 511 l 1,375,-1
 1348 593 l 1,376,377
 1352 623 1352 623 1356 654 c 0,378,379
 1357 663 1357 663 1359 673 c 1,380,-1
 1250 593 l 1,374,-1
1235 501 m 1,381,-1
 1228 456 l 1,382,-1
 1342 539 l 1,383,384
 1345 561 1345 561 1347 584 c 1,385,-1
 1235 501 l 1,381,-1
1259 648 m 1,386,-1
 1252 604 l 1,387,-1
 1360 684 l 1,388,389
 1363 704 1363 704 1366 725 c 1,390,-1
 1316 688 l 2,391,392
 1293 672 1293 672 1259 648 c 1,386,-1
1271 719 m 1,393,-1
 1261 658 l 1,394,-1
 1312 694 l 1,395,-1
 1368 735 l 1,396,397
 1374 774 1374 774 1382 816 c 1,398,399
 1377 812 1377 812 1372 808 c 0,400,401
 1277 723 1277 723 1276 723 c 2,402,-1
 1271 719 l 1,393,-1
1215 379 m 1,403,-1
 1211 351 l 1,404,-1
 1330 440 l 1,405,406
 1331 452 1331 452 1333 465 c 1,407,-1
 1215 379 l 1,403,-1
1204 310 m 1,408,-1
 1247 339 l 1,409,-1
 1326 392 l 1,410,411
 1328 411 1328 411 1329 430 c 1,412,-1
 1209 342 l 1,413,-1
 1204 310 l 1,408,-1
1226 446 m 1,414,-1
 1217 388 l 1,415,-1
 1334 475 l 1,416,417
 1335 482 1335 482 1336 488 c 0,418,419
 1338 508 1338 508 1340 530 c 1,420,-1
 1226 446 l 1,414,-1
1587 1343 m 1,421,422
 1600 1333 1600 1333 1614 1323 c 1,423,424
 1601 1334 1601 1334 1588 1344 c 1,425,426
 1540 1377 1540 1377 1497 1406 c 1,427,428
 1417 1454 1417 1454 1416 1454 c 128,-1,429
 1415 1454 1415 1454 1340 1486 c 1,430,431
 1340 1486 1340 1486 1304 1499 c 1,432,433
 1266 1511 1266 1511 1248 1515 c 0,434,435
 1200 1526 1200 1526 1170 1527 c 0,436,437
 1154 1527 1154 1527 1140 1527.5 c 128,-1,438
 1126 1528 1126 1528 1114 1527 c 1,439,440
 1055 1525 1055 1525 1011 1520 c 1,441,442
 1050 1522 1050 1522 1108 1522 c 1,443,444
 1168 1520 1168 1520 1240 1506 c 1,445,446
 1297 1492 1297 1492 1315 1486 c 0,447,448
 1315 1486 1315 1486 1383 1461 c 0,449,450
 1395 1456 1395 1456 1404 1451 c 1,451,452
 1433 1439 1433 1439 1461 1422 c 1,453,454
 1478 1413 1478 1413 1494 1404 c 1,455,456
 1506 1396 1506 1396 1587 1343 c 1,421,422
932 -287 m 1,457,458
 988 -292 988 -292 1054 -292 c 0,459,460
 1094 -292 1094 -292 1139 -285 c 0,461,462
 1154 -283 1154 -283 1167 -280 c 1,463,464
 1108 -286 1108 -286 1044 -286 c 0,465,466
 988 -286 988 -286 937 -283 c 1,467,468
 884 -278 884 -278 866 -277 c 1,469,470
 866 -277 866 -277 849 -275 c 1,471,472
 849 -281 849 -281 932 -287 c 1,457,458
EndSplineSet
Validated: 3073
Layer: 3
SplineSet
866 398 m 4,0,1
 866 316 866 316 873 263 c 132,-1,2
 880 210 880 210 891 183.5 c 132,-1,3
 902 157 902 157 915 144 c 4,4,5
 933 126 933 126 958 126 c 4,6,7
 984 126 984 126 1010 152 c 4,8,9
 1057 198 1057 198 1091 307 c 4,10,11
 1118 393 1118 393 1136 512.5 c 132,-1,12
 1154 632 1154 632 1154 776 c 4,13,14
 1154 981 1154 981 1111 1035 c 4,15,16
 1095 1056 1095 1056 1070 1056 c 4,17,18
 1039 1056 1039 1056 1009 1026 c 4,19,20
 962 979 962 979 928 875 c 4,21,22
 900 789 900 789 883 667.5 c 132,-1,23
 866 546 866 546 866 398 c 4,0,1
1460 134 m 4,24,25
 1539 134 1539 134 1607 212 c 4,26,27
 1661 275 1661 275 1709 353 c 4,28,29
 1756 430 1756 430 1785 529.5 c 132,-1,30
 1814 629 1814 629 1814 736 c 4,31,32
 1814 885 1814 885 1755.5 1010.5 c 132,-1,33
 1697 1136 1697 1136 1582 1229 c 4,34,35
 1467 1321 1467 1321 1345 1374.5 c 132,-1,36
 1223 1428 1223 1428 1088 1428 c 4,37,38
 821 1428 821 1428 656 1319 c 4,39,40
 576 1267 576 1267 496.5 1190.5 c 132,-1,41
 417 1114 417 1114 367 1013 c 4,42,43
 320 918 320 918 285 801.5 c 132,-1,44
 250 685 250 685 250 550 c 4,45,46
 250 350 250 350 316 210 c 4,47,48
 376 81 376 81 463 -6 c 4,49,50
 563 -107 563 -107 706 -151 c 4,51,52
 839 -192 839 -192 1044 -192 c 4,53,54
 1165 -192 1165 -192 1276.5 -168 c 132,-1,55
 1388 -144 1388 -144 1487.5 -104.5 c 132,-1,56
 1587 -65 1587 -65 1676 -16 c 132,-1,57
 1765 33 1765 33 1841 84 c 5,58,-1
 1882 31 l 5,59,60
 1845 -3 1845 -3 1795 -47 c 4,61,62
 1683 -145 1683 -145 1530 -232 c 4,63,64
 1451 -277 1451 -277 1382.5 -310.5 c 132,-1,65
 1314 -344 1314 -344 1219.5 -365 c 132,-1,66
 1125 -386 1125 -386 1054 -386 c 4,67,68
 909 -386 909 -386 805.5 -362 c 132,-1,69
 702 -338 702 -338 604.5 -297.5 c 132,-1,70
 507 -257 507 -257 427 -188.5 c 132,-1,71
 347 -120 347 -120 278 -9.5 c 132,-1,72
 209 101 209 101 165.5 240 c 132,-1,73
 122 379 122 379 122 542 c 4,74,75
 122 673 122 673 149 808.5 c 132,-1,76
 176 944 176 944 238.5 1065.5 c 132,-1,77
 301 1187 301 1187 385.5 1284.5 c 132,-1,78
 470 1382 470 1382 578.5 1458.5 c 132,-1,79
 687 1535 687 1535 828 1578.5 c 132,-1,80
 969 1622 969 1622 1166 1622 c 4,81,82
 1209 1622 1209 1622 1286.5 1602 c 132,-1,83
 1364 1582 1364 1582 1452 1538.5 c 132,-1,84
 1540 1495 1540 1495 1633 1427 c 4,85,86
 1678 1394 1678 1394 1718 1354 c 4,87,88
 1845 1227 1845 1227 1905 1046 c 4,89,90
 1946 923 1946 923 1946 768 c 4,91,92
 1946 572 1946 572 1855 389 c 4,93,94
 1812 302 1812 302 1769 252 c 4,95,96
 1667 129 1667 129 1593 79 c 4,97,98
 1545 48 1545 48 1444 18 c 4,99,100
 1379 -2 1379 -2 1321.5 -2 c 132,-1,101
 1264 -2 1264 -2 1224 18 c 4,102,103
 1195 33 1195 33 1174 54 c 4,104,105
 1136 93 1136 93 1120 149 c 4,106,107
 1108 191 1108 191 1106 232 c 6,108,-1
 1104 267 l 5,109,-1
 1094 234 l 6,110,111
 1079 182 1079 182 1055 139 c 4,112,113
 978 -2 978 -2 812 -2 c 4,114,115
 704 -2 704 -2 624 78 c 4,116,117
 552 150 552 150 523 271 c 4,118,119
 502 357 502 357 502 464 c 4,120,121
 502 647 502 647 537 782 c 132,-1,122
 572 917 572 917 632 1004 c 132,-1,123
 692 1091 692 1091 772.5 1133.5 c 132,-1,124
 853 1176 853 1176 942 1176 c 4,125,126
 1006 1176 1006 1176 1052 1152 c 132,-1,127
 1098 1128 1098 1128 1127 1087 c 4,128,129
 1184 1007 1184 1007 1188 868 c 6,130,-1
 1190 808 l 5,131,-1
 1233 1070 l 5,132,-1
 1532 1070 l 5,133,134
 1519 1022 1519 1022 1505 956 c 4,135,136
 1466 773 1466 773 1449 641 c 4,137,138
 1438 557 1438 557 1429 478 c 132,-1,139
 1420 399 1420 399 1415 329.5 c 132,-1,140
 1410 260 1410 260 1410 215 c 132,-1,141
 1410 170 1410 170 1424.5 152 c 132,-1,142
 1439 134 1439 134 1460 134 c 4,24,25
EndSplineSet
EndChar

StartChar: A
Encoding: 65 65 33
Width: 1492
GlyphClass: 2
Flags: W
LayerCount: 4
Back
SplineSet
64 80 m 1,0,1
 122 80 122 80 152 90 c 128,-1,2
 182 100 182 100 192 130 c 2,3,-1
 558 1418 l 1,4,-1
 868 1418 l 1,5,-1
 1296 80 l 1,6,-1
 1422 80 l 1,7,-1
 1422 0 l 1,8,-1
 616 0 l 1,9,-1
 616 80 l 1,10,-1
 754 80 l 1,11,-1
 656 424 l 1,12,-1
 342 424 l 1,13,-1
 258 134 l 2,14,15
 258 132 258 132 258 124 c 0,16,17
 258 110 258 110 268 102 c 128,-1,18
 278 94 278 94 296 89 c 128,-1,19
 314 84 314 84 337 82 c 128,-1,20
 360 80 360 80 390 80 c 1,21,-1
 390 0 l 1,22,-1
 64 0 l 1,23,-1
 64 80 l 1,0,1
632 504 m 1,24,-1
 496 974 l 1,25,-1
 364 504 l 1,26,-1
 632 504 l 1,24,-1
EndSplineSet
Fore
SplineSet
64 0 m 1,0,-1
 64 80 l 1,1,2
 122 80 122 80 152 90 c 128,-1,3
 182 100 182 100 192 130 c 2,4,-1
 558 1418 l 1,5,-1
 868 1418 l 1,6,-1
 1296 80 l 1,7,-1
 1422 80 l 1,8,-1
 1422 0 l 1,9,-1
 616 0 l 1,10,-1
 616 80 l 1,11,-1
 754 80 l 1,12,-1
 656 424 l 1,13,-1
 342 424 l 1,14,-1
 258 134 l 1,15,-1
 258 124 l 2,16,17
 258 80 258 80 390 80 c 1,18,-1
 390 0 l 1,19,-1
 64 0 l 1,0,-1
364 504 m 1,20,-1
 632 504 l 1,21,-1
 496 974 l 1,22,-1
 364 504 l 1,20,-1
849 110 m 1,23,-1
 852 100 l 1,24,-1
 871 100 l 1,25,-1
 1125 288 l 1,26,-1
 1119 307 l 1,27,-1
 849 110 l 1,23,-1
741 486 m 1,28,-1
 784 522 l 1,29,-1
 996 692 l 1,30,-1
 986 722 l 1,31,-1
 728 529 l 1,32,-1
 741 486 l 1,28,-1
790 314 m 1,33,34
 986 456 986 456 990 460 c 0,35,36
 996 464 996 464 1014 477 c 2,37,-1
 1055 507 l 1,38,-1
 1042 547 l 1,39,-1
 1011 523 l 2,40,41
 951 478 951 478 836 393 c 1,42,-1
 779 353 l 1,43,-1
 790 314 l 1,33,34
803 271 m 1,44,-1
 1067 467 l 1,45,-1
 1057 500 l 1,46,-1
 989 449 l 2,47,48
 882 371 882 371 792 307 c 1,49,-1
 803 271 l 1,44,-1
822 204 m 1,50,-1
 1089 401 l 1,51,-1
 1070 459 l 1,52,-1
 805 264 l 1,53,-1
 822 204 l 1,50,-1
833 166 m 1,54,-1
 1101 363 l 1,55,-1
 1091 394 l 1,56,-1
 824 197 l 1,57,-1
 833 166 l 1,54,-1
754 440 m 1,58,-1
 1015 631 l 1,59,-1
 998 684 l 1,60,-1
 790 516 l 1,61,-1
 743 478 l 1,62,-1
 754 440 l 1,58,-1
777 361 m 1,63,-1
 832 399 l 1,64,-1
 1007 529 l 1,65,-1
 1040 554 l 1,66,-1
 1017 624 l 1,67,-1
 756 432 l 1,68,-1
 777 361 l 1,63,-1
608 948 m 1,69,70
 636 989 636 989 637 989 c 2,71,-1
 847 1144 l 1,72,-1
 850 1147 l 1,73,-1
 827 1218 l 1,74,-1
 772 1163 l 2,75,76
 706 1098 706 1098 644 1038 c 0,77,78
 611 1006 611 1006 595 991 c 1,79,-1
 608 948 l 1,69,70
642 829 m 1,80,-1
 787 939 l 1,81,-1
 893 1012 l 1,82,-1
 871 1080 l 1,83,-1
 756 988 l 1,84,-1
 662 923 l 1,85,-1
 625 886 l 1,86,-1
 642 829 l 1,80,-1
623 896 m 1,87,88
 654 927 654 927 657 929 c 2,89,-1
 752 994 l 1,90,-1
 868 1089 l 1,91,-1
 852 1139 l 1,92,93
 851 1138 851 1138 642 983 c 1,94,95
 625 958 625 958 611 938 c 1,96,-1
 623 896 l 1,87,88
657 775 m 1,97,-1
 907 967 l 1,98,-1
 895 1005 l 1,99,-1
 791 933 l 1,100,-1
 644 822 l 1,101,-1
 657 775 l 1,97,-1
676 713 m 1,102,-1
 927 906 l 1,103,-1
 910 959 l 1,104,-1
 660 768 l 1,105,-1
 676 713 l 1,102,-1
692 654 m 1,106,-1
 817 749 l 1,107,-1
 945 851 l 1,108,-1
 929 898 l 1,109,-1
 678 706 l 1,110,-1
 692 654 l 1,106,-1
700 626 m 1,111,-1
 955 817 l 1,112,-1
 947 843 l 1,113,-1
 821 743 l 2,114,115
 772 706 772 706 694 647 c 1,116,-1
 700 626 l 1,111,-1
726 537 m 1,117,-1
 984 728 l 1,118,-1
 970 770 l 1,119,-1
 715 577 l 1,120,-1
 726 537 l 1,117,-1
712 585 m 1,121,-1
 968 778 l 1,122,-1
 958 809 l 1,123,-1
 703 619 l 1,124,-1
 712 585 l 1,121,-1
593 1000 m 1,125,-1
 766 1169 l 1,126,-1
 824 1227 l 1,127,-1
 801 1298 l 1,128,129
 763 1254 763 1254 756 1248 c 2,130,-1
 570 1079 l 1,131,-1
 593 1000 l 1,125,-1
847 117 m 1,132,-1
 1116 316 l 1,133,-1
 1103 356 l 1,134,-1
 835 159 l 1,135,-1
 847 117 l 1,132,-1
632 1311 m 1,136,-1
 638 1318 l 1,137,-1
 634 1318 l 1,138,-1
 632 1311 l 1,136,-1
569 1088 m 1,139,-1
 751 1254 l 1,140,-1
 798 1308 l 1,141,-1
 795 1318 l 1,142,-1
 719 1318 l 1,143,-1
 679 1276 l 2,144,145
 637 1235 637 1235 600 1199 c 1,146,-1
 569 1088 l 1,139,-1
605 1218 m 1,147,-1
 673 1282 l 2,148,149
 690 1301 690 1301 706 1318 c 1,150,-1
 649 1318 l 1,151,-1
 627 1292 l 1,152,-1
 605 1218 l 1,147,-1
1127 281 m 1,153,-1
 883 100 l 1,154,-1
 907 100 l 1,155,-1
 967 149 l 1,156,-1
 1133 261 l 1,157,-1
 1127 281 l 1,153,-1
1136 254 m 1,158,-1
 971 143 l 1,159,-1
 918 100 l 1,160,-1
 1007 100 l 1,161,-1
 1036 124 l 1,162,-1
 1150 209 l 1,163,-1
 1136 254 l 1,158,-1
1153 201 m 1,164,-1
 1040 118 l 1,165,-1
 1018 100 l 1,166,-1
 1125 100 l 1,167,-1
 1174 134 l 1,168,-1
 1153 201 l 1,164,-1
1176 128 m 1,169,170
 1155 113 1155 113 1137 100 c 1,171,-1
 1185 100 l 1,172,-1
 1176 128 l 1,169,170
EndSplineSet
Validated: 3073
Layer: 3
SplineSet
640 498 m 5,0,-1
 496 996 l 5,1,-1
 356 498 l 5,2,-1
 640 498 l 5,0,-1
252 134 m 21,3,4
 248 112 248 112 261 100 c 4,5,6
 288 75 288 75 384 74 c 5,7,-1
 384 6 l 5,8,-1
 70 6 l 5,9,-1
 70 74 l 5,10,11
 125 74 125 74 154 84 c 4,12,13
 170 90 170 90 181.5 101 c 132,-1,14
 193 112 193 112 198 128 c 6,15,-1
 563 1412 l 5,16,-1
 864 1412 l 5,17,-1
 1292 74 l 5,18,-1
 1416 74 l 5,19,-1
 1416 6 l 5,20,-1
 622 6 l 5,21,-1
 622 74 l 5,22,-1
 762 74 l 5,23,-1
 661 430 l 5,24,-1
 337 430 l 5,25,-1
 252 134 l 21,3,4
EndSplineSet
EndChar

StartChar: B
Encoding: 66 66 34
Width: 1378
GlyphClass: 2
Flags: W
LayerCount: 4
Back
SplineSet
92 80 m 5,0,-1
 218 80 l 5,1,-1
 218 1340 l 5,2,-1
 92 1340 l 5,3,-1
 92 1418 l 5,4,-1
 812 1418 l 6,5,6
 904 1418 904 1418 983 1402 c 132,-1,7
 1062 1386 1062 1386 1121 1346 c 132,-1,8
 1180 1306 1180 1306 1214 1239 c 132,-1,9
 1248 1172 1248 1172 1248 1070 c 4,10,11
 1248 986 1248 986 1223 925 c 132,-1,12
 1198 864 1198 864 1148 824 c 132,-1,13
 1098 784 1098 784 1018 765 c 132,-1,14
 938 746 938 746 828 744 c 5,15,16
 888 744 888 744 948 739 c 132,-1,17
 1008 734 1008 734 1061 721 c 132,-1,18
 1114 708 1114 708 1160 684 c 132,-1,19
 1206 660 1206 660 1242 620 c 4,20,21
 1274 580 1274 580 1294 522 c 4,22,23
 1314 466 1314 466 1314 386 c 4,24,25
 1314 272 1314 272 1284 196 c 132,-1,26
 1254 120 1254 120 1196 77 c 132,-1,27
 1138 34 1138 34 1054 17 c 132,-1,28
 970 0 970 0 864 0 c 6,29,-1
 92 0 l 5,30,-1
 92 80 l 5,0,-1
706 774 m 5,31,32
 738 774 738 774 766 785 c 132,-1,33
 794 796 794 796 815 828 c 132,-1,34
 836 860 836 860 847 916 c 132,-1,35
 858 972 858 972 858 1062 c 260,36,37
 858 1152 858 1152 847 1208 c 132,-1,38
 836 1264 836 1264 815 1294 c 132,-1,39
 794 1324 794 1324 766 1335 c 132,-1,40
 738 1346 738 1346 706 1346 c 5,41,-1
 706 774 l 5,31,32
706 80 m 5,42,43
 744 80 744 80 773 89 c 132,-1,44
 802 98 802 98 821 127 c 132,-1,45
 840 156 840 156 849 210 c 132,-1,46
 858 264 858 264 858 354 c 4,47,48
 858 534 858 534 821 617 c 132,-1,49
 784 700 784 700 706 700 c 5,50,-1
 706 80 l 5,42,43
EndSplineSet
Fore
SplineSet
92 0 m 1,0,-1
 92 80 l 1,1,-1
 218 80 l 1,2,-1
 218 1340 l 1,3,-1
 92 1340 l 1,4,-1
 92 1418 l 1,5,-1
 812 1418 l 2,6,7
 839 1418 839 1418 865 1417 c 0,8,9
 927 1414 927 1414 983 1402 c 0,10,11
 1062 1386 1062 1386 1121 1346 c 128,-1,12
 1180 1306 1180 1306 1214 1239 c 128,-1,13
 1248 1172 1248 1172 1248 1079 c 0,14,15
 1248 1077 1248 1077 1248 1074.5 c 128,-1,16
 1248 1072 1248 1072 1248 1070 c 0,17,18
 1248 986 1248 986 1223 925 c 128,-1,19
 1198 864 1198 864 1148 824 c 128,-1,20
 1098 784 1098 784 1018 765 c 0,21,22
 963 752 963 752 893 747 c 0,23,24
 862 745 862 745 828 744 c 1,25,26
 888 744 888 744 948 739 c 128,-1,27
 1008 734 1008 734 1061 721 c 128,-1,28
 1114 708 1114 708 1160 684 c 128,-1,29
 1206 660 1206 660 1242 620 c 0,30,31
 1314 530 1314 530 1314 401 c 0,32,33
 1314 397 1314 397 1314 392 c 0,34,35
 1314 389 1314 389 1314 386 c 0,36,37
 1314 272 1314 272 1284 196 c 128,-1,38
 1254 120 1254 120 1196 77 c 128,-1,39
 1138 34 1138 34 1054 17 c 0,40,41
 1005 7 1005 7 949 3 c 0,42,43
 909 0 909 0 864 0 c 2,44,-1
 92 0 l 1,0,-1
706 1346 m 1,45,-1
 706 774 l 1,46,47
 729 774 729 774 749 780 c 0,48,49
 787 791 787 791 811 822 c 0,50,51
 813 825 813 825 815 828 c 0,52,53
 858 894 858 894 858 1062 c 0,54,55
 858 1285 858 1285 776 1330 c 0,56,57
 771 1333 771 1333 766 1335 c 0,58,59
 738 1346 738 1346 706 1346 c 1,45,-1
706 700 m 1,60,-1
 706 80 l 1,61,62
 790 80 790 80 821 127 c 0,63,64
 823 129 823 129 824 132 c 0,65,66
 858 190 858 190 858 356 c 0,67,68
 858 534 858 534 821 617 c 128,-1,69
 784 700 784 700 706 700 c 1,60,-1
1189 229 m 1,70,-1
 1040 118 l 1,71,-1
 1037 116 l 1,72,73
 1097 129 1097 129 1137 157 c 0,74,75
 1170 183 1170 183 1189 229 c 1,70,-1
1209 304 m 1,76,-1
 971 143 l 1,77,-1
 921 103 l 2,78,79
 921 102 921 102 921 101 c 1,80,81
 976 104 976 104 1022 113 c 1,82,-1
 1036 124 l 1,83,-1
 1194 241 l 1,84,85
 1204 269 1204 269 1209 304 c 1,76,-1
1213 344 m 1,86,-1
 935 139 l 1,87,88
 931 128 931 128 927 117 c 1,89,-1
 967 149 l 1,90,-1
 1210 314 l 1,91,92
 1212 329 1212 329 1213 344 c 1,86,-1
1213 353 m 1,93,94
 1214 365 1214 365 1214 378 c 1,95,-1
 945 180 l 1,96,97
 942 164 942 164 938 150 c 1,98,-1
 1213 353 l 1,93,94
947 190 m 1,99,-1
 1214 387 l 1,100,101
 1214 413 1214 413 1211 435 c 1,102,-1
 954 246 l 1,103,104
 952 217 952 217 948 193 c 0,105,106
 947 192 947 192 947 190 c 1,99,-1
957 304 m 1,107,-1
 1201 485 l 2,108,109
 1200 487 1200 487 1200 488 c 0,110,111
 1190 517 1190 517 1177 539 c 1,112,-1
 958 377 l 1,113,114
 958 368 958 368 958 359 c 0,115,116
 958 330 958 330 957 304 c 1,107,-1
957 294 m 1,117,118
 956 274 956 274 955 256 c 1,119,-1
 1210 443 l 1,120,121
 1207 461 1207 461 1203 478 c 1,122,-1
 957 294 l 1,117,118
952 488 m 1,123,-1
 1007 529 l 1,124,-1
 1102 601 l 1,125,126
 1073 615 1073 615 1037 624 c 0,127,128
 1029 626 1029 626 1021 628 c 1,129,-1
 940 568 l 1,130,131
 943 553 943 553 946 536 c 0,132,133
 949 513 949 513 952 488 c 1,123,-1
953 480 m 1,134,135
 955 459 955 459 956 435 c 1,136,137
 989 459 989 459 990 460 c 0,138,139
 996 464 996 464 1014 477 c 0,140,141
 1102 543 1102 543 1145 575 c 1,142,143
 1129 588 1129 588 1109 598 c 1,144,-1
 1011 523 l 2,145,146
 987 505 987 505 953 480 c 1,134,135
958 386 m 1,147,-1
 1173 545 l 1,148,149
 1170 550 1170 550 1166 555 c 0,150,151
 1159 563 1159 563 1150 570 c 1,152,-1
 989 449 l 2,153,154
 973 437 973 437 957 425 c 1,155,156
 958 406 958 406 958 386 c 1,147,-1
925 625 m 1,157,158
 933 602 933 602 938 575 c 1,159,-1
 1012 629 l 1,160,161
 980 635 980 635 942 639 c 1,162,-1
 925 625 l 1,157,158
922 633 m 1,163,-1
 931 640 l 1,164,165
 925 640 925 640 919 641 c 1,166,167
 921 637 921 637 922 633 c 1,163,-1
1143 1008 m 1,168,169
 1148 1034 1148 1034 1148 1066 c 1,170,-1
 1082 1003 l 1,171,-1
 1042 968 l 1,172,-1
 1036 974 l 1,173,-1
 1076 1009 l 1,174,-1
 1148 1077 l 1,175,176
 1148 1091 1148 1091 1147 1103 c 1,177,-1
 1067 1043 l 1,178,-1
 982 958 l 1,179,-1
 949 918 l 1,180,181
 947 904 947 904 944 892 c 0,182,183
 940 871 940 871 934 851 c 1,184,185
 941 852 941 852 948 853 c 2,186,-1
 1143 1008 l 1,168,169
1141 997 m 1,187,-1
 963 856 l 1,188,189
 1001 863 1001 863 1030 873 c 1,190,-1
 1118 939 l 1,191,192
 1125 950 1125 950 1130 963 c 0,193,194
 1137 979 1137 979 1141 997 c 1,187,-1
1101 916 m 1,195,-1
 1060 886 l 1,196,197
 1074 894 1074 894 1086 902 c 0,198,199
 1094 908 1094 908 1101 916 c 1,195,-1
958 1054 m 1,200,201
 958 1028 958 1028 957 1003 c 1,202,203
 987 1026 987 1026 1016 1049 c 2,204,-1
 1138 1158 l 1,205,206
 1130 1190 1130 1190 1122 1198 c 1,207,-1
 1077 1153 l 1,208,-1
 1071 1159 l 1,209,-1
 1118 1206 l 1,210,211
 1112 1216 1112 1216 1105 1226 c 1,212,-1
 1027 1123 l 1,213,214
 981 1076 981 1076 958 1054 c 1,200,201
951 933 m 1,215,-1
 976 964 l 1,216,217
 1054 1043 1054 1043 1062 1049 c 2,218,-1
 1146 1113 l 1,219,220
 1144 1133 1144 1133 1140 1149 c 1,221,-1
 1021 1043 l 1,222,-1
 956 994 l 1,223,224
 955 961 955 961 951 933 c 1,215,-1
954 1164 m 1,225,-1
 1063 1265 l 1,226,227
 1042 1279 1042 1279 1017 1288 c 1,228,-1
 947 1219 l 1,229,230
 951 1194 951 1194 954 1164 c 1,225,-1
955 1153 m 1,231,232
 958 1113 958 1113 958 1066 c 1,233,-1
 1021 1129 l 1,234,-1
 1099 1232 l 1,235,236
 1086 1248 1086 1248 1069 1260 c 1,237,-1
 955 1153 l 1,231,232
945 1228 m 1,238,-1
 1008 1291 l 1,239,240
 987 1299 987 1299 963 1304 c 0,241,242
 942 1308 942 1308 919 1311 c 1,243,244
 936 1275 936 1275 945 1228 c 1,238,-1
606 931 m 1,245,246
 553 854 553 854 551 853 c 2,247,-1
 406 753 l 1,248,-1
 318 680 l 1,249,-1
 318 597 l 1,250,-1
 606 802 l 1,251,-1
 606 931 l 1,245,246
606 243 m 1,252,-1
 606 321 l 1,253,-1
 318 108 l 1,254,-1
 318 100 l 1,255,-1
 406 100 l 1,256,-1
 606 243 l 1,252,-1
606 330 m 1,257,-1
 606 364 l 1,258,-1
 318 169 l 1,259,-1
 318 117 l 1,260,-1
 606 330 l 1,257,-1
606 117 m 1,261,-1
 584 100 l 1,262,-1
 606 100 l 1,263,-1
 606 117 l 1,261,-1
606 126 m 1,264,-1
 606 173 l 1,265,266
 549 132 549 132 504 100 c 1,267,-1
 570 100 l 1,268,-1
 606 126 l 1,264,-1
606 234 m 1,269,-1
 418 100 l 1,270,-1
 493 100 l 1,271,272
 553 143 553 143 606 182 c 1,273,-1
 606 234 l 1,269,-1
606 438 m 1,274,-1
 318 222 l 1,275,-1
 318 178 l 1,276,277
 318 178 318 178 606 374 c 1,278,-1
 606 438 l 1,274,-1
606 447 m 1,279,-1
 606 496 l 1,280,-1
 318 278 l 1,281,-1
 318 231 l 1,282,-1
 606 447 l 1,279,-1
606 505 m 1,283,-1
 606 546 l 1,284,-1
 318 331 l 1,285,-1
 318 287 l 1,286,-1
 606 505 l 1,283,-1
606 556 m 1,287,-1
 606 580 l 1,288,289
 606 580 606 580 318 376 c 1,290,-1
 318 340 l 1,291,-1
 606 556 l 1,287,-1
606 650 m 1,292,-1
 571 623 l 1,293,-1
 366 483 l 1,294,-1
 318 447 l 1,295,-1
 318 385 l 1,296,297
 318 385 318 385 606 590 c 1,298,-1
 606 650 l 1,292,-1
606 727 m 1,299,-1
 436 598 l 1,300,-1
 318 517 l 1,301,-1
 318 456 l 1,302,-1
 362 489 l 1,303,-1
 567 629 l 1,304,-1
 606 659 l 1,305,-1
 606 727 l 1,299,-1
606 793 m 17,306,307
 606 793 606 793 318 589 c 1,308,-1
 318 526 l 1,309,-1
 432 604 l 1,310,311
 519 670 519 670 606 736 c 1,312,-1
 606 793 l 17,306,307
606 1001 m 1,313,314
 584 980 584 980 581 978 c 2,315,-1
 356 803 l 1,316,-1
 318 778 l 1,317,-1
 318 689 l 1,318,-1
 402 759 l 1,319,-1
 546 859 l 1,320,321
 584 913 584 913 606 945 c 1,322,-1
 606 1001 l 1,313,314
606 1113 m 1,323,-1
 318 855 l 1,324,-1
 318 787 l 1,325,-1
 352 809 l 1,326,327
 464 896 464 896 576 984 c 1,328,-1
 606 1013 l 1,329,-1
 606 1113 l 1,323,-1
606 1210 m 1,330,-1
 318 950 l 1,331,-1
 318 862 l 1,332,333
 408 943 408 943 606 1122 c 1,334,-1
 606 1210 l 1,330,-1
606 1272 m 1,335,-1
 318 1026 l 1,336,-1
 318 959 l 1,337,-1
 606 1221 l 1,338,-1
 606 1272 l 1,335,-1
606 1283 m 1,339,-1
 606 1318 l 1,340,-1
 554 1318 l 1,341,342
 498 1262 498 1262 496 1261 c 2,343,-1
 318 1129 l 1,344,-1
 318 1035 l 1,345,-1
 606 1283 l 1,339,-1
318 1194 m 1,346,-1
 318 1139 l 1,347,-1
 491 1267 l 1,348,-1
 542 1318 l 1,349,-1
 453 1318 l 1,350,-1
 381 1236 l 1,351,-1
 318 1194 l 1,346,-1
318 1314 m 1,352,-1
 318 1203 l 1,353,354
 347 1222 347 1222 376 1242 c 1,355,-1
 442 1318 l 1,356,-1
 323 1318 l 1,357,-1
 318 1314 l 1,352,-1
EndSplineSet
Validated: 3073
Layer: 3
SplineSet
700 74 m 5,0,1
 745 74 745 74 775 83 c 4,2,3
 795 90 795 90 811 106 c 4,4,5
 843 137 843 137 855 209 c 4,6,7
 864 264 864 264 864 354 c 4,8,9
 864 535 864 535 826 619 c 4,10,11
 788 706 788 706 706 706 c 6,12,-1
 700 706 l 5,13,-1
 700 74 l 5,0,1
700 768 m 5,14,-1
 706 768 l 6,15,16
 739 768 739 768 768 779 c 4,17,18
 787 787 787 787 802 802 c 4,19,20
 838 838 838 838 853 915 c 4,21,22
 864 971 864 971 864 1062 c 132,-1,23
 864 1153 864 1153 853 1209.5 c 132,-1,24
 842 1266 842 1266 820 1297.5 c 132,-1,25
 798 1329 798 1329 768 1341 c 4,26,27
 739 1352 739 1352 706 1352 c 6,28,-1
 700 1352 l 5,29,-1
 700 768 l 5,14,-1
224 1346 m 5,30,-1
 98 1346 l 5,31,-1
 98 1412 l 5,32,-1
 812 1412 l 6,33,34
 903 1412 903 1412 981.5 1396 c 132,-1,35
 1060 1380 1060 1380 1117.5 1341 c 132,-1,36
 1175 1302 1175 1302 1208.5 1236.5 c 132,-1,37
 1242 1171 1242 1171 1242 1070 c 4,38,39
 1242 925 1242 925 1164 847 c 4,40,41
 1111 793 1111 793 1016 771 c 4,42,43
 937 752 937 752 828 750 c 6,44,-1
 768 749 l 5,45,-1
 768 738 l 5,46,-1
 828 738 l 6,47,48
 887 738 887 738 947 733 c 4,49,50
 1076.1720519 722.748249849 1076.1720519 722.748249849 1157 679 c 4,51,52
 1207 654 1207 654 1239.03427419 615.961693548 c 132,-1,53
 1271.06854839 577.923387097 1271.06854839 577.923387097 1288 520 c 5,54,55
 1308 465 1308 465 1308 386 c 4,56,57
 1308 273 1308 273 1278.5 198.5 c 132,-1,58
 1249 124 1249 124 1192 82 c 132,-1,59
 1135 40 1135 40 1052 23 c 132,-1,60
 969 6 969 6 864 6 c 6,61,-1
 98 6 l 5,62,-1
 98 74 l 5,63,-1
 224 74 l 5,64,-1
 224 1346 l 5,30,-1
EndSplineSet
EndChar

StartChar: C
Encoding: 67 67 35
Width: 1324
GlyphClass: 2
Flags: W
LayerCount: 4
Back
SplineSet
86 676 m 4,0,1
 86 842 86 842 124 984 c 132,-1,2
 162 1126 162 1126 237 1231 c 132,-1,3
 312 1336 312 1336 425 1395 c 132,-1,4
 538 1454 538 1454 688 1454 c 4,5,6
 796 1454 796 1454 891 1408 c 132,-1,7
 986 1362 986 1362 1064 1256 c 5,8,-1
 1150 1440 l 5,9,-1
 1200 1440 l 5,10,-1
 1200 790 l 5,11,-1
 1146 790 l 5,12,13
 1120 950 1120 950 1076 1055 c 132,-1,14
 1032 1160 1032 1160 980 1222 c 132,-1,15
 928 1284 928 1284 872 1310 c 132,-1,16
 816 1336 816 1336 766 1336 c 4,17,18
 742 1336 742 1336 717 1331 c 132,-1,19
 692 1326 692 1326 671 1306 c 132,-1,20
 650 1286 650 1286 630 1249 c 132,-1,21
 610 1212 610 1212 597 1149 c 132,-1,22
 584 1086 584 1086 576 993 c 132,-1,23
 568 900 568 900 568 768 c 4,24,25
 568 630 568 630 574 527 c 132,-1,26
 580 424 580 424 592 347 c 132,-1,27
 604 270 604 270 621 220 c 132,-1,28
 638 170 638 170 663 140 c 132,-1,29
 688 110 688 110 719 98 c 132,-1,30
 750 86 750 86 786 86 c 4,31,32
 858 86 858 86 919 117 c 132,-1,33
 980 148 980 148 1028 213 c 132,-1,34
 1076 278 1076 278 1107 383 c 132,-1,35
 1138 488 1138 488 1146 632 c 5,36,-1
 1208 632 l 5,37,38
 1202 490 1202 490 1172 369 c 132,-1,39
 1142 248 1142 248 1081 157 c 132,-1,40
 1020 66 1020 66 923 14 c 132,-1,41
 826 -38 826 -38 684 -38 c 4,42,43
 548 -38 548 -38 438 14 c 132,-1,44
 328 66 328 66 249 161 c 132,-1,45
 170 256 170 256 128 387 c 132,-1,46
 86 518 86 518 86 676 c 4,0,1
EndSplineSet
Fore
SplineSet
596 1146 m 1,0,1
 584 1083 584 1083 576 993 c 0,2,3
 569 907 569 907 568 787 c 0,4,5
 568 769 568 769 568 751 c 0,6,7
 568 626 568 626 574 527 c 0,8,9
 580 424 580 424 592 347 c 128,-1,10
 604 270 604 270 621 220 c 0,11,12
 639 167 639 167 663 140 c 0,13,14
 713 87 713 87 785 86 c 0,15,16
 787 86 787 86 789 86 c 0,17,18
 859 86 859 86 919 117 c 0,19,20
 984 150 984 150 1042 233 c 0,21,22
 1072 276 1072 276 1096 348 c 0,23,24
 1110 389 1110 389 1122 441 c 0,25,26
 1139 515 1139 515 1146 632 c 1,27,28
 1208 632 1208 632 1208 632 c 1,29,30
 1202 480 1202 480 1170 362 c 0,31,32
 1137 241 1137 241 1081 157 c 0,33,34
 1020 66 1020 66 923 14 c 128,-1,35
 826 -38 826 -38 687 -38 c 128,-1,36
 548 -38 548 -38 438 14 c 128,-1,37
 328 66 328 66 249 161 c 0,38,39
 86 357 86 357 86 676 c 0,40,41
 86 1020 86 1020 237 1231 c 0,42,43
 396 1454 396 1454 688 1454 c 0,44,45
 785 1454 785 1454 868 1419 c 0,46,47
 977 1374 977 1374 1064 1256 c 1,48,49
 1064 1256 1064 1256 1150 1440 c 1,50,-1
 1200 1440 l 1,51,-1
 1200 790 l 1,52,-1
 1146 790 l 1,53,54
 1144 800 1144 800 1143 810 c 0,55,56
 1133 910 1133 910 1084 1035 c 0,57,58
 1038 1152 1038 1152 980 1222 c 0,59,60
 926 1286 926 1286 872 1310 c 0,61,62
 816 1335 816 1335 762 1335 c 0,63,64
 740 1335 740 1335 717 1331 c 0,65,66
 670 1322 670 1322 630 1249 c 0,67,68
 610 1213 610 1213 596 1146 c 1,0,1
406 1265 m 1,69,-1
 381 1236 l 1,70,-1
 358 1221 l 1,71,72
 337 1199 337 1199 318 1173 c 0,73,74
 298 1145 298 1145 281 1113 c 1,75,-1
 337 1157 l 1,76,77
 414 1212 414 1212 491 1267 c 1,78,-1
 565 1341 l 1,79,80
 515 1329 515 1329 471 1306 c 0,81,82
 436 1288 436 1288 406 1265 c 1,69,-1
555 1319 m 1,83,84
 498 1262 498 1262 496 1261 c 2,85,-1
 341 1151 l 1,86,-1
 273 1097 l 1,87,88
 241 1033 241 1033 220 956 c 0,89,90
 220 955 220 955 220 954 c 1,91,-1
 287 1002 l 1,92,-1
 504 1193 l 1,93,94
 519 1254 519 1254 542 1297 c 0,95,96
 548 1308 548 1308 555 1319 c 1,83,84
501 1180 m 1,97,-1
 291 996 l 1,98,-1
 217 943 l 1,99,100
 206 900 206 900 199 856 c 1,101,102
 285 925 285 925 371 994 c 1,103,-1
 488 1105 l 1,104,105
 493 1139 493 1139 499 1169 c 0,106,107
 500 1175 500 1175 501 1180 c 1,97,-1
468 796 m 1,108,-1
 406 753 l 1,109,-1
 286 653 l 1,110,-1
 190 586 l 1,111,112
 193 549 193 549 199 515 c 1,113,-1
 468 701 l 1,114,115
 468 732 468 732 468 766 c 0,116,117
 468 781 468 781 468 796 c 1,108,-1
470 892 m 1,118,-1
 356 803 l 1,119,-1
 186 693 l 1,120,121
 186 687 186 687 186 681 c 0,122,123
 186 636 186 636 189 594 c 1,124,-1
 282 659 l 1,125,-1
 402 759 l 1,126,-1
 468 805 l 1,127,128
 469 851 469 851 470 892 c 1,118,-1
476 1001 m 1,129,-1
 442 973 l 1,130,-1
 356 876 l 2,131,132
 329 845 329 845 326 843 c 2,133,-1
 236 783 l 1,134,-1
 188 754 l 1,135,136
 186 729 186 729 186 702 c 1,137,-1
 352 809 l 1,138,139
 411 855 411 855 471 901 c 1,140,141
 472 954 472 954 476 1001 c 1,129,-1
486 1089 m 1,142,143
 398 1005 398 1005 376 988 c 2,144,-1
 197 845 l 1,145,146
 191 805 191 805 189 762 c 1,147,-1
 232 789 l 2,148,149
 277 819 277 819 321 849 c 1,150,-1
 436 979 l 2,151,152
 452 997 452 997 478 1018 c 1,153,154
 482 1056 482 1056 486 1089 c 1,142,143
472 556 m 1,155,-1
 366 483 l 1,156,-1
 235 385 l 1,157,158
 244 362 244 362 254 340 c 1,159,-1
 267 349 l 1,160,-1
 476 497 l 1,161,162
 475 509 475 509 474 521 c 0,163,164
 473 538 473 538 472 556 c 1,155,-1
470 624 m 1,165,-1
 436 598 l 1,166,-1
 215 446 l 1,167,168
 219 433 219 433 223 419 c 128,-1,169
 227 405 227 405 232 392 c 1,170,-1
 362 489 l 1,171,-1
 472 564 l 1,172,173
 471 593 471 593 470 624 c 1,165,-1
468 693 m 1,174,175
 368 624 368 624 201 508 c 1,176,177
 206 480 206 480 213 453 c 1,178,-1
 432 604 l 2,179,180
 451 618 451 618 470 633 c 1,181,182
 468 662 468 662 468 693 c 1,174,175
509 249 m 1,183,-1
 390 162 l 1,184,185
 414 142 414 142 441 126 c 1,186,-1
 527 186 l 2,187,188
 527 187 527 187 526 188 c 0,189,190
 517 215 517 215 509 249 c 1,183,-1
507 257 m 1,191,192
 503 274 503 274 500 292 c 1,193,-1
 354 194 l 1,194,195
 369 179 369 179 384 166 c 1,196,-1
 507 257 l 1,191,192
490 351 m 1,197,-1
 324 227 l 1,198,199
 336 212 336 212 349 199 c 1,200,-1
 499 300 l 1,201,202
 494 324 494 324 490 351 c 1,197,-1
484 403 m 1,203,-1
 298 263 l 1,204,205
 309 247 309 247 320 232 c 1,206,-1
 489 359 l 1,207,208
 486 380 486 380 484 403 c 1,203,-1
479 451 m 1,209,-1
 275 299 l 1,210,211
 284 283 284 283 293 269 c 1,212,-1
 483 411 l 1,213,214
 481 430 481 430 479 451 c 1,209,-1
476 488 m 1,215,-1
 271 343 l 1,216,-1
 257 334 l 1,217,218
 264 319 264 319 271 305 c 1,219,-1
 478 460 l 1,220,221
 477 474 477 474 476 488 c 1,215,-1
574 93 m 1,222,-1
 554 78 l 1,223,224
 573 73 573 73 592 70 c 1,225,226
 583 81 583 81 574 93 c 1,222,-1
569 99 m 1,227,228
 559 114 559 114 550 132 c 1,229,230
 523 113 523 113 500 96 c 1,231,232
 521 87 521 87 544 81 c 1,233,-1
 569 99 l 1,227,228
529 179 m 1,234,-1
 448 121 l 1,235,236
 464 112 464 112 481 104 c 0,237,238
 487 101 487 101 492 99 c 1,239,240
 520 119 520 119 547 138 c 1,241,242
 537 157 537 157 529 179 c 1,234,-1
EndSplineSet
Validated: 3073
Layer: 3
SplineSet
130 982 m 132,-1,0
 168 1123 168 1123 242 1227 c 132,-1,1
 316 1331 316 1331 427.5 1389.5 c 132,-1,2
 539 1448 539 1448 688 1448 c 4,3,4
 795 1448 795 1448 888.5 1402.5 c 132,-1,5
 982 1357 982 1357 1059 1252 c 6,6,-1
 1065 1244 l 5,7,-1
 1154 1434 l 5,8,-1
 1194 1434 l 5,9,-1
 1194 796 l 5,10,-1
 1151 796 l 5,11,12
 1125 953 1125 953 1081 1058 c 132,-1,13
 1037 1163 1037 1163 984.5 1226 c 132,-1,14
 932 1289 932 1289 874.5 1315.5 c 132,-1,15
 817 1342 817 1342 766 1342 c 4,16,17
 741 1342 741 1342 715 1337 c 132,-1,18
 689 1332 689 1332 667 1311 c 132,-1,19
 645 1290 645 1290 624 1251 c 4,20,21
 604 1214 604 1214 591 1150 c 4,22,23
 562 1009 562 1009 562 768 c 4,24,25
 562 375 562 375 615 218 c 4,26,27
 635 158 635 158 669 124 c 4,28,29
 713 80 713 80 786 80 c 4,30,31
 937 80 937 80 1033 209 c 4,32,33
 1081 275 1081 275 1112.5 380 c 132,-1,34
 1144 485 1144 485 1152 626 c 5,35,-1
 1202 626 l 5,36,37
 1195 488 1195 488 1165.5 369 c 132,-1,38
 1136 250 1136 250 1076 160.5 c 132,-1,39
 1016 71 1016 71 920 19.5 c 132,-1,40
 824 -32 824 -32 687 -32 c 132,-1,41
 550 -32 550 -32 441 19 c 4,42,43
 355 60 355 60 289 126 c 4,44,45
 185 231 185 231 134 389 c 4,46,47
 92 519 92 519 92 680 c 132,-1,48
 92 841 92 841 130 982 c 132,-1,0
EndSplineSet
EndChar

